%TF.GenerationSoftware,KiCad,Pcbnew,8.0.1*%
%TF.CreationDate,2024-10-21T16:06:20-03:00*%
%TF.ProjectId,placa_de_sensores,706c6163-615f-4646-955f-73656e736f72,rev?*%
%TF.SameCoordinates,Original*%
%TF.FileFunction,Copper,L2,Bot*%
%TF.FilePolarity,Positive*%
%FSLAX46Y46*%
G04 Gerber Fmt 4.6, Leading zero omitted, Abs format (unit mm)*
G04 Created by KiCad (PCBNEW 8.0.1) date 2024-10-21 16:06:20*
%MOMM*%
%LPD*%
G01*
G04 APERTURE LIST*
G04 Aperture macros list*
%AMRoundRect*
0 Rectangle with rounded corners*
0 $1 Rounding radius*
0 $2 $3 $4 $5 $6 $7 $8 $9 X,Y pos of 4 corners*
0 Add a 4 corners polygon primitive as box body*
4,1,4,$2,$3,$4,$5,$6,$7,$8,$9,$2,$3,0*
0 Add four circle primitives for the rounded corners*
1,1,$1+$1,$2,$3*
1,1,$1+$1,$4,$5*
1,1,$1+$1,$6,$7*
1,1,$1+$1,$8,$9*
0 Add four rect primitives between the rounded corners*
20,1,$1+$1,$2,$3,$4,$5,0*
20,1,$1+$1,$4,$5,$6,$7,0*
20,1,$1+$1,$6,$7,$8,$9,0*
20,1,$1+$1,$8,$9,$2,$3,0*%
G04 Aperture macros list end*
%TA.AperFunction,ComponentPad*%
%ADD10RoundRect,0.250000X0.600000X0.725000X-0.600000X0.725000X-0.600000X-0.725000X0.600000X-0.725000X0*%
%TD*%
%TA.AperFunction,ComponentPad*%
%ADD11O,1.700000X1.950000*%
%TD*%
%TA.AperFunction,ComponentPad*%
%ADD12R,1.700000X1.700000*%
%TD*%
%TA.AperFunction,ComponentPad*%
%ADD13O,1.700000X1.700000*%
%TD*%
%TA.AperFunction,ComponentPad*%
%ADD14O,1.600000X1.600000*%
%TD*%
%TA.AperFunction,ComponentPad*%
%ADD15C,1.600000*%
%TD*%
%TA.AperFunction,ComponentPad*%
%ADD16R,0.850000X0.850000*%
%TD*%
%TA.AperFunction,ComponentPad*%
%ADD17R,1.378000X1.378000*%
%TD*%
%TA.AperFunction,ComponentPad*%
%ADD18C,1.378000*%
%TD*%
%TA.AperFunction,Conductor*%
%ADD19C,0.200000*%
%TD*%
G04 APERTURE END LIST*
D10*
%TO.P,CONEX\u00C3O-I2C1,1,Pin_1*%
%TO.N,/SCL*%
X150500000Y-75250000D03*
D11*
%TO.P,CONEX\u00C3O-I2C1,2,Pin_2*%
%TO.N,/SDA*%
X148000000Y-75250000D03*
%TO.P,CONEX\u00C3O-I2C1,3,Pin_3*%
%TO.N,+3V3*%
X145500000Y-75250000D03*
%TO.P,CONEX\u00C3O-I2C1,4,Pin_4*%
%TO.N,GND*%
X143000000Y-75250000D03*
%TD*%
D12*
%TO.P,INA122,1,Pin_1*%
%TO.N,Net-(INA122_D1-Pin_1)*%
X175000000Y-67460000D03*
D13*
%TO.P,INA122,2,Pin_2*%
%TO.N,+3V3*%
X175000000Y-70000000D03*
%TO.P,INA122,3,Pin_3*%
%TO.N,/ANA_OUT*%
X175000000Y-72540000D03*
%TO.P,INA122,4,Pin_4*%
%TO.N,Net-(INA122_D1-Pin_4)*%
X175000000Y-75080000D03*
%TD*%
D14*
%TO.P,RG,2*%
%TO.N,Net-(INA122_D1-Pin_1)*%
X159000000Y-67190000D03*
D15*
%TO.P,RG,1*%
%TO.N,Net-(INA122_E1-Pin_1)*%
X159000000Y-74810000D03*
%TD*%
D14*
%TO.P,R10,2*%
%TO.N,+3V3*%
X129000000Y-55380000D03*
D15*
%TO.P,R10,1*%
%TO.N,Net-(R10-Pad1)*%
X129000000Y-63000000D03*
%TD*%
D14*
%TO.P,R9,2*%
%TO.N,+3V3*%
X149500000Y-55500000D03*
D15*
%TO.P,R9,1*%
%TO.N,Net-(R9-Pad1)*%
X149500000Y-63120000D03*
%TD*%
%TO.P,R8,1*%
%TO.N,Net-(INA122_D1-Pin_4)*%
X187000000Y-75810000D03*
D14*
%TO.P,R8,2*%
%TO.N,GND*%
X187000000Y-68190000D03*
%TD*%
D15*
%TO.P,R7,1*%
%TO.N,+3V3*%
X183250000Y-68130000D03*
D14*
%TO.P,R7,2*%
%TO.N,Net-(INA122_D1-Pin_4)*%
X183250000Y-75750000D03*
%TD*%
D15*
%TO.P,R6,1*%
%TO.N,+3V3*%
X140750000Y-55440000D03*
D14*
%TO.P,R6,2*%
%TO.N,/A0*%
X140750000Y-63060000D03*
%TD*%
%TO.P,R5,2*%
%TO.N,/A1*%
X160750000Y-63120000D03*
D15*
%TO.P,R5,1*%
%TO.N,+3V3*%
X160750000Y-55500000D03*
%TD*%
%TO.P,R4,1*%
%TO.N,Net-(R4-Pad1)*%
X169250000Y-63250000D03*
D14*
%TO.P,R4,2*%
%TO.N,+3V3*%
X169250000Y-55630000D03*
%TD*%
D15*
%TO.P,R3,1*%
%TO.N,Net-(R3-Pad1)*%
X189250000Y-63250000D03*
D14*
%TO.P,R3,2*%
%TO.N,+3V3*%
X189250000Y-55630000D03*
%TD*%
%TO.P,R2,2*%
%TO.N,/A2*%
X180750000Y-63180000D03*
D15*
%TO.P,R2,1*%
%TO.N,+3V3*%
X180750000Y-55560000D03*
%TD*%
D14*
%TO.P,R1,2*%
%TO.N,/A3*%
X200500000Y-63310000D03*
D15*
%TO.P,R1,1*%
%TO.N,+3V3*%
X200500000Y-55690000D03*
%TD*%
D16*
%TO.P,ANA_OUT,1,Pin_1*%
%TO.N,/ANA_OUT*%
X200250000Y-69250000D03*
%TD*%
D12*
%TO.P,INA122_E1,1,Pin_1*%
%TO.N,Net-(INA122_E1-Pin_1)*%
X167000000Y-67460000D03*
D13*
%TO.P,INA122_E1,2,Pin_2*%
%TO.N,/A2*%
X167000000Y-70000000D03*
%TO.P,INA122_E1,3,Pin_3*%
%TO.N,/A1*%
X167000000Y-72540000D03*
%TO.P,INA122_E1,4,Pin_4*%
%TO.N,GND*%
X167000000Y-75080000D03*
%TD*%
%TO.P,ADS1115,10,Pin_10*%
%TO.N,/A3*%
X151870000Y-50000000D03*
%TO.P,ADS1115,9,Pin_9*%
%TO.N,/A2*%
X149330000Y-50000000D03*
%TO.P,ADS1115,8,Pin_8*%
%TO.N,/A1*%
X146790000Y-50000000D03*
%TO.P,ADS1115,7,Pin_7*%
%TO.N,/A0*%
X144250000Y-50000000D03*
%TO.P,ADS1115,6,Pin_6*%
%TO.N,/ALRT*%
X141710000Y-50000000D03*
%TO.P,ADS1115,5,Pin_5*%
%TO.N,/ADDR*%
X139170000Y-50000000D03*
%TO.P,ADS1115,4,Pin_4*%
%TO.N,/SDA*%
X136630000Y-50000000D03*
%TO.P,ADS1115,3,Pin_3*%
%TO.N,/SCL*%
X134090000Y-50000000D03*
%TO.P,ADS1115,2,Pin_2*%
%TO.N,GND*%
X131550000Y-50000000D03*
D12*
%TO.P,ADS1115,1,Pin_1*%
%TO.N,+3V3*%
X129010000Y-50000000D03*
%TD*%
D17*
%TO.P,U1,1*%
%TO.N,/A3*%
X196000000Y-59560000D03*
D18*
%TO.P,U1,2*%
%TO.N,GND*%
X193460000Y-59560000D03*
%TO.P,U1,3*%
%TO.N,Net-(R3-Pad1)*%
X193460000Y-57450000D03*
%TO.P,U1,4*%
%TO.N,GND*%
X196000000Y-57450000D03*
%TD*%
D17*
%TO.P,U2,1*%
%TO.N,/A2*%
X176000000Y-59560000D03*
D18*
%TO.P,U2,2*%
%TO.N,GND*%
X173460000Y-59560000D03*
%TO.P,U2,3*%
%TO.N,Net-(R4-Pad1)*%
X173460000Y-57450000D03*
%TO.P,U2,4*%
%TO.N,GND*%
X176000000Y-57450000D03*
%TD*%
D17*
%TO.P,U4,1*%
%TO.N,/A0*%
X136000000Y-59560000D03*
D18*
%TO.P,U4,2*%
%TO.N,GND*%
X133460000Y-59560000D03*
%TO.P,U4,3*%
%TO.N,Net-(R10-Pad1)*%
X133460000Y-57450000D03*
%TO.P,U4,4*%
%TO.N,GND*%
X136000000Y-57450000D03*
%TD*%
D17*
%TO.P,U3,1*%
%TO.N,/A1*%
X156000000Y-59560000D03*
D18*
%TO.P,U3,2*%
%TO.N,GND*%
X153460000Y-59560000D03*
%TO.P,U3,3*%
%TO.N,Net-(R9-Pad1)*%
X153460000Y-57450000D03*
%TO.P,U3,4*%
%TO.N,GND*%
X156000000Y-57450000D03*
%TD*%
D19*
%TO.N,+3V3*%
X145500000Y-76000000D02*
X145500000Y-75250000D01*
X146250000Y-76750000D02*
X145500000Y-76000000D01*
X168250000Y-76750000D02*
X146250000Y-76750000D01*
X175000000Y-70000000D02*
X168250000Y-76750000D01*
%TO.N,/SCL*%
X150500000Y-71250000D02*
X150500000Y-75250000D01*
X126500000Y-56500000D02*
X140000000Y-70000000D01*
X126500000Y-48750000D02*
X126500000Y-56500000D01*
X127500000Y-47750000D02*
X126500000Y-48750000D01*
X133250000Y-47750000D02*
X127500000Y-47750000D01*
X140000000Y-70000000D02*
X149250000Y-70000000D01*
X149250000Y-70000000D02*
X150500000Y-71250000D01*
X134090000Y-48590000D02*
X133250000Y-47750000D01*
X134090000Y-50000000D02*
X134090000Y-48590000D01*
%TO.N,/ANA_OUT*%
X198551226Y-70897548D02*
X176642452Y-70897548D01*
X176642452Y-70897548D02*
X175000000Y-72540000D01*
X200198774Y-69250000D02*
X198551226Y-70897548D01*
X200250000Y-69250000D02*
X200198774Y-69250000D01*
%TO.N,Net-(INA122_D1-Pin_1)*%
X173290000Y-65750000D02*
X175000000Y-67460000D01*
X159000000Y-67190000D02*
X160440000Y-65750000D01*
X160440000Y-65750000D02*
X173290000Y-65750000D01*
%TO.N,Net-(INA122_D1-Pin_4)*%
X182580000Y-75080000D02*
X183250000Y-75750000D01*
X175000000Y-75080000D02*
X182580000Y-75080000D01*
X186940000Y-75750000D02*
X187000000Y-75810000D01*
X183250000Y-75750000D02*
X186940000Y-75750000D01*
%TO.N,/A3*%
X198000000Y-57560000D02*
X196000000Y-59560000D01*
X192250000Y-50000000D02*
X198000000Y-55750000D01*
X151870000Y-50000000D02*
X192250000Y-50000000D01*
X198000000Y-55750000D02*
X198000000Y-57560000D01*
%TO.N,/A2*%
X152830000Y-53500000D02*
X149330000Y-50000000D01*
X174750000Y-53500000D02*
X152830000Y-53500000D01*
X177750000Y-56500000D02*
X174750000Y-53500000D01*
X176000000Y-59500000D02*
X177750000Y-57750000D01*
X177750000Y-57750000D02*
X177750000Y-56500000D01*
X176000000Y-59560000D02*
X176000000Y-59500000D01*
%TO.N,/A1*%
X157750000Y-56750000D02*
X156500000Y-55500000D01*
X156440000Y-59560000D02*
X157750000Y-58250000D01*
X156000000Y-59560000D02*
X156440000Y-59560000D01*
X157750000Y-58250000D02*
X157750000Y-56750000D01*
X152290000Y-55500000D02*
X156500000Y-55500000D01*
X146790000Y-50000000D02*
X152290000Y-55500000D01*
%TO.N,/A0*%
X141250000Y-53750000D02*
X144250000Y-50750000D01*
X139750000Y-53750000D02*
X141250000Y-53750000D01*
X144250000Y-50750000D02*
X144250000Y-50000000D01*
X138500000Y-55000000D02*
X139750000Y-53750000D01*
X138500000Y-57060000D02*
X138500000Y-55000000D01*
X136000000Y-59560000D02*
X138500000Y-57060000D01*
%TO.N,+3V3*%
X183250000Y-69000000D02*
X183250000Y-68130000D01*
X182250000Y-70000000D02*
X183250000Y-69000000D01*
X175000000Y-70000000D02*
X182250000Y-70000000D01*
X183250000Y-58060000D02*
X180750000Y-55560000D01*
X183250000Y-68130000D02*
X183250000Y-58060000D01*
X129000000Y-50010000D02*
X129010000Y-50000000D01*
X129000000Y-55380000D02*
X129000000Y-50010000D01*
X140690000Y-55380000D02*
X140750000Y-55440000D01*
X140810000Y-55500000D02*
X140750000Y-55440000D01*
X149500000Y-55500000D02*
X140810000Y-55500000D01*
X189310000Y-55690000D02*
X189250000Y-55630000D01*
X189180000Y-55560000D02*
X189250000Y-55630000D01*
X180750000Y-55560000D02*
X189180000Y-55560000D01*
X169120000Y-55500000D02*
X169250000Y-55630000D01*
X160750000Y-55500000D02*
X169120000Y-55500000D01*
%TO.N,/A1*%
X157250000Y-65750000D02*
X159880000Y-63120000D01*
X157250000Y-68250000D02*
X157250000Y-65750000D01*
X159880000Y-63120000D02*
X160750000Y-63120000D01*
X167000000Y-72540000D02*
X161540000Y-72540000D01*
X161540000Y-72540000D02*
X157250000Y-68250000D01*
%TO.N,Net-(INA122_D1-Pin_1)*%
X159000000Y-67190000D02*
X159000000Y-67250000D01*
%TD*%
%TA.AperFunction,Conductor*%
%TO.N,GND*%
G36*
X204442539Y-46270185D02*
G01*
X204488294Y-46322989D01*
X204499500Y-46374500D01*
X204499500Y-77375500D01*
X204479815Y-77442539D01*
X204427011Y-77488294D01*
X204375500Y-77499500D01*
X125624500Y-77499500D01*
X125557461Y-77479815D01*
X125511706Y-77427011D01*
X125500500Y-77375500D01*
X125500500Y-73500005D01*
X132494556Y-73500005D01*
X132514310Y-73814004D01*
X132514311Y-73814011D01*
X132527126Y-73881188D01*
X132573102Y-74122206D01*
X132573270Y-74123083D01*
X132670497Y-74422316D01*
X132670499Y-74422321D01*
X132804461Y-74707003D01*
X132804464Y-74707009D01*
X132973051Y-74972661D01*
X132973054Y-74972665D01*
X133173606Y-75215090D01*
X133173608Y-75215092D01*
X133173610Y-75215094D01*
X133381233Y-75410065D01*
X133402968Y-75430476D01*
X133402978Y-75430484D01*
X133657504Y-75615408D01*
X133657509Y-75615410D01*
X133657516Y-75615416D01*
X133933234Y-75766994D01*
X133933239Y-75766996D01*
X133933241Y-75766997D01*
X133933242Y-75766998D01*
X134225771Y-75882818D01*
X134225774Y-75882819D01*
X134472351Y-75946129D01*
X134530527Y-75961066D01*
X134596010Y-75969338D01*
X134842670Y-76000499D01*
X134842679Y-76000499D01*
X134842682Y-76000500D01*
X134842684Y-76000500D01*
X135157316Y-76000500D01*
X135157318Y-76000500D01*
X135157321Y-76000499D01*
X135157329Y-76000499D01*
X135343593Y-75976968D01*
X135469473Y-75961066D01*
X135774225Y-75882819D01*
X135774228Y-75882818D01*
X136066757Y-75766998D01*
X136066758Y-75766997D01*
X136066756Y-75766997D01*
X136066766Y-75766994D01*
X136342484Y-75615416D01*
X136597030Y-75430478D01*
X136826390Y-75215094D01*
X137026947Y-74972663D01*
X137195537Y-74707007D01*
X137329503Y-74422315D01*
X137426731Y-74123079D01*
X137485688Y-73814015D01*
X137485689Y-73814004D01*
X137505444Y-73500005D01*
X137505444Y-73499994D01*
X137485689Y-73185995D01*
X137485688Y-73185988D01*
X137485688Y-73185985D01*
X137426731Y-72876921D01*
X137329503Y-72577685D01*
X137195537Y-72292993D01*
X137090067Y-72126798D01*
X137026948Y-72027338D01*
X137026945Y-72027334D01*
X136826393Y-71784909D01*
X136826391Y-71784907D01*
X136612646Y-71584186D01*
X136597030Y-71569522D01*
X136597027Y-71569520D01*
X136597021Y-71569515D01*
X136342495Y-71384591D01*
X136342488Y-71384586D01*
X136342484Y-71384584D01*
X136066766Y-71233006D01*
X136066763Y-71233004D01*
X136066758Y-71233002D01*
X136066757Y-71233001D01*
X135774228Y-71117181D01*
X135774225Y-71117180D01*
X135469476Y-71038934D01*
X135469463Y-71038932D01*
X135157329Y-70999500D01*
X135157318Y-70999500D01*
X134842682Y-70999500D01*
X134842670Y-70999500D01*
X134530536Y-71038932D01*
X134530523Y-71038934D01*
X134225774Y-71117180D01*
X134225771Y-71117181D01*
X133933242Y-71233001D01*
X133933241Y-71233002D01*
X133657516Y-71384584D01*
X133657504Y-71384591D01*
X133402978Y-71569515D01*
X133402968Y-71569523D01*
X133173608Y-71784907D01*
X133173606Y-71784909D01*
X132973054Y-72027334D01*
X132973051Y-72027338D01*
X132804464Y-72292990D01*
X132804461Y-72292996D01*
X132670499Y-72577678D01*
X132670497Y-72577683D01*
X132573270Y-72876916D01*
X132514311Y-73185988D01*
X132514310Y-73185995D01*
X132494556Y-73499994D01*
X132494556Y-73500005D01*
X125500500Y-73500005D01*
X125500500Y-63000000D01*
X127994659Y-63000000D01*
X128013975Y-63196129D01*
X128071188Y-63384733D01*
X128164086Y-63558532D01*
X128164090Y-63558539D01*
X128289116Y-63710883D01*
X128441460Y-63835909D01*
X128441467Y-63835913D01*
X128615266Y-63928811D01*
X128615269Y-63928811D01*
X128615273Y-63928814D01*
X128803868Y-63986024D01*
X129000000Y-64005341D01*
X129196132Y-63986024D01*
X129384727Y-63928814D01*
X129558538Y-63835910D01*
X129710883Y-63710883D01*
X129835910Y-63558538D01*
X129928814Y-63384727D01*
X129986024Y-63196132D01*
X130005341Y-63000000D01*
X129986024Y-62803868D01*
X129928814Y-62615273D01*
X129928811Y-62615269D01*
X129928811Y-62615266D01*
X129835913Y-62441467D01*
X129835909Y-62441460D01*
X129710883Y-62289116D01*
X129558539Y-62164090D01*
X129558532Y-62164086D01*
X129384733Y-62071188D01*
X129384727Y-62071186D01*
X129196132Y-62013976D01*
X129196129Y-62013975D01*
X129000000Y-61994659D01*
X128803870Y-62013975D01*
X128615266Y-62071188D01*
X128441467Y-62164086D01*
X128441460Y-62164090D01*
X128289116Y-62289116D01*
X128164090Y-62441460D01*
X128164086Y-62441467D01*
X128071188Y-62615266D01*
X128013975Y-62803870D01*
X127994659Y-63000000D01*
X125500500Y-63000000D01*
X125500500Y-56539562D01*
X126199500Y-56539562D01*
X126219979Y-56615989D01*
X126230384Y-56634011D01*
X126259540Y-56684511D01*
X139759540Y-70184511D01*
X139815489Y-70240460D01*
X139815491Y-70240461D01*
X139815495Y-70240464D01*
X139884004Y-70280017D01*
X139884011Y-70280021D01*
X139960438Y-70300500D01*
X149074167Y-70300500D01*
X149141206Y-70320185D01*
X149161848Y-70336819D01*
X150163181Y-71338152D01*
X150196666Y-71399475D01*
X150199500Y-71425833D01*
X150199500Y-73950500D01*
X150179815Y-74017539D01*
X150127011Y-74063294D01*
X150075500Y-74074500D01*
X149845730Y-74074500D01*
X149815300Y-74077353D01*
X149815298Y-74077353D01*
X149687119Y-74122206D01*
X149687117Y-74122207D01*
X149577850Y-74202850D01*
X149497207Y-74312117D01*
X149497206Y-74312119D01*
X149452353Y-74440298D01*
X149452353Y-74440300D01*
X149449500Y-74470730D01*
X149449500Y-76029269D01*
X149452353Y-76059699D01*
X149452353Y-76059701D01*
X149492523Y-76174497D01*
X149497207Y-76187882D01*
X149523808Y-76223925D01*
X149544430Y-76251867D01*
X149568400Y-76317496D01*
X149553084Y-76385666D01*
X149503344Y-76434734D01*
X149444659Y-76449500D01*
X148691521Y-76449500D01*
X148624482Y-76429815D01*
X148578727Y-76377011D01*
X148568783Y-76307853D01*
X148597808Y-76244297D01*
X148622631Y-76222397D01*
X148637461Y-76212488D01*
X148669655Y-76190977D01*
X148815977Y-76044655D01*
X148930941Y-75872598D01*
X149010130Y-75681420D01*
X149050500Y-75478465D01*
X149050500Y-75021535D01*
X149010130Y-74818580D01*
X148930941Y-74627402D01*
X148815977Y-74455345D01*
X148815975Y-74455342D01*
X148669657Y-74309024D01*
X148574638Y-74245535D01*
X148497598Y-74194059D01*
X148306420Y-74114870D01*
X148306412Y-74114868D01*
X148103469Y-74074500D01*
X148103465Y-74074500D01*
X147896535Y-74074500D01*
X147896530Y-74074500D01*
X147693587Y-74114868D01*
X147693579Y-74114870D01*
X147502403Y-74194058D01*
X147330342Y-74309024D01*
X147184024Y-74455342D01*
X147069058Y-74627403D01*
X146989870Y-74818579D01*
X146989868Y-74818587D01*
X146949500Y-75021530D01*
X146949500Y-75478469D01*
X146989868Y-75681412D01*
X146989870Y-75681420D01*
X147013643Y-75738814D01*
X147069059Y-75872598D01*
X147118193Y-75946132D01*
X147184024Y-76044657D01*
X147330342Y-76190975D01*
X147377369Y-76222397D01*
X147422175Y-76276009D01*
X147430882Y-76345334D01*
X147400728Y-76408362D01*
X147341285Y-76445082D01*
X147308479Y-76449500D01*
X146425833Y-76449500D01*
X146358794Y-76429815D01*
X146338152Y-76413181D01*
X146230483Y-76305512D01*
X146196998Y-76244189D01*
X146201982Y-76174497D01*
X146230483Y-76130150D01*
X146315974Y-76044658D01*
X146315975Y-76044657D01*
X146315977Y-76044655D01*
X146430941Y-75872598D01*
X146510130Y-75681420D01*
X146550500Y-75478465D01*
X146550500Y-75021535D01*
X146510130Y-74818580D01*
X146430941Y-74627402D01*
X146315977Y-74455345D01*
X146315975Y-74455342D01*
X146169657Y-74309024D01*
X146074638Y-74245535D01*
X145997598Y-74194059D01*
X145806420Y-74114870D01*
X145806412Y-74114868D01*
X145603469Y-74074500D01*
X145603465Y-74074500D01*
X145396535Y-74074500D01*
X145396530Y-74074500D01*
X145193587Y-74114868D01*
X145193579Y-74114870D01*
X145002403Y-74194058D01*
X144830342Y-74309024D01*
X144684024Y-74455342D01*
X144569057Y-74627404D01*
X144523251Y-74737990D01*
X144479409Y-74792394D01*
X144413115Y-74814458D01*
X144345416Y-74797178D01*
X144297806Y-74746041D01*
X144290759Y-74728855D01*
X144251095Y-74606782D01*
X144154620Y-74417442D01*
X144029727Y-74245540D01*
X144029723Y-74245535D01*
X143879464Y-74095276D01*
X143879459Y-74095272D01*
X143707557Y-73970379D01*
X143518215Y-73873903D01*
X143316124Y-73808241D01*
X143250000Y-73797768D01*
X143250000Y-74845854D01*
X143183343Y-74807370D01*
X143062535Y-74775000D01*
X142937465Y-74775000D01*
X142816657Y-74807370D01*
X142750000Y-74845854D01*
X142750000Y-73797768D01*
X142749999Y-73797768D01*
X142683875Y-73808241D01*
X142481784Y-73873903D01*
X142292442Y-73970379D01*
X142120540Y-74095272D01*
X142120535Y-74095276D01*
X141970276Y-74245535D01*
X141970272Y-74245540D01*
X141845379Y-74417442D01*
X141748904Y-74606782D01*
X141683242Y-74808869D01*
X141683242Y-74808872D01*
X141652970Y-75000000D01*
X142595854Y-75000000D01*
X142557370Y-75066657D01*
X142525000Y-75187465D01*
X142525000Y-75312535D01*
X142557370Y-75433343D01*
X142595854Y-75500000D01*
X141652970Y-75500000D01*
X141683242Y-75691127D01*
X141683242Y-75691130D01*
X141748904Y-75893217D01*
X141845379Y-76082557D01*
X141970272Y-76254459D01*
X141970276Y-76254464D01*
X142120535Y-76404723D01*
X142120540Y-76404727D01*
X142292442Y-76529620D01*
X142481782Y-76626095D01*
X142683871Y-76691757D01*
X142750000Y-76702231D01*
X142750000Y-75654145D01*
X142816657Y-75692630D01*
X142937465Y-75725000D01*
X143062535Y-75725000D01*
X143183343Y-75692630D01*
X143250000Y-75654145D01*
X143250000Y-76702230D01*
X143316126Y-76691757D01*
X143316129Y-76691757D01*
X143518217Y-76626095D01*
X143707557Y-76529620D01*
X143879459Y-76404727D01*
X143879464Y-76404723D01*
X144029723Y-76254464D01*
X144029727Y-76254459D01*
X144154620Y-76082557D01*
X144251095Y-75893217D01*
X144290759Y-75771144D01*
X144330196Y-75713469D01*
X144394555Y-75686270D01*
X144463401Y-75698184D01*
X144514877Y-75745428D01*
X144523251Y-75762009D01*
X144569057Y-75872596D01*
X144684024Y-76044657D01*
X144830342Y-76190975D01*
X144830345Y-76190977D01*
X145002402Y-76305941D01*
X145193580Y-76385130D01*
X145334603Y-76413181D01*
X145396530Y-76425499D01*
X145396534Y-76425500D01*
X145396535Y-76425500D01*
X145449167Y-76425500D01*
X145516206Y-76445185D01*
X145536848Y-76461819D01*
X146009540Y-76934511D01*
X146065489Y-76990460D01*
X146065491Y-76990461D01*
X146065495Y-76990464D01*
X146134004Y-77030017D01*
X146134011Y-77030021D01*
X146210438Y-77050500D01*
X146210440Y-77050500D01*
X168289560Y-77050500D01*
X168289562Y-77050500D01*
X168365989Y-77030021D01*
X168434511Y-76990460D01*
X168490460Y-76934511D01*
X170344971Y-75080000D01*
X173944417Y-75080000D01*
X173964699Y-75285932D01*
X173989757Y-75368538D01*
X174024768Y-75483954D01*
X174122315Y-75666450D01*
X174138581Y-75686270D01*
X174253589Y-75826410D01*
X174322325Y-75882819D01*
X174413550Y-75957685D01*
X174596046Y-76055232D01*
X174794066Y-76115300D01*
X174794065Y-76115300D01*
X174812529Y-76117118D01*
X175000000Y-76135583D01*
X175205934Y-76115300D01*
X175403954Y-76055232D01*
X175586450Y-75957685D01*
X175746410Y-75826410D01*
X175877685Y-75666450D01*
X175975232Y-75483954D01*
X175979919Y-75468503D01*
X176018217Y-75410065D01*
X176082030Y-75381609D01*
X176098579Y-75380500D01*
X182149372Y-75380500D01*
X182216411Y-75400185D01*
X182262166Y-75452989D01*
X182272110Y-75522147D01*
X182268032Y-75540496D01*
X182263976Y-75553866D01*
X182244659Y-75750000D01*
X182263975Y-75946129D01*
X182280468Y-76000499D01*
X182295973Y-76051613D01*
X182321188Y-76134733D01*
X182414086Y-76308532D01*
X182414090Y-76308539D01*
X182539116Y-76460883D01*
X182691460Y-76585909D01*
X182691467Y-76585913D01*
X182865266Y-76678811D01*
X182865269Y-76678811D01*
X182865273Y-76678814D01*
X183053868Y-76736024D01*
X183250000Y-76755341D01*
X183446132Y-76736024D01*
X183634727Y-76678814D01*
X183808538Y-76585910D01*
X183960883Y-76460883D01*
X184085910Y-76308538D01*
X184178814Y-76134727D01*
X184178815Y-76134723D01*
X184181144Y-76129103D01*
X184183260Y-76129979D01*
X184215945Y-76080083D01*
X184279751Y-76051613D01*
X184296328Y-76050500D01*
X185935470Y-76050500D01*
X186002509Y-76070185D01*
X186048264Y-76122989D01*
X186054130Y-76138503D01*
X186071186Y-76194729D01*
X186164086Y-76368532D01*
X186164090Y-76368539D01*
X186289116Y-76520883D01*
X186441460Y-76645909D01*
X186441467Y-76645913D01*
X186615266Y-76738811D01*
X186615269Y-76738811D01*
X186615273Y-76738814D01*
X186803868Y-76796024D01*
X187000000Y-76815341D01*
X187196132Y-76796024D01*
X187384727Y-76738814D01*
X187558538Y-76645910D01*
X187710883Y-76520883D01*
X187835910Y-76368538D01*
X187928814Y-76194727D01*
X187986024Y-76006132D01*
X188005341Y-75810000D01*
X187986024Y-75613868D01*
X187928814Y-75425273D01*
X187928811Y-75425269D01*
X187928811Y-75425266D01*
X187835913Y-75251467D01*
X187835909Y-75251460D01*
X187710883Y-75099116D01*
X187558539Y-74974090D01*
X187558532Y-74974086D01*
X187384733Y-74881188D01*
X187384727Y-74881186D01*
X187247439Y-74839540D01*
X187196129Y-74823975D01*
X187000000Y-74804659D01*
X186803870Y-74823975D01*
X186615266Y-74881188D01*
X186441467Y-74974086D01*
X186441460Y-74974090D01*
X186289116Y-75099116D01*
X186164090Y-75251460D01*
X186164085Y-75251467D01*
X186093271Y-75383953D01*
X186044309Y-75433798D01*
X185983913Y-75449500D01*
X184296328Y-75449500D01*
X184229289Y-75429815D01*
X184183534Y-75377011D01*
X184181212Y-75370868D01*
X184181144Y-75370897D01*
X184178814Y-75365273D01*
X184085913Y-75191467D01*
X184085909Y-75191460D01*
X183960883Y-75039116D01*
X183808539Y-74914090D01*
X183808532Y-74914086D01*
X183634733Y-74821188D01*
X183634727Y-74821186D01*
X183508997Y-74783046D01*
X183446129Y-74763975D01*
X183250000Y-74744659D01*
X183053870Y-74763975D01*
X182960187Y-74792394D01*
X182865273Y-74821186D01*
X182865272Y-74821186D01*
X182865267Y-74821188D01*
X182865265Y-74821189D01*
X182857211Y-74825494D01*
X182788808Y-74839733D01*
X182736764Y-74823520D01*
X182695992Y-74799980D01*
X182695991Y-74799979D01*
X182657775Y-74789739D01*
X182619562Y-74779500D01*
X182619560Y-74779500D01*
X176098579Y-74779500D01*
X176031540Y-74759815D01*
X175985785Y-74707011D01*
X175979919Y-74691497D01*
X175976401Y-74679901D01*
X175975232Y-74676046D01*
X175877685Y-74493550D01*
X175802897Y-74402420D01*
X175746410Y-74333589D01*
X175600302Y-74213683D01*
X175586450Y-74202315D01*
X175403954Y-74104768D01*
X175205934Y-74044700D01*
X175205932Y-74044699D01*
X175205934Y-74044699D01*
X175000000Y-74024417D01*
X174794067Y-74044699D01*
X174596043Y-74104769D01*
X174561781Y-74123083D01*
X174413550Y-74202315D01*
X174413548Y-74202316D01*
X174413547Y-74202317D01*
X174253589Y-74333589D01*
X174122317Y-74493547D01*
X174024769Y-74676043D01*
X173964699Y-74874067D01*
X173944417Y-75080000D01*
X170344971Y-75080000D01*
X172884970Y-72540000D01*
X173944417Y-72540000D01*
X173964699Y-72745932D01*
X173987173Y-72820020D01*
X174024768Y-72943954D01*
X174122315Y-73126450D01*
X174122317Y-73126452D01*
X174253589Y-73286410D01*
X174350209Y-73365702D01*
X174413550Y-73417685D01*
X174596046Y-73515232D01*
X174794066Y-73575300D01*
X174794065Y-73575300D01*
X174812529Y-73577118D01*
X175000000Y-73595583D01*
X175205934Y-73575300D01*
X175403954Y-73515232D01*
X175586450Y-73417685D01*
X175746410Y-73286410D01*
X175877685Y-73126450D01*
X175975232Y-72943954D01*
X176035300Y-72745934D01*
X176055583Y-72540000D01*
X176035300Y-72334066D01*
X175975232Y-72136046D01*
X175967620Y-72121806D01*
X175953379Y-72053404D01*
X175978379Y-71988160D01*
X175989298Y-71975672D01*
X176349241Y-71615730D01*
X176730604Y-71234367D01*
X176791927Y-71200882D01*
X176818285Y-71198048D01*
X193532627Y-71198048D01*
X193599666Y-71217733D01*
X193645421Y-71270537D01*
X193655365Y-71339695D01*
X193626340Y-71403251D01*
X193605512Y-71422366D01*
X193402978Y-71569515D01*
X193402968Y-71569523D01*
X193173608Y-71784907D01*
X193173606Y-71784909D01*
X192973054Y-72027334D01*
X192973051Y-72027338D01*
X192804464Y-72292990D01*
X192804461Y-72292996D01*
X192670499Y-72577678D01*
X192670497Y-72577683D01*
X192573270Y-72876916D01*
X192514311Y-73185988D01*
X192514310Y-73185995D01*
X192494556Y-73499994D01*
X192494556Y-73500005D01*
X192514310Y-73814004D01*
X192514311Y-73814011D01*
X192527126Y-73881188D01*
X192573102Y-74122206D01*
X192573270Y-74123083D01*
X192670497Y-74422316D01*
X192670499Y-74422321D01*
X192804461Y-74707003D01*
X192804464Y-74707009D01*
X192973051Y-74972661D01*
X192973054Y-74972665D01*
X193173606Y-75215090D01*
X193173608Y-75215092D01*
X193173610Y-75215094D01*
X193381233Y-75410065D01*
X193402968Y-75430476D01*
X193402978Y-75430484D01*
X193657504Y-75615408D01*
X193657509Y-75615410D01*
X193657516Y-75615416D01*
X193933234Y-75766994D01*
X193933239Y-75766996D01*
X193933241Y-75766997D01*
X193933242Y-75766998D01*
X194225771Y-75882818D01*
X194225774Y-75882819D01*
X194472351Y-75946129D01*
X194530527Y-75961066D01*
X194596010Y-75969338D01*
X194842670Y-76000499D01*
X194842679Y-76000499D01*
X194842682Y-76000500D01*
X194842684Y-76000500D01*
X195157316Y-76000500D01*
X195157318Y-76000500D01*
X195157321Y-76000499D01*
X195157329Y-76000499D01*
X195343593Y-75976968D01*
X195469473Y-75961066D01*
X195774225Y-75882819D01*
X195774228Y-75882818D01*
X196066757Y-75766998D01*
X196066758Y-75766997D01*
X196066756Y-75766997D01*
X196066766Y-75766994D01*
X196342484Y-75615416D01*
X196597030Y-75430478D01*
X196826390Y-75215094D01*
X197026947Y-74972663D01*
X197195537Y-74707007D01*
X197329503Y-74422315D01*
X197426731Y-74123079D01*
X197485688Y-73814015D01*
X197485689Y-73814004D01*
X197505444Y-73500005D01*
X197505444Y-73499994D01*
X197485689Y-73185995D01*
X197485688Y-73185988D01*
X197485688Y-73185985D01*
X197426731Y-72876921D01*
X197329503Y-72577685D01*
X197195537Y-72292993D01*
X197090067Y-72126798D01*
X197026948Y-72027338D01*
X197026945Y-72027334D01*
X196826393Y-71784909D01*
X196826391Y-71784907D01*
X196612646Y-71584186D01*
X196597030Y-71569522D01*
X196597027Y-71569520D01*
X196597021Y-71569515D01*
X196394488Y-71422366D01*
X196351822Y-71367036D01*
X196345843Y-71297423D01*
X196378449Y-71235628D01*
X196439287Y-71201271D01*
X196467373Y-71198048D01*
X198590786Y-71198048D01*
X198590788Y-71198048D01*
X198667215Y-71177569D01*
X198735737Y-71138008D01*
X198791686Y-71082059D01*
X199961926Y-69911819D01*
X200023249Y-69878334D01*
X200049607Y-69875500D01*
X200694750Y-69875500D01*
X200694751Y-69875499D01*
X200709568Y-69872552D01*
X200753229Y-69863868D01*
X200753229Y-69863867D01*
X200753231Y-69863867D01*
X200819552Y-69819552D01*
X200863867Y-69753231D01*
X200863867Y-69753229D01*
X200863868Y-69753229D01*
X200875499Y-69694752D01*
X200875500Y-69694750D01*
X200875500Y-68805249D01*
X200875499Y-68805247D01*
X200863868Y-68746770D01*
X200863867Y-68746769D01*
X200819552Y-68680447D01*
X200753230Y-68636132D01*
X200753229Y-68636131D01*
X200694752Y-68624500D01*
X200694748Y-68624500D01*
X199805252Y-68624500D01*
X199805247Y-68624500D01*
X199746770Y-68636131D01*
X199746769Y-68636132D01*
X199680447Y-68680447D01*
X199636132Y-68746769D01*
X199636131Y-68746770D01*
X199624500Y-68805247D01*
X199624500Y-69347941D01*
X199604815Y-69414980D01*
X199588181Y-69435622D01*
X198463074Y-70560729D01*
X198401751Y-70594214D01*
X198375393Y-70597048D01*
X176602890Y-70597048D01*
X176564676Y-70607287D01*
X176526461Y-70617527D01*
X176526456Y-70617530D01*
X176457947Y-70657083D01*
X176457939Y-70657089D01*
X175564326Y-71550701D01*
X175503003Y-71584186D01*
X175433311Y-71579202D01*
X175418193Y-71572379D01*
X175403956Y-71564769D01*
X175403955Y-71564768D01*
X175403954Y-71564768D01*
X175205934Y-71504700D01*
X175205932Y-71504699D01*
X175205934Y-71504699D01*
X175000000Y-71484417D01*
X174794067Y-71504699D01*
X174596043Y-71564769D01*
X174485898Y-71623643D01*
X174413550Y-71662315D01*
X174413548Y-71662316D01*
X174413547Y-71662317D01*
X174253589Y-71793589D01*
X174122317Y-71953547D01*
X174122315Y-71953550D01*
X174094482Y-72005622D01*
X174024769Y-72136043D01*
X173964699Y-72334067D01*
X173944417Y-72540000D01*
X172884970Y-72540000D01*
X174435673Y-70989296D01*
X174496994Y-70955813D01*
X174566686Y-70960797D01*
X174581804Y-70967620D01*
X174590493Y-70972264D01*
X174596046Y-70975232D01*
X174794066Y-71035300D01*
X174794065Y-71035300D01*
X174812529Y-71037118D01*
X175000000Y-71055583D01*
X175205934Y-71035300D01*
X175403954Y-70975232D01*
X175586450Y-70877685D01*
X175746410Y-70746410D01*
X175877685Y-70586450D01*
X175975232Y-70403954D01*
X175979919Y-70388503D01*
X176018217Y-70330065D01*
X176082030Y-70301609D01*
X176098579Y-70300500D01*
X182289560Y-70300500D01*
X182289562Y-70300500D01*
X182365989Y-70280021D01*
X182434511Y-70240460D01*
X182490460Y-70184511D01*
X183490460Y-69184511D01*
X183523309Y-69127614D01*
X183573875Y-69079401D01*
X183594695Y-69070957D01*
X183634727Y-69058814D01*
X183808538Y-68965910D01*
X183960883Y-68840883D01*
X184085910Y-68688538D01*
X184178814Y-68514727D01*
X184236024Y-68326132D01*
X184255341Y-68130000D01*
X184236628Y-67939999D01*
X185721127Y-67939999D01*
X185721128Y-67940000D01*
X186684314Y-67940000D01*
X186679920Y-67944394D01*
X186627259Y-68035606D01*
X186600000Y-68137339D01*
X186600000Y-68242661D01*
X186627259Y-68344394D01*
X186679920Y-68435606D01*
X186684314Y-68440000D01*
X185721128Y-68440000D01*
X185773730Y-68636317D01*
X185773734Y-68636326D01*
X185869865Y-68842482D01*
X186000342Y-69028820D01*
X186161179Y-69189657D01*
X186347517Y-69320134D01*
X186553673Y-69416265D01*
X186553682Y-69416269D01*
X186749999Y-69468872D01*
X186750000Y-69468871D01*
X186750000Y-68505686D01*
X186754394Y-68510080D01*
X186845606Y-68562741D01*
X186947339Y-68590000D01*
X187052661Y-68590000D01*
X187154394Y-68562741D01*
X187245606Y-68510080D01*
X187250000Y-68505686D01*
X187250000Y-69468872D01*
X187446317Y-69416269D01*
X187446326Y-69416265D01*
X187652482Y-69320134D01*
X187838820Y-69189657D01*
X187999657Y-69028820D01*
X188130134Y-68842482D01*
X188226265Y-68636326D01*
X188226269Y-68636317D01*
X188278872Y-68440000D01*
X187315686Y-68440000D01*
X187320080Y-68435606D01*
X187372741Y-68344394D01*
X187400000Y-68242661D01*
X187400000Y-68137339D01*
X187372741Y-68035606D01*
X187320080Y-67944394D01*
X187315686Y-67940000D01*
X188278872Y-67940000D01*
X188278872Y-67939999D01*
X188226269Y-67743682D01*
X188226265Y-67743673D01*
X188130134Y-67537517D01*
X187999657Y-67351179D01*
X187838820Y-67190342D01*
X187652482Y-67059865D01*
X187446328Y-66963734D01*
X187250000Y-66911127D01*
X187250000Y-67874314D01*
X187245606Y-67869920D01*
X187154394Y-67817259D01*
X187052661Y-67790000D01*
X186947339Y-67790000D01*
X186845606Y-67817259D01*
X186754394Y-67869920D01*
X186750000Y-67874314D01*
X186750000Y-66911127D01*
X186553671Y-66963734D01*
X186347517Y-67059865D01*
X186161179Y-67190342D01*
X186000342Y-67351179D01*
X185869865Y-67537517D01*
X185773734Y-67743673D01*
X185773730Y-67743682D01*
X185721127Y-67939999D01*
X184236628Y-67939999D01*
X184236024Y-67933868D01*
X184178814Y-67745273D01*
X184178811Y-67745269D01*
X184178811Y-67745266D01*
X184085913Y-67571467D01*
X184085909Y-67571460D01*
X183960883Y-67419116D01*
X183808539Y-67294090D01*
X183808532Y-67294086D01*
X183634730Y-67201187D01*
X183629100Y-67198855D01*
X183629974Y-67196744D01*
X183580058Y-67164024D01*
X183551608Y-67100209D01*
X183550500Y-67083671D01*
X183550500Y-63250000D01*
X188244659Y-63250000D01*
X188263975Y-63446129D01*
X188263976Y-63446132D01*
X188316275Y-63618539D01*
X188321188Y-63634733D01*
X188414086Y-63808532D01*
X188414090Y-63808539D01*
X188539116Y-63960883D01*
X188691460Y-64085909D01*
X188691467Y-64085913D01*
X188865266Y-64178811D01*
X188865269Y-64178811D01*
X188865273Y-64178814D01*
X189053868Y-64236024D01*
X189250000Y-64255341D01*
X189446132Y-64236024D01*
X189634727Y-64178814D01*
X189658656Y-64166024D01*
X189734770Y-64125340D01*
X189808538Y-64085910D01*
X189960883Y-63960883D01*
X190085910Y-63808538D01*
X190178814Y-63634727D01*
X190236024Y-63446132D01*
X190249432Y-63310000D01*
X199494659Y-63310000D01*
X199513975Y-63506129D01*
X199513976Y-63506132D01*
X199570422Y-63692210D01*
X199571188Y-63694733D01*
X199664086Y-63868532D01*
X199664090Y-63868539D01*
X199789116Y-64020883D01*
X199941460Y-64145909D01*
X199941467Y-64145913D01*
X200115266Y-64238811D01*
X200115269Y-64238811D01*
X200115273Y-64238814D01*
X200303868Y-64296024D01*
X200500000Y-64315341D01*
X200696132Y-64296024D01*
X200884727Y-64238814D01*
X201058538Y-64145910D01*
X201210883Y-64020883D01*
X201335910Y-63868538D01*
X201405400Y-63738532D01*
X201428811Y-63694733D01*
X201428811Y-63694732D01*
X201428814Y-63694727D01*
X201486024Y-63506132D01*
X201505341Y-63310000D01*
X201486024Y-63113868D01*
X201428814Y-62925273D01*
X201428811Y-62925269D01*
X201428811Y-62925266D01*
X201335913Y-62751467D01*
X201335909Y-62751460D01*
X201210883Y-62599116D01*
X201058539Y-62474090D01*
X201058532Y-62474086D01*
X200884733Y-62381188D01*
X200884727Y-62381186D01*
X200696132Y-62323976D01*
X200696129Y-62323975D01*
X200500000Y-62304659D01*
X200303870Y-62323975D01*
X200115266Y-62381188D01*
X199941467Y-62474086D01*
X199941460Y-62474090D01*
X199789116Y-62599116D01*
X199664090Y-62751460D01*
X199664086Y-62751467D01*
X199571188Y-62925266D01*
X199513975Y-63113870D01*
X199494659Y-63310000D01*
X190249432Y-63310000D01*
X190255341Y-63250000D01*
X190236024Y-63053868D01*
X190178814Y-62865273D01*
X190178811Y-62865269D01*
X190178811Y-62865266D01*
X190085913Y-62691467D01*
X190085909Y-62691460D01*
X189960883Y-62539116D01*
X189808539Y-62414090D01*
X189808532Y-62414086D01*
X189634733Y-62321188D01*
X189634727Y-62321186D01*
X189446132Y-62263976D01*
X189446129Y-62263975D01*
X189250000Y-62244659D01*
X189053870Y-62263975D01*
X188865266Y-62321188D01*
X188691467Y-62414086D01*
X188691460Y-62414090D01*
X188539116Y-62539116D01*
X188414090Y-62691460D01*
X188414086Y-62691467D01*
X188321188Y-62865266D01*
X188263975Y-63053870D01*
X188244659Y-63250000D01*
X183550500Y-63250000D01*
X183550500Y-59560000D01*
X192265906Y-59560000D01*
X192286237Y-59779413D01*
X192286238Y-59779415D01*
X192346539Y-59991352D01*
X192346545Y-59991367D01*
X192444762Y-60188612D01*
X192458991Y-60207454D01*
X192458992Y-60207454D01*
X193030109Y-59636337D01*
X193054644Y-59727904D01*
X193111913Y-59827097D01*
X193192903Y-59908087D01*
X193292096Y-59965356D01*
X193383662Y-59989890D01*
X192814661Y-60558889D01*
X192814662Y-60558890D01*
X192927743Y-60628907D01*
X192927749Y-60628910D01*
X193133218Y-60708508D01*
X193349825Y-60749000D01*
X193570175Y-60749000D01*
X193786781Y-60708508D01*
X193992252Y-60628909D01*
X193992253Y-60628908D01*
X194105337Y-60558889D01*
X193536338Y-59989890D01*
X193627904Y-59965356D01*
X193727097Y-59908087D01*
X193808087Y-59827097D01*
X193865356Y-59727904D01*
X193889890Y-59636337D01*
X194461006Y-60207454D01*
X194475237Y-60188609D01*
X194475239Y-60188606D01*
X194573454Y-59991367D01*
X194573460Y-59991352D01*
X194633761Y-59779415D01*
X194633762Y-59779413D01*
X194654094Y-59560000D01*
X194654094Y-59559999D01*
X194633762Y-59340586D01*
X194633761Y-59340584D01*
X194573460Y-59128647D01*
X194573454Y-59128632D01*
X194475242Y-58931396D01*
X194475237Y-58931388D01*
X194461006Y-58912544D01*
X193889890Y-59483661D01*
X193865356Y-59392096D01*
X193808087Y-59292903D01*
X193727097Y-59211913D01*
X193627904Y-59154644D01*
X193536338Y-59130109D01*
X194105337Y-58561109D01*
X194105336Y-58561108D01*
X193992256Y-58491093D01*
X193992244Y-58491087D01*
X193904616Y-58457139D01*
X193849215Y-58414566D01*
X193825625Y-58348799D01*
X193841337Y-58280719D01*
X193891361Y-58231940D01*
X193898960Y-58228241D01*
X193907200Y-58224573D01*
X194058470Y-58114669D01*
X194183585Y-57975715D01*
X194277075Y-57813785D01*
X194334855Y-57635956D01*
X194354400Y-57450000D01*
X194334855Y-57264044D01*
X194277075Y-57086215D01*
X194211045Y-56971847D01*
X194183586Y-56924286D01*
X194058469Y-56785330D01*
X193907204Y-56675429D01*
X193907201Y-56675427D01*
X193907200Y-56675427D01*
X193848911Y-56649475D01*
X193736390Y-56599376D01*
X193736384Y-56599374D01*
X193576990Y-56565495D01*
X193553490Y-56560500D01*
X193366510Y-56560500D01*
X193343010Y-56565495D01*
X193183615Y-56599374D01*
X193183609Y-56599376D01*
X193012800Y-56675427D01*
X193012795Y-56675429D01*
X192861530Y-56785330D01*
X192736413Y-56924286D01*
X192642925Y-57086213D01*
X192585146Y-57264039D01*
X192585145Y-57264041D01*
X192565600Y-57450000D01*
X192585145Y-57635958D01*
X192585146Y-57635960D01*
X192642925Y-57813786D01*
X192736413Y-57975713D01*
X192861530Y-58114669D01*
X193012795Y-58224570D01*
X193012796Y-58224571D01*
X193012799Y-58224572D01*
X193012800Y-58224573D01*
X193021021Y-58228233D01*
X193074259Y-58273481D01*
X193094582Y-58340329D01*
X193075539Y-58407554D01*
X193023174Y-58453811D01*
X193015383Y-58457139D01*
X192927754Y-58491087D01*
X192927749Y-58491090D01*
X192814661Y-58561109D01*
X193383662Y-59130109D01*
X193292096Y-59154644D01*
X193192903Y-59211913D01*
X193111913Y-59292903D01*
X193054644Y-59392096D01*
X193030109Y-59483662D01*
X192458992Y-58912545D01*
X192458991Y-58912545D01*
X192444761Y-58931390D01*
X192346545Y-59128632D01*
X192346539Y-59128647D01*
X192286238Y-59340584D01*
X192286237Y-59340586D01*
X192265906Y-59559999D01*
X192265906Y-59560000D01*
X183550500Y-59560000D01*
X183550500Y-58020439D01*
X183538516Y-57975715D01*
X183530021Y-57944011D01*
X183524536Y-57934510D01*
X183490464Y-57875495D01*
X183490458Y-57875487D01*
X181702351Y-56087380D01*
X181668866Y-56026057D01*
X181673850Y-55956365D01*
X181676550Y-55950383D01*
X181676483Y-55950355D01*
X181681146Y-55939098D01*
X181681699Y-55939327D01*
X181681703Y-55939321D01*
X181681767Y-55939355D01*
X181683263Y-55939975D01*
X181715945Y-55890083D01*
X181779751Y-55861613D01*
X181796328Y-55860500D01*
X188182437Y-55860500D01*
X188249476Y-55880185D01*
X188295231Y-55932989D01*
X188301097Y-55948504D01*
X188321186Y-56014728D01*
X188414086Y-56188532D01*
X188414090Y-56188539D01*
X188539116Y-56340883D01*
X188691460Y-56465909D01*
X188691467Y-56465913D01*
X188865266Y-56558811D01*
X188865269Y-56558811D01*
X188865273Y-56558814D01*
X189053868Y-56616024D01*
X189250000Y-56635341D01*
X189446132Y-56616024D01*
X189634727Y-56558814D01*
X189658656Y-56546024D01*
X189742126Y-56501408D01*
X189808538Y-56465910D01*
X189960883Y-56340883D01*
X190085910Y-56188538D01*
X190178814Y-56014727D01*
X190236024Y-55826132D01*
X190255341Y-55630000D01*
X190236024Y-55433868D01*
X190178814Y-55245273D01*
X190178811Y-55245269D01*
X190178811Y-55245266D01*
X190085913Y-55071467D01*
X190085909Y-55071460D01*
X189960883Y-54919116D01*
X189808539Y-54794090D01*
X189808532Y-54794086D01*
X189634733Y-54701188D01*
X189634727Y-54701186D01*
X189446132Y-54643976D01*
X189446129Y-54643975D01*
X189250000Y-54624659D01*
X189053870Y-54643975D01*
X188865266Y-54701188D01*
X188691467Y-54794086D01*
X188691460Y-54794090D01*
X188539116Y-54919116D01*
X188414090Y-55071460D01*
X188414085Y-55071467D01*
X188348616Y-55193953D01*
X188299654Y-55243798D01*
X188239258Y-55259500D01*
X181796328Y-55259500D01*
X181729289Y-55239815D01*
X181683534Y-55187011D01*
X181681212Y-55180868D01*
X181681144Y-55180897D01*
X181678814Y-55175273D01*
X181585913Y-55001467D01*
X181585909Y-55001460D01*
X181460883Y-54849116D01*
X181308539Y-54724090D01*
X181308532Y-54724086D01*
X181134733Y-54631188D01*
X181134727Y-54631186D01*
X180946132Y-54573976D01*
X180946129Y-54573975D01*
X180750000Y-54554659D01*
X180553870Y-54573975D01*
X180365266Y-54631188D01*
X180191467Y-54724086D01*
X180191460Y-54724090D01*
X180039116Y-54849116D01*
X179914090Y-55001460D01*
X179914086Y-55001467D01*
X179821188Y-55175266D01*
X179763975Y-55363870D01*
X179744659Y-55560000D01*
X179763975Y-55756129D01*
X179763976Y-55756132D01*
X179819744Y-55939975D01*
X179821188Y-55944733D01*
X179914086Y-56118532D01*
X179914090Y-56118539D01*
X180039116Y-56270883D01*
X180191460Y-56395909D01*
X180191467Y-56395913D01*
X180365266Y-56488811D01*
X180365269Y-56488811D01*
X180365273Y-56488814D01*
X180553868Y-56546024D01*
X180750000Y-56565341D01*
X180946132Y-56546024D01*
X181134727Y-56488814D01*
X181134732Y-56488811D01*
X181134736Y-56488810D01*
X181140355Y-56486483D01*
X181141232Y-56488602D01*
X181199609Y-56476429D01*
X181264861Y-56501408D01*
X181277380Y-56512351D01*
X182913181Y-58148152D01*
X182946666Y-58209475D01*
X182949500Y-58235833D01*
X182949500Y-67083671D01*
X182929815Y-67150710D01*
X182877011Y-67196465D01*
X182870871Y-67198786D01*
X182870900Y-67198855D01*
X182865269Y-67201187D01*
X182691467Y-67294086D01*
X182691460Y-67294090D01*
X182539116Y-67419116D01*
X182414090Y-67571460D01*
X182414086Y-67571467D01*
X182321188Y-67745266D01*
X182263975Y-67933870D01*
X182244659Y-68130000D01*
X182263975Y-68326129D01*
X182265074Y-68329752D01*
X182319903Y-68510499D01*
X182321188Y-68514733D01*
X182414086Y-68688532D01*
X182414090Y-68688539D01*
X182539116Y-68840883D01*
X182677788Y-68954689D01*
X182717122Y-69012435D01*
X182718993Y-69082280D01*
X182686804Y-69138223D01*
X182161848Y-69663181D01*
X182100525Y-69696666D01*
X182074167Y-69699500D01*
X176098579Y-69699500D01*
X176031540Y-69679815D01*
X175985785Y-69627011D01*
X175979919Y-69611497D01*
X175979677Y-69610701D01*
X175975232Y-69596046D01*
X175877685Y-69413550D01*
X175801021Y-69320134D01*
X175746410Y-69253589D01*
X175586452Y-69122317D01*
X175586453Y-69122317D01*
X175586450Y-69122315D01*
X175403954Y-69024768D01*
X175205934Y-68964700D01*
X175205932Y-68964699D01*
X175205934Y-68964699D01*
X175000000Y-68944417D01*
X174794067Y-68964699D01*
X174596043Y-69024769D01*
X174509639Y-69070954D01*
X174413550Y-69122315D01*
X174413548Y-69122316D01*
X174413547Y-69122317D01*
X174253589Y-69253589D01*
X174122317Y-69413547D01*
X174024769Y-69596043D01*
X173964699Y-69794067D01*
X173944417Y-70000000D01*
X173964699Y-70205932D01*
X174024769Y-70403956D01*
X174032379Y-70418193D01*
X174046620Y-70486596D01*
X174021619Y-70551840D01*
X174010701Y-70564326D01*
X168161848Y-76413181D01*
X168100525Y-76446666D01*
X168074167Y-76449500D01*
X167791082Y-76449500D01*
X167724043Y-76429815D01*
X167678288Y-76377011D01*
X167668344Y-76307853D01*
X167697369Y-76244297D01*
X167719958Y-76223925D01*
X167871082Y-76118105D01*
X168038105Y-75951082D01*
X168173600Y-75757578D01*
X168273429Y-75543492D01*
X168273432Y-75543486D01*
X168330636Y-75330000D01*
X167433012Y-75330000D01*
X167465925Y-75272993D01*
X167500000Y-75145826D01*
X167500000Y-75014174D01*
X167465925Y-74887007D01*
X167433012Y-74830000D01*
X168330636Y-74830000D01*
X168330635Y-74829999D01*
X168273432Y-74616513D01*
X168273429Y-74616507D01*
X168173600Y-74402422D01*
X168173599Y-74402420D01*
X168038113Y-74208926D01*
X168038108Y-74208920D01*
X167871082Y-74041894D01*
X167677578Y-73906399D01*
X167463492Y-73806570D01*
X167463486Y-73806567D01*
X167341349Y-73773841D01*
X167281689Y-73737476D01*
X167251160Y-73674629D01*
X167259455Y-73605253D01*
X167303940Y-73551375D01*
X167337444Y-73535407D01*
X167403954Y-73515232D01*
X167586450Y-73417685D01*
X167746410Y-73286410D01*
X167877685Y-73126450D01*
X167975232Y-72943954D01*
X168035300Y-72745934D01*
X168055583Y-72540000D01*
X168035300Y-72334066D01*
X167975232Y-72136046D01*
X167877685Y-71953550D01*
X167825702Y-71890209D01*
X167746410Y-71793589D01*
X167586452Y-71662317D01*
X167586453Y-71662317D01*
X167586450Y-71662315D01*
X167403954Y-71564768D01*
X167205934Y-71504700D01*
X167205932Y-71504699D01*
X167205934Y-71504699D01*
X167000000Y-71484417D01*
X166794067Y-71504699D01*
X166596043Y-71564769D01*
X166485898Y-71623643D01*
X166413550Y-71662315D01*
X166413548Y-71662316D01*
X166413547Y-71662317D01*
X166253589Y-71793589D01*
X166122317Y-71953547D01*
X166122315Y-71953550D01*
X166094482Y-72005622D01*
X166024769Y-72136043D01*
X166024768Y-72136046D01*
X166020081Y-72151497D01*
X165981783Y-72209935D01*
X165917970Y-72238391D01*
X165901421Y-72239500D01*
X161715833Y-72239500D01*
X161648794Y-72219815D01*
X161628152Y-72203181D01*
X159424971Y-70000000D01*
X165944417Y-70000000D01*
X165964699Y-70205932D01*
X165987173Y-70280020D01*
X166024768Y-70403954D01*
X166122315Y-70586450D01*
X166122317Y-70586452D01*
X166253589Y-70746410D01*
X166350209Y-70825702D01*
X166413550Y-70877685D01*
X166596046Y-70975232D01*
X166794066Y-71035300D01*
X166794065Y-71035300D01*
X166812529Y-71037118D01*
X167000000Y-71055583D01*
X167205934Y-71035300D01*
X167403954Y-70975232D01*
X167586450Y-70877685D01*
X167746410Y-70746410D01*
X167877685Y-70586450D01*
X167975232Y-70403954D01*
X168035300Y-70205934D01*
X168055583Y-70000000D01*
X168035300Y-69794066D01*
X167975232Y-69596046D01*
X167877685Y-69413550D01*
X167801021Y-69320134D01*
X167746410Y-69253589D01*
X167586452Y-69122317D01*
X167586453Y-69122317D01*
X167586450Y-69122315D01*
X167403954Y-69024768D01*
X167205934Y-68964700D01*
X167205932Y-68964699D01*
X167205934Y-68964699D01*
X167000000Y-68944417D01*
X166794067Y-68964699D01*
X166596043Y-69024769D01*
X166509639Y-69070954D01*
X166413550Y-69122315D01*
X166413548Y-69122316D01*
X166413547Y-69122317D01*
X166253589Y-69253589D01*
X166122317Y-69413547D01*
X166024769Y-69596043D01*
X165964699Y-69794067D01*
X165944417Y-70000000D01*
X159424971Y-70000000D01*
X157754723Y-68329752D01*
X165949500Y-68329752D01*
X165961131Y-68388229D01*
X165961132Y-68388230D01*
X166005447Y-68454552D01*
X166071769Y-68498867D01*
X166071770Y-68498868D01*
X166130247Y-68510499D01*
X166130250Y-68510500D01*
X166130252Y-68510500D01*
X167869750Y-68510500D01*
X167869751Y-68510499D01*
X167884568Y-68507552D01*
X167928229Y-68498868D01*
X167928229Y-68498867D01*
X167928231Y-68498867D01*
X167994552Y-68454552D01*
X168038867Y-68388231D01*
X168038867Y-68388229D01*
X168038868Y-68388229D01*
X168050499Y-68329752D01*
X168050500Y-68329750D01*
X168050500Y-66590249D01*
X168050499Y-66590247D01*
X168038868Y-66531770D01*
X168038867Y-66531769D01*
X167994552Y-66465447D01*
X167928230Y-66421132D01*
X167928229Y-66421131D01*
X167869752Y-66409500D01*
X167869748Y-66409500D01*
X166130252Y-66409500D01*
X166130247Y-66409500D01*
X166071770Y-66421131D01*
X166071769Y-66421132D01*
X166005447Y-66465447D01*
X165961132Y-66531769D01*
X165961131Y-66531770D01*
X165949500Y-66590247D01*
X165949500Y-68329752D01*
X157754723Y-68329752D01*
X157586819Y-68161848D01*
X157553334Y-68100525D01*
X157550500Y-68074167D01*
X157550500Y-67190000D01*
X157994659Y-67190000D01*
X158013975Y-67386129D01*
X158013976Y-67386132D01*
X158059898Y-67537517D01*
X158071188Y-67574733D01*
X158164086Y-67748532D01*
X158164090Y-67748539D01*
X158289116Y-67900883D01*
X158441460Y-68025909D01*
X158441467Y-68025913D01*
X158615266Y-68118811D01*
X158615269Y-68118811D01*
X158615273Y-68118814D01*
X158803868Y-68176024D01*
X159000000Y-68195341D01*
X159196132Y-68176024D01*
X159384727Y-68118814D01*
X159418944Y-68100525D01*
X159558532Y-68025913D01*
X159558538Y-68025910D01*
X159710883Y-67900883D01*
X159835910Y-67748538D01*
X159928814Y-67574727D01*
X159986024Y-67386132D01*
X160005341Y-67190000D01*
X159986024Y-66993868D01*
X159928814Y-66805273D01*
X159928811Y-66805268D01*
X159928809Y-66805260D01*
X159926482Y-66799641D01*
X159928596Y-66798765D01*
X159916431Y-66740358D01*
X159941427Y-66675112D01*
X159952343Y-66662626D01*
X160528152Y-66086819D01*
X160589475Y-66053334D01*
X160615833Y-66050500D01*
X173114167Y-66050500D01*
X173181206Y-66070185D01*
X173201848Y-66086819D01*
X173913181Y-66798152D01*
X173946666Y-66859475D01*
X173949500Y-66885833D01*
X173949500Y-68329752D01*
X173961131Y-68388229D01*
X173961132Y-68388230D01*
X174005447Y-68454552D01*
X174071769Y-68498867D01*
X174071770Y-68498868D01*
X174130247Y-68510499D01*
X174130250Y-68510500D01*
X174130252Y-68510500D01*
X175869750Y-68510500D01*
X175869751Y-68510499D01*
X175884568Y-68507552D01*
X175928229Y-68498868D01*
X175928229Y-68498867D01*
X175928231Y-68498867D01*
X175994552Y-68454552D01*
X176038867Y-68388231D01*
X176038867Y-68388229D01*
X176038868Y-68388229D01*
X176050499Y-68329752D01*
X176050500Y-68329750D01*
X176050500Y-66590249D01*
X176050499Y-66590247D01*
X176038868Y-66531770D01*
X176038867Y-66531769D01*
X175994552Y-66465447D01*
X175928230Y-66421132D01*
X175928229Y-66421131D01*
X175869752Y-66409500D01*
X175869748Y-66409500D01*
X174425833Y-66409500D01*
X174358794Y-66389815D01*
X174338152Y-66373181D01*
X173474512Y-65509541D01*
X173474504Y-65509535D01*
X173405995Y-65469982D01*
X173405990Y-65469979D01*
X173380513Y-65463152D01*
X173329562Y-65449500D01*
X160479562Y-65449500D01*
X160400438Y-65449500D01*
X160324010Y-65469978D01*
X160255489Y-65509540D01*
X160255486Y-65509542D01*
X159527380Y-66237647D01*
X159466057Y-66271132D01*
X159396365Y-66266148D01*
X159390386Y-66263451D01*
X159390359Y-66263518D01*
X159384739Y-66261190D01*
X159384728Y-66261186D01*
X159384727Y-66261186D01*
X159196132Y-66203976D01*
X159196129Y-66203975D01*
X159000000Y-66184659D01*
X158803870Y-66203975D01*
X158615266Y-66261188D01*
X158441467Y-66354086D01*
X158441460Y-66354090D01*
X158289116Y-66479116D01*
X158164090Y-66631460D01*
X158164086Y-66631467D01*
X158071188Y-66805266D01*
X158013975Y-66993870D01*
X157994659Y-67190000D01*
X157550500Y-67190000D01*
X157550500Y-65925832D01*
X157570185Y-65858793D01*
X157586814Y-65838156D01*
X159741777Y-63683192D01*
X159803098Y-63649709D01*
X159872790Y-63654693D01*
X159925309Y-63692210D01*
X160039116Y-63830883D01*
X160191460Y-63955909D01*
X160191467Y-63955913D01*
X160365266Y-64048811D01*
X160365269Y-64048811D01*
X160365273Y-64048814D01*
X160553868Y-64106024D01*
X160750000Y-64125341D01*
X160946132Y-64106024D01*
X161134727Y-64048814D01*
X161308538Y-63955910D01*
X161460883Y-63830883D01*
X161585910Y-63678538D01*
X161678814Y-63504727D01*
X161736024Y-63316132D01*
X161742537Y-63250000D01*
X168244659Y-63250000D01*
X168263975Y-63446129D01*
X168263976Y-63446132D01*
X168316275Y-63618539D01*
X168321188Y-63634733D01*
X168414086Y-63808532D01*
X168414090Y-63808539D01*
X168539116Y-63960883D01*
X168691460Y-64085909D01*
X168691467Y-64085913D01*
X168865266Y-64178811D01*
X168865269Y-64178811D01*
X168865273Y-64178814D01*
X169053868Y-64236024D01*
X169250000Y-64255341D01*
X169446132Y-64236024D01*
X169634727Y-64178814D01*
X169658656Y-64166024D01*
X169734770Y-64125340D01*
X169808538Y-64085910D01*
X169960883Y-63960883D01*
X170085910Y-63808538D01*
X170178814Y-63634727D01*
X170236024Y-63446132D01*
X170255341Y-63250000D01*
X170248447Y-63180000D01*
X179744659Y-63180000D01*
X179763975Y-63376129D01*
X179821188Y-63564733D01*
X179914086Y-63738532D01*
X179914090Y-63738539D01*
X180039116Y-63890883D01*
X180191460Y-64015909D01*
X180191467Y-64015913D01*
X180365266Y-64108811D01*
X180365269Y-64108811D01*
X180365273Y-64108814D01*
X180553868Y-64166024D01*
X180750000Y-64185341D01*
X180946132Y-64166024D01*
X181134727Y-64108814D01*
X181177578Y-64085910D01*
X181308532Y-64015913D01*
X181308538Y-64015910D01*
X181460883Y-63890883D01*
X181585910Y-63738538D01*
X181650055Y-63618532D01*
X181678811Y-63564733D01*
X181678811Y-63564732D01*
X181678814Y-63564727D01*
X181736024Y-63376132D01*
X181755341Y-63180000D01*
X181736024Y-62983868D01*
X181678814Y-62795273D01*
X181678811Y-62795269D01*
X181678811Y-62795266D01*
X181585913Y-62621467D01*
X181585909Y-62621460D01*
X181460883Y-62469116D01*
X181308539Y-62344090D01*
X181308532Y-62344086D01*
X181134733Y-62251188D01*
X181134727Y-62251186D01*
X180946132Y-62193976D01*
X180946129Y-62193975D01*
X180750000Y-62174659D01*
X180553870Y-62193975D01*
X180365266Y-62251188D01*
X180191467Y-62344086D01*
X180191460Y-62344090D01*
X180039116Y-62469116D01*
X179914090Y-62621460D01*
X179914086Y-62621467D01*
X179821188Y-62795266D01*
X179763975Y-62983870D01*
X179744659Y-63180000D01*
X170248447Y-63180000D01*
X170236024Y-63053868D01*
X170178814Y-62865273D01*
X170178811Y-62865269D01*
X170178811Y-62865266D01*
X170085913Y-62691467D01*
X170085909Y-62691460D01*
X169960883Y-62539116D01*
X169808539Y-62414090D01*
X169808532Y-62414086D01*
X169634733Y-62321188D01*
X169634727Y-62321186D01*
X169446132Y-62263976D01*
X169446129Y-62263975D01*
X169250000Y-62244659D01*
X169053870Y-62263975D01*
X168865266Y-62321188D01*
X168691467Y-62414086D01*
X168691460Y-62414090D01*
X168539116Y-62539116D01*
X168414090Y-62691460D01*
X168414086Y-62691467D01*
X168321188Y-62865266D01*
X168263975Y-63053870D01*
X168244659Y-63250000D01*
X161742537Y-63250000D01*
X161755341Y-63120000D01*
X161736024Y-62923868D01*
X161678814Y-62735273D01*
X161678811Y-62735269D01*
X161678811Y-62735266D01*
X161585913Y-62561467D01*
X161585909Y-62561460D01*
X161460883Y-62409116D01*
X161308539Y-62284090D01*
X161308532Y-62284086D01*
X161134733Y-62191188D01*
X161134727Y-62191186D01*
X160946132Y-62133976D01*
X160946129Y-62133975D01*
X160750000Y-62114659D01*
X160553870Y-62133975D01*
X160365266Y-62191188D01*
X160191467Y-62284086D01*
X160191460Y-62284090D01*
X160039116Y-62409116D01*
X159914090Y-62561460D01*
X159914086Y-62561467D01*
X159821186Y-62735271D01*
X159809043Y-62775301D01*
X159770745Y-62833740D01*
X159752383Y-62846692D01*
X159695492Y-62879538D01*
X159695486Y-62879542D01*
X157009541Y-65565487D01*
X157009535Y-65565495D01*
X156969982Y-65634004D01*
X156969979Y-65634009D01*
X156956326Y-65684962D01*
X156949500Y-65710438D01*
X156949500Y-68289562D01*
X156959298Y-68326129D01*
X156969979Y-68365991D01*
X156969981Y-68365994D01*
X156995399Y-68410018D01*
X156995399Y-68410021D01*
X156995401Y-68410021D01*
X157009540Y-68434511D01*
X161299540Y-72724511D01*
X161355489Y-72780460D01*
X161355491Y-72780461D01*
X161355495Y-72780464D01*
X161424004Y-72820017D01*
X161424011Y-72820021D01*
X161500438Y-72840500D01*
X161579562Y-72840500D01*
X165901421Y-72840500D01*
X165968460Y-72860185D01*
X166014215Y-72912989D01*
X166020081Y-72928503D01*
X166024768Y-72943954D01*
X166122315Y-73126450D01*
X166122317Y-73126452D01*
X166253589Y-73286410D01*
X166350209Y-73365702D01*
X166413550Y-73417685D01*
X166596046Y-73515232D01*
X166662551Y-73535405D01*
X166720989Y-73573702D01*
X166749446Y-73637514D01*
X166738887Y-73706581D01*
X166692663Y-73758975D01*
X166658650Y-73773841D01*
X166536514Y-73806567D01*
X166536507Y-73806570D01*
X166322422Y-73906399D01*
X166322420Y-73906400D01*
X166128926Y-74041886D01*
X166128920Y-74041891D01*
X165961891Y-74208920D01*
X165961886Y-74208926D01*
X165826400Y-74402420D01*
X165826399Y-74402422D01*
X165726570Y-74616507D01*
X165726567Y-74616513D01*
X165669364Y-74829999D01*
X165669364Y-74830000D01*
X166566988Y-74830000D01*
X166534075Y-74887007D01*
X166500000Y-75014174D01*
X166500000Y-75145826D01*
X166534075Y-75272993D01*
X166566988Y-75330000D01*
X165669364Y-75330000D01*
X165726567Y-75543486D01*
X165726570Y-75543492D01*
X165826399Y-75757578D01*
X165961894Y-75951082D01*
X166128917Y-76118105D01*
X166280042Y-76223925D01*
X166323667Y-76278503D01*
X166330859Y-76348001D01*
X166299337Y-76410356D01*
X166239107Y-76445769D01*
X166208918Y-76449500D01*
X151555341Y-76449500D01*
X151488302Y-76429815D01*
X151442547Y-76377011D01*
X151432603Y-76307853D01*
X151455570Y-76251867D01*
X151461157Y-76244297D01*
X151502793Y-76187882D01*
X151527209Y-76118105D01*
X151547646Y-76059701D01*
X151547646Y-76059699D01*
X151550500Y-76029269D01*
X151550500Y-74810000D01*
X157994659Y-74810000D01*
X158013975Y-75006129D01*
X158071188Y-75194733D01*
X158164086Y-75368532D01*
X158164090Y-75368539D01*
X158289116Y-75520883D01*
X158441460Y-75645909D01*
X158441467Y-75645913D01*
X158615266Y-75738811D01*
X158615269Y-75738811D01*
X158615273Y-75738814D01*
X158803868Y-75796024D01*
X159000000Y-75815341D01*
X159196132Y-75796024D01*
X159384727Y-75738814D01*
X159558538Y-75645910D01*
X159710883Y-75520883D01*
X159835910Y-75368538D01*
X159898486Y-75251467D01*
X159928811Y-75194733D01*
X159928811Y-75194732D01*
X159928814Y-75194727D01*
X159986024Y-75006132D01*
X160005341Y-74810000D01*
X159986024Y-74613868D01*
X159928814Y-74425273D01*
X159928811Y-74425269D01*
X159928811Y-74425266D01*
X159835913Y-74251467D01*
X159835909Y-74251460D01*
X159710883Y-74099116D01*
X159558539Y-73974090D01*
X159558532Y-73974086D01*
X159384733Y-73881188D01*
X159384727Y-73881186D01*
X159196132Y-73823976D01*
X159196129Y-73823975D01*
X159000000Y-73804659D01*
X158803870Y-73823975D01*
X158615266Y-73881188D01*
X158441467Y-73974086D01*
X158441460Y-73974090D01*
X158289116Y-74099116D01*
X158164090Y-74251460D01*
X158164086Y-74251467D01*
X158071188Y-74425266D01*
X158013975Y-74613870D01*
X157994659Y-74810000D01*
X151550500Y-74810000D01*
X151550500Y-74470730D01*
X151547646Y-74440300D01*
X151547646Y-74440298D01*
X151502793Y-74312119D01*
X151502792Y-74312117D01*
X151422150Y-74202850D01*
X151312882Y-74122207D01*
X151312880Y-74122206D01*
X151184700Y-74077353D01*
X151154270Y-74074500D01*
X151154266Y-74074500D01*
X150924500Y-74074500D01*
X150857461Y-74054815D01*
X150811706Y-74002011D01*
X150800500Y-73950500D01*
X150800500Y-71210439D01*
X150800500Y-71210438D01*
X150780021Y-71134011D01*
X150750027Y-71082059D01*
X150740464Y-71065495D01*
X150740458Y-71065487D01*
X149434512Y-69759541D01*
X149434507Y-69759537D01*
X149418853Y-69750499D01*
X149418851Y-69750499D01*
X149389297Y-69733436D01*
X149365990Y-69719979D01*
X149340513Y-69713152D01*
X149289562Y-69699500D01*
X149289560Y-69699500D01*
X140175833Y-69699500D01*
X140108794Y-69679815D01*
X140088152Y-69663181D01*
X133484971Y-63060000D01*
X139744659Y-63060000D01*
X139763975Y-63256129D01*
X139821188Y-63444733D01*
X139914086Y-63618532D01*
X139914090Y-63618539D01*
X140039116Y-63770883D01*
X140191460Y-63895909D01*
X140191467Y-63895913D01*
X140365266Y-63988811D01*
X140365269Y-63988811D01*
X140365273Y-63988814D01*
X140553868Y-64046024D01*
X140750000Y-64065341D01*
X140946132Y-64046024D01*
X141134727Y-63988814D01*
X141308538Y-63895910D01*
X141460883Y-63770883D01*
X141585910Y-63618538D01*
X141678814Y-63444727D01*
X141736024Y-63256132D01*
X141749432Y-63120000D01*
X148494659Y-63120000D01*
X148513975Y-63316129D01*
X148571188Y-63504733D01*
X148664086Y-63678532D01*
X148664090Y-63678539D01*
X148789116Y-63830883D01*
X148941460Y-63955909D01*
X148941467Y-63955913D01*
X149115266Y-64048811D01*
X149115269Y-64048811D01*
X149115273Y-64048814D01*
X149303868Y-64106024D01*
X149500000Y-64125341D01*
X149696132Y-64106024D01*
X149884727Y-64048814D01*
X150058538Y-63955910D01*
X150210883Y-63830883D01*
X150335910Y-63678538D01*
X150428814Y-63504727D01*
X150486024Y-63316132D01*
X150505341Y-63120000D01*
X150486024Y-62923868D01*
X150428814Y-62735273D01*
X150428811Y-62735269D01*
X150428811Y-62735266D01*
X150335913Y-62561467D01*
X150335909Y-62561460D01*
X150210883Y-62409116D01*
X150058539Y-62284090D01*
X150058532Y-62284086D01*
X149884733Y-62191188D01*
X149884727Y-62191186D01*
X149696132Y-62133976D01*
X149696129Y-62133975D01*
X149500000Y-62114659D01*
X149303870Y-62133975D01*
X149115266Y-62191188D01*
X148941467Y-62284086D01*
X148941460Y-62284090D01*
X148789116Y-62409116D01*
X148664090Y-62561460D01*
X148664086Y-62561467D01*
X148571188Y-62735266D01*
X148513975Y-62923870D01*
X148494659Y-63120000D01*
X141749432Y-63120000D01*
X141755341Y-63060000D01*
X141736024Y-62863868D01*
X141678814Y-62675273D01*
X141678811Y-62675269D01*
X141678811Y-62675266D01*
X141585913Y-62501467D01*
X141585909Y-62501460D01*
X141460883Y-62349116D01*
X141308539Y-62224090D01*
X141308532Y-62224086D01*
X141134733Y-62131188D01*
X141134727Y-62131186D01*
X140946132Y-62073976D01*
X140946129Y-62073975D01*
X140750000Y-62054659D01*
X140553870Y-62073975D01*
X140365266Y-62131188D01*
X140191467Y-62224086D01*
X140191460Y-62224090D01*
X140039116Y-62349116D01*
X139914090Y-62501460D01*
X139914086Y-62501467D01*
X139821188Y-62675266D01*
X139763975Y-62863870D01*
X139744659Y-63060000D01*
X133484971Y-63060000D01*
X129984971Y-59560000D01*
X132265906Y-59560000D01*
X132286237Y-59779413D01*
X132286238Y-59779415D01*
X132346539Y-59991352D01*
X132346545Y-59991367D01*
X132444762Y-60188612D01*
X132458991Y-60207454D01*
X132458992Y-60207454D01*
X133030109Y-59636337D01*
X133054644Y-59727904D01*
X133111913Y-59827097D01*
X133192903Y-59908087D01*
X133292096Y-59965356D01*
X133383662Y-59989890D01*
X132814661Y-60558889D01*
X132814662Y-60558890D01*
X132927743Y-60628907D01*
X132927749Y-60628910D01*
X133133218Y-60708508D01*
X133349825Y-60749000D01*
X133570175Y-60749000D01*
X133786781Y-60708508D01*
X133992252Y-60628909D01*
X133992253Y-60628908D01*
X134105337Y-60558889D01*
X133536338Y-59989890D01*
X133627904Y-59965356D01*
X133727097Y-59908087D01*
X133808087Y-59827097D01*
X133865356Y-59727904D01*
X133889890Y-59636337D01*
X134461006Y-60207454D01*
X134475237Y-60188609D01*
X134475239Y-60188606D01*
X134573454Y-59991367D01*
X134573460Y-59991352D01*
X134633761Y-59779415D01*
X134633762Y-59779413D01*
X134654094Y-59560000D01*
X134654094Y-59559999D01*
X134633762Y-59340586D01*
X134633761Y-59340584D01*
X134573460Y-59128647D01*
X134573454Y-59128632D01*
X134475242Y-58931396D01*
X134475237Y-58931388D01*
X134461006Y-58912544D01*
X133889890Y-59483661D01*
X133865356Y-59392096D01*
X133808087Y-59292903D01*
X133727097Y-59211913D01*
X133627904Y-59154644D01*
X133536338Y-59130109D01*
X134105337Y-58561109D01*
X134105336Y-58561108D01*
X133992256Y-58491093D01*
X133992244Y-58491087D01*
X133904616Y-58457139D01*
X133849215Y-58414566D01*
X133825625Y-58348799D01*
X133841337Y-58280719D01*
X133891361Y-58231940D01*
X133898960Y-58228241D01*
X133907200Y-58224573D01*
X134058470Y-58114669D01*
X134183585Y-57975715D01*
X134277075Y-57813785D01*
X134334855Y-57635956D01*
X134354400Y-57450000D01*
X134805906Y-57450000D01*
X134826237Y-57669413D01*
X134826238Y-57669415D01*
X134886539Y-57881352D01*
X134886545Y-57881367D01*
X134984762Y-58078612D01*
X134998991Y-58097454D01*
X134998992Y-58097454D01*
X135570109Y-57526337D01*
X135594644Y-57617904D01*
X135651913Y-57717097D01*
X135732903Y-57798087D01*
X135832096Y-57855356D01*
X135923662Y-57879890D01*
X135354661Y-58448889D01*
X135355420Y-58455431D01*
X135389825Y-58493813D01*
X135400929Y-58562795D01*
X135372976Y-58626829D01*
X135314842Y-58665586D01*
X135297197Y-58669169D01*
X135297226Y-58669311D01*
X135232770Y-58682131D01*
X135232769Y-58682132D01*
X135166447Y-58726447D01*
X135122132Y-58792769D01*
X135122131Y-58792770D01*
X135110500Y-58851247D01*
X135110500Y-60268752D01*
X135122131Y-60327229D01*
X135122132Y-60327230D01*
X135166447Y-60393552D01*
X135232769Y-60437867D01*
X135232770Y-60437868D01*
X135291247Y-60449499D01*
X135291250Y-60449500D01*
X135291252Y-60449500D01*
X136708750Y-60449500D01*
X136708751Y-60449499D01*
X136723568Y-60446552D01*
X136767229Y-60437868D01*
X136767229Y-60437867D01*
X136767231Y-60437867D01*
X136833552Y-60393552D01*
X136877867Y-60327231D01*
X136877867Y-60327229D01*
X136877868Y-60327229D01*
X136889499Y-60268752D01*
X136889500Y-60268750D01*
X136889500Y-59560000D01*
X152265906Y-59560000D01*
X152286237Y-59779413D01*
X152286238Y-59779415D01*
X152346539Y-59991352D01*
X152346545Y-59991367D01*
X152444762Y-60188612D01*
X152458991Y-60207454D01*
X152458992Y-60207454D01*
X153030109Y-59636337D01*
X153054644Y-59727904D01*
X153111913Y-59827097D01*
X153192903Y-59908087D01*
X153292096Y-59965356D01*
X153383662Y-59989890D01*
X152814661Y-60558889D01*
X152814662Y-60558890D01*
X152927743Y-60628907D01*
X152927749Y-60628910D01*
X153133218Y-60708508D01*
X153349825Y-60749000D01*
X153570175Y-60749000D01*
X153786781Y-60708508D01*
X153992252Y-60628909D01*
X153992253Y-60628908D01*
X154105337Y-60558889D01*
X153536338Y-59989890D01*
X153627904Y-59965356D01*
X153727097Y-59908087D01*
X153808087Y-59827097D01*
X153865356Y-59727904D01*
X153889890Y-59636338D01*
X154461006Y-60207454D01*
X154475237Y-60188609D01*
X154475239Y-60188606D01*
X154573454Y-59991367D01*
X154573460Y-59991352D01*
X154633761Y-59779415D01*
X154633762Y-59779413D01*
X154654094Y-59560000D01*
X154654094Y-59559999D01*
X154633762Y-59340586D01*
X154633761Y-59340584D01*
X154573460Y-59128647D01*
X154573454Y-59128632D01*
X154475242Y-58931396D01*
X154475237Y-58931388D01*
X154461006Y-58912544D01*
X153889890Y-59483661D01*
X153865356Y-59392096D01*
X153808087Y-59292903D01*
X153727097Y-59211913D01*
X153627904Y-59154644D01*
X153536338Y-59130109D01*
X154105337Y-58561109D01*
X154105336Y-58561108D01*
X153992256Y-58491093D01*
X153992244Y-58491087D01*
X153904616Y-58457139D01*
X153849215Y-58414566D01*
X153825625Y-58348799D01*
X153841337Y-58280719D01*
X153891361Y-58231940D01*
X153898960Y-58228241D01*
X153907200Y-58224573D01*
X154058470Y-58114669D01*
X154183585Y-57975715D01*
X154277075Y-57813785D01*
X154334855Y-57635956D01*
X154354400Y-57450000D01*
X154334855Y-57264044D01*
X154277075Y-57086215D01*
X154211045Y-56971847D01*
X154183586Y-56924286D01*
X154058469Y-56785330D01*
X153907204Y-56675429D01*
X153907201Y-56675427D01*
X153907200Y-56675427D01*
X153848911Y-56649475D01*
X153736390Y-56599376D01*
X153736384Y-56599374D01*
X153576990Y-56565495D01*
X153553490Y-56560500D01*
X153366510Y-56560500D01*
X153343010Y-56565495D01*
X153183615Y-56599374D01*
X153183609Y-56599376D01*
X153012800Y-56675427D01*
X153012795Y-56675429D01*
X152861530Y-56785330D01*
X152736413Y-56924286D01*
X152642925Y-57086213D01*
X152585146Y-57264039D01*
X152585145Y-57264041D01*
X152565600Y-57450000D01*
X152585145Y-57635958D01*
X152585146Y-57635960D01*
X152642925Y-57813786D01*
X152736413Y-57975713D01*
X152861530Y-58114669D01*
X153012795Y-58224570D01*
X153012796Y-58224571D01*
X153012799Y-58224572D01*
X153012800Y-58224573D01*
X153021021Y-58228233D01*
X153074259Y-58273481D01*
X153094582Y-58340329D01*
X153075539Y-58407554D01*
X153023174Y-58453811D01*
X153015383Y-58457139D01*
X152927754Y-58491087D01*
X152927749Y-58491090D01*
X152814661Y-58561109D01*
X153383662Y-59130109D01*
X153292096Y-59154644D01*
X153192903Y-59211913D01*
X153111913Y-59292903D01*
X153054644Y-59392096D01*
X153030109Y-59483662D01*
X152458992Y-58912545D01*
X152458991Y-58912545D01*
X152444761Y-58931390D01*
X152346545Y-59128632D01*
X152346539Y-59128647D01*
X152286238Y-59340584D01*
X152286237Y-59340586D01*
X152265906Y-59559999D01*
X152265906Y-59560000D01*
X136889500Y-59560000D01*
X136889500Y-59146833D01*
X136909185Y-59079794D01*
X136925819Y-59059152D01*
X137823124Y-58161847D01*
X138740460Y-57244511D01*
X138780021Y-57175989D01*
X138800500Y-57099562D01*
X138800500Y-55440000D01*
X139744659Y-55440000D01*
X139763975Y-55636129D01*
X139763976Y-55636132D01*
X139814174Y-55801613D01*
X139821188Y-55824733D01*
X139914086Y-55998532D01*
X139914090Y-55998539D01*
X140039116Y-56150883D01*
X140191460Y-56275909D01*
X140191467Y-56275913D01*
X140365266Y-56368811D01*
X140365269Y-56368811D01*
X140365273Y-56368814D01*
X140553868Y-56426024D01*
X140750000Y-56445341D01*
X140946132Y-56426024D01*
X141134727Y-56368814D01*
X141168944Y-56350525D01*
X141308532Y-56275913D01*
X141308538Y-56275910D01*
X141460883Y-56150883D01*
X141585910Y-55998538D01*
X141585910Y-55998536D01*
X141585914Y-55998532D01*
X141656729Y-55866047D01*
X141705691Y-55816202D01*
X141766087Y-55800500D01*
X148453672Y-55800500D01*
X148520711Y-55820185D01*
X148566466Y-55872989D01*
X148568787Y-55879131D01*
X148568856Y-55879103D01*
X148571185Y-55884726D01*
X148664086Y-56058532D01*
X148664090Y-56058539D01*
X148789116Y-56210883D01*
X148941460Y-56335909D01*
X148941467Y-56335913D01*
X149115266Y-56428811D01*
X149115269Y-56428811D01*
X149115273Y-56428814D01*
X149303868Y-56486024D01*
X149500000Y-56505341D01*
X149696132Y-56486024D01*
X149884727Y-56428814D01*
X150058538Y-56335910D01*
X150210883Y-56210883D01*
X150335910Y-56058538D01*
X150393735Y-55950355D01*
X150428811Y-55884733D01*
X150428811Y-55884732D01*
X150428814Y-55884727D01*
X150486024Y-55696132D01*
X150505341Y-55500000D01*
X150486024Y-55303868D01*
X150428814Y-55115273D01*
X150428811Y-55115269D01*
X150428811Y-55115266D01*
X150335913Y-54941467D01*
X150335909Y-54941460D01*
X150210883Y-54789116D01*
X150058539Y-54664090D01*
X150058532Y-54664086D01*
X149884733Y-54571188D01*
X149884727Y-54571186D01*
X149696132Y-54513976D01*
X149696129Y-54513975D01*
X149500000Y-54494659D01*
X149303870Y-54513975D01*
X149115266Y-54571188D01*
X148941467Y-54664086D01*
X148941460Y-54664090D01*
X148789116Y-54789116D01*
X148664090Y-54941460D01*
X148664086Y-54941467D01*
X148571185Y-55115273D01*
X148568856Y-55120897D01*
X148566739Y-55120020D01*
X148534055Y-55169917D01*
X148470249Y-55198387D01*
X148453672Y-55199500D01*
X141814530Y-55199500D01*
X141747491Y-55179815D01*
X141701736Y-55127011D01*
X141695870Y-55111497D01*
X141678813Y-55055270D01*
X141585913Y-54881467D01*
X141585909Y-54881460D01*
X141460883Y-54729116D01*
X141308539Y-54604090D01*
X141308532Y-54604086D01*
X141134733Y-54511188D01*
X141134727Y-54511186D01*
X140946132Y-54453976D01*
X140946129Y-54453975D01*
X140750000Y-54434659D01*
X140553870Y-54453975D01*
X140365266Y-54511188D01*
X140191467Y-54604086D01*
X140191460Y-54604090D01*
X140039116Y-54729116D01*
X139914090Y-54881460D01*
X139914086Y-54881467D01*
X139821188Y-55055266D01*
X139763975Y-55243870D01*
X139744659Y-55440000D01*
X138800500Y-55440000D01*
X138800500Y-55175833D01*
X138820185Y-55108794D01*
X138836819Y-55088152D01*
X139838152Y-54086819D01*
X139899475Y-54053334D01*
X139925833Y-54050500D01*
X141289560Y-54050500D01*
X141289562Y-54050500D01*
X141365989Y-54030021D01*
X141434511Y-53990460D01*
X141490460Y-53934511D01*
X144351059Y-51073910D01*
X144412380Y-51040427D01*
X144426582Y-51038190D01*
X144455934Y-51035300D01*
X144653954Y-50975232D01*
X144836450Y-50877685D01*
X144996410Y-50746410D01*
X145127685Y-50586450D01*
X145225232Y-50403954D01*
X145285300Y-50205934D01*
X145305583Y-50000000D01*
X145734417Y-50000000D01*
X145754699Y-50205932D01*
X145754700Y-50205934D01*
X145814768Y-50403954D01*
X145912315Y-50586450D01*
X145912317Y-50586452D01*
X146043589Y-50746410D01*
X146116353Y-50806125D01*
X146203550Y-50877685D01*
X146386046Y-50975232D01*
X146584066Y-51035300D01*
X146584065Y-51035300D01*
X146602529Y-51037118D01*
X146790000Y-51055583D01*
X146995934Y-51035300D01*
X147193954Y-50975232D01*
X147208191Y-50967621D01*
X147276592Y-50953379D01*
X147341837Y-50978377D01*
X147354327Y-50989298D01*
X152105489Y-55740460D01*
X152174012Y-55780022D01*
X152250438Y-55800500D01*
X152329562Y-55800500D01*
X156324167Y-55800500D01*
X156391206Y-55820185D01*
X156411848Y-55836819D01*
X157413181Y-56838152D01*
X157446666Y-56899475D01*
X157449500Y-56925833D01*
X157449500Y-58074166D01*
X157429815Y-58141205D01*
X157413181Y-58161847D01*
X156914519Y-58660508D01*
X156853196Y-58693993D01*
X156783504Y-58689009D01*
X156778632Y-58686516D01*
X156778513Y-58686806D01*
X156767229Y-58682131D01*
X156702774Y-58669311D01*
X156703065Y-58667846D01*
X156645136Y-58644448D01*
X156604782Y-58587410D01*
X156601672Y-58517609D01*
X156636792Y-58457208D01*
X156645116Y-58450794D01*
X156645337Y-58448889D01*
X156076338Y-57879890D01*
X156167904Y-57855356D01*
X156267097Y-57798087D01*
X156348087Y-57717097D01*
X156405356Y-57617904D01*
X156429890Y-57526337D01*
X157001006Y-58097454D01*
X157015237Y-58078609D01*
X157015239Y-58078606D01*
X157113454Y-57881367D01*
X157113460Y-57881352D01*
X157173761Y-57669415D01*
X157173762Y-57669413D01*
X157194094Y-57450000D01*
X157194094Y-57449999D01*
X157173762Y-57230586D01*
X157173761Y-57230584D01*
X157113460Y-57018647D01*
X157113454Y-57018632D01*
X157015242Y-56821396D01*
X157015237Y-56821388D01*
X157001006Y-56802544D01*
X156429890Y-57373661D01*
X156405356Y-57282096D01*
X156348087Y-57182903D01*
X156267097Y-57101913D01*
X156167904Y-57044644D01*
X156076338Y-57020109D01*
X156645337Y-56451109D01*
X156645336Y-56451108D01*
X156532256Y-56381093D01*
X156532250Y-56381089D01*
X156326781Y-56301491D01*
X156110175Y-56261000D01*
X155889825Y-56261000D01*
X155673218Y-56301491D01*
X155467748Y-56381090D01*
X155354661Y-56451109D01*
X155923662Y-57020109D01*
X155832096Y-57044644D01*
X155732903Y-57101913D01*
X155651913Y-57182903D01*
X155594644Y-57282096D01*
X155570109Y-57373662D01*
X154998992Y-56802545D01*
X154998991Y-56802545D01*
X154984761Y-56821390D01*
X154886545Y-57018632D01*
X154886539Y-57018647D01*
X154826238Y-57230584D01*
X154826237Y-57230586D01*
X154805906Y-57449999D01*
X154805906Y-57450000D01*
X154826237Y-57669413D01*
X154826238Y-57669415D01*
X154886539Y-57881352D01*
X154886545Y-57881367D01*
X154984762Y-58078612D01*
X154998991Y-58097454D01*
X154998992Y-58097454D01*
X155570109Y-57526337D01*
X155594644Y-57617904D01*
X155651913Y-57717097D01*
X155732903Y-57798087D01*
X155832096Y-57855356D01*
X155923662Y-57879890D01*
X155354661Y-58448889D01*
X155355420Y-58455431D01*
X155389825Y-58493813D01*
X155400929Y-58562795D01*
X155372976Y-58626829D01*
X155314842Y-58665586D01*
X155297197Y-58669169D01*
X155297226Y-58669311D01*
X155232770Y-58682131D01*
X155232769Y-58682132D01*
X155166447Y-58726447D01*
X155122132Y-58792769D01*
X155122131Y-58792770D01*
X155110500Y-58851247D01*
X155110500Y-60268752D01*
X155122131Y-60327229D01*
X155122132Y-60327230D01*
X155166447Y-60393552D01*
X155232769Y-60437867D01*
X155232770Y-60437868D01*
X155291247Y-60449499D01*
X155291250Y-60449500D01*
X155291252Y-60449500D01*
X156708750Y-60449500D01*
X156708751Y-60449499D01*
X156723568Y-60446552D01*
X156767229Y-60437868D01*
X156767229Y-60437867D01*
X156767231Y-60437867D01*
X156833552Y-60393552D01*
X156877867Y-60327231D01*
X156877867Y-60327229D01*
X156877868Y-60327229D01*
X156889499Y-60268752D01*
X156889500Y-60268750D01*
X156889500Y-59586833D01*
X156897379Y-59560000D01*
X172265906Y-59560000D01*
X172286237Y-59779413D01*
X172286238Y-59779415D01*
X172346539Y-59991352D01*
X172346545Y-59991367D01*
X172444762Y-60188612D01*
X172458991Y-60207454D01*
X172458992Y-60207454D01*
X173030109Y-59636337D01*
X173054644Y-59727904D01*
X173111913Y-59827097D01*
X173192903Y-59908087D01*
X173292096Y-59965356D01*
X173383662Y-59989890D01*
X172814661Y-60558889D01*
X172814662Y-60558890D01*
X172927743Y-60628907D01*
X172927749Y-60628910D01*
X173133218Y-60708508D01*
X173349825Y-60749000D01*
X173570175Y-60749000D01*
X173786781Y-60708508D01*
X173992252Y-60628909D01*
X173992253Y-60628908D01*
X174105337Y-60558889D01*
X173536338Y-59989890D01*
X173627904Y-59965356D01*
X173727097Y-59908087D01*
X173808087Y-59827097D01*
X173865356Y-59727904D01*
X173889890Y-59636338D01*
X174461006Y-60207454D01*
X174475237Y-60188609D01*
X174475239Y-60188606D01*
X174573454Y-59991367D01*
X174573460Y-59991352D01*
X174633761Y-59779415D01*
X174633762Y-59779413D01*
X174654094Y-59560000D01*
X174654094Y-59559999D01*
X174633762Y-59340586D01*
X174633761Y-59340584D01*
X174573460Y-59128647D01*
X174573454Y-59128632D01*
X174475242Y-58931396D01*
X174475237Y-58931388D01*
X174461006Y-58912544D01*
X173889890Y-59483661D01*
X173865356Y-59392096D01*
X173808087Y-59292903D01*
X173727097Y-59211913D01*
X173627904Y-59154644D01*
X173536338Y-59130109D01*
X174105337Y-58561109D01*
X174105336Y-58561108D01*
X173992256Y-58491093D01*
X173992244Y-58491087D01*
X173904616Y-58457139D01*
X173849215Y-58414566D01*
X173825625Y-58348799D01*
X173841337Y-58280719D01*
X173891361Y-58231940D01*
X173898960Y-58228241D01*
X173907200Y-58224573D01*
X174058470Y-58114669D01*
X174183585Y-57975715D01*
X174277075Y-57813785D01*
X174334855Y-57635956D01*
X174354400Y-57450000D01*
X174334855Y-57264044D01*
X174277075Y-57086215D01*
X174211045Y-56971847D01*
X174183586Y-56924286D01*
X174058469Y-56785330D01*
X173907204Y-56675429D01*
X173907201Y-56675427D01*
X173907200Y-56675427D01*
X173848911Y-56649475D01*
X173736390Y-56599376D01*
X173736384Y-56599374D01*
X173576990Y-56565495D01*
X173553490Y-56560500D01*
X173366510Y-56560500D01*
X173343010Y-56565495D01*
X173183615Y-56599374D01*
X173183609Y-56599376D01*
X173012800Y-56675427D01*
X173012795Y-56675429D01*
X172861530Y-56785330D01*
X172736413Y-56924286D01*
X172642925Y-57086213D01*
X172585146Y-57264039D01*
X172585145Y-57264041D01*
X172565600Y-57450000D01*
X172585145Y-57635958D01*
X172585146Y-57635960D01*
X172642925Y-57813786D01*
X172736413Y-57975713D01*
X172861530Y-58114669D01*
X173012795Y-58224570D01*
X173012796Y-58224571D01*
X173012799Y-58224572D01*
X173012800Y-58224573D01*
X173021021Y-58228233D01*
X173074259Y-58273481D01*
X173094582Y-58340329D01*
X173075539Y-58407554D01*
X173023174Y-58453811D01*
X173015383Y-58457139D01*
X172927754Y-58491087D01*
X172927749Y-58491090D01*
X172814661Y-58561109D01*
X173383662Y-59130109D01*
X173292096Y-59154644D01*
X173192903Y-59211913D01*
X173111913Y-59292903D01*
X173054644Y-59392096D01*
X173030109Y-59483661D01*
X172458992Y-58912544D01*
X172458991Y-58912545D01*
X172444761Y-58931390D01*
X172346545Y-59128632D01*
X172346539Y-59128647D01*
X172286238Y-59340584D01*
X172286237Y-59340586D01*
X172265906Y-59559999D01*
X172265906Y-59560000D01*
X156897379Y-59560000D01*
X156909185Y-59519794D01*
X156925819Y-59499152D01*
X157425819Y-58999152D01*
X157990460Y-58434511D01*
X158030022Y-58365988D01*
X158050500Y-58289562D01*
X158050500Y-58210438D01*
X158050500Y-56710438D01*
X158030021Y-56634011D01*
X158010024Y-56599375D01*
X157990464Y-56565495D01*
X157990458Y-56565487D01*
X156924971Y-55500000D01*
X159744659Y-55500000D01*
X159763975Y-55696129D01*
X159777423Y-55740460D01*
X159819488Y-55879131D01*
X159821188Y-55884733D01*
X159914086Y-56058532D01*
X159914090Y-56058539D01*
X160039116Y-56210883D01*
X160191460Y-56335909D01*
X160191467Y-56335913D01*
X160365266Y-56428811D01*
X160365269Y-56428811D01*
X160365273Y-56428814D01*
X160553868Y-56486024D01*
X160750000Y-56505341D01*
X160946132Y-56486024D01*
X161134727Y-56428814D01*
X161308538Y-56335910D01*
X161460883Y-56210883D01*
X161585910Y-56058538D01*
X161678814Y-55884727D01*
X161678815Y-55884723D01*
X161681144Y-55879103D01*
X161683260Y-55879979D01*
X161715945Y-55830083D01*
X161779751Y-55801613D01*
X161796328Y-55800500D01*
X168164236Y-55800500D01*
X168231275Y-55820185D01*
X168277030Y-55872989D01*
X168282896Y-55888504D01*
X168321186Y-56014728D01*
X168414086Y-56188532D01*
X168414090Y-56188539D01*
X168539116Y-56340883D01*
X168691460Y-56465909D01*
X168691467Y-56465913D01*
X168865266Y-56558811D01*
X168865269Y-56558811D01*
X168865273Y-56558814D01*
X169053868Y-56616024D01*
X169250000Y-56635341D01*
X169446132Y-56616024D01*
X169634727Y-56558814D01*
X169658656Y-56546024D01*
X169742126Y-56501408D01*
X169808538Y-56465910D01*
X169960883Y-56340883D01*
X170085910Y-56188538D01*
X170178814Y-56014727D01*
X170236024Y-55826132D01*
X170255341Y-55630000D01*
X170236024Y-55433868D01*
X170178814Y-55245273D01*
X170178811Y-55245269D01*
X170178811Y-55245266D01*
X170085913Y-55071467D01*
X170085909Y-55071460D01*
X169960883Y-54919116D01*
X169808539Y-54794090D01*
X169808532Y-54794086D01*
X169634733Y-54701188D01*
X169634727Y-54701186D01*
X169446132Y-54643976D01*
X169446129Y-54643975D01*
X169250000Y-54624659D01*
X169053870Y-54643975D01*
X168865266Y-54701188D01*
X168691467Y-54794086D01*
X168691460Y-54794090D01*
X168539116Y-54919116D01*
X168414090Y-55071460D01*
X168380688Y-55133953D01*
X168331726Y-55183797D01*
X168271330Y-55199500D01*
X161796328Y-55199500D01*
X161729289Y-55179815D01*
X161683534Y-55127011D01*
X161681212Y-55120868D01*
X161681144Y-55120897D01*
X161678814Y-55115273D01*
X161585913Y-54941467D01*
X161585909Y-54941460D01*
X161460883Y-54789116D01*
X161308539Y-54664090D01*
X161308532Y-54664086D01*
X161134733Y-54571188D01*
X161134727Y-54571186D01*
X160946132Y-54513976D01*
X160946129Y-54513975D01*
X160750000Y-54494659D01*
X160553870Y-54513975D01*
X160365266Y-54571188D01*
X160191467Y-54664086D01*
X160191460Y-54664090D01*
X160039116Y-54789116D01*
X159914090Y-54941460D01*
X159914086Y-54941467D01*
X159821188Y-55115266D01*
X159763975Y-55303870D01*
X159744659Y-55500000D01*
X156924971Y-55500000D01*
X156684512Y-55259541D01*
X156684511Y-55259540D01*
X156671231Y-55251873D01*
X156671231Y-55251872D01*
X156671229Y-55251872D01*
X156615989Y-55219979D01*
X156539562Y-55199500D01*
X156539560Y-55199500D01*
X152465833Y-55199500D01*
X152398794Y-55179815D01*
X152378152Y-55163181D01*
X147779298Y-50564327D01*
X147745813Y-50503004D01*
X147750797Y-50433312D01*
X147757618Y-50418197D01*
X147765232Y-50403954D01*
X147825300Y-50205934D01*
X147845583Y-50000000D01*
X148274417Y-50000000D01*
X148294699Y-50205932D01*
X148294700Y-50205934D01*
X148354768Y-50403954D01*
X148452315Y-50586450D01*
X148452317Y-50586452D01*
X148583589Y-50746410D01*
X148656353Y-50806125D01*
X148743550Y-50877685D01*
X148926046Y-50975232D01*
X149124066Y-51035300D01*
X149124065Y-51035300D01*
X149142529Y-51037118D01*
X149330000Y-51055583D01*
X149535934Y-51035300D01*
X149733954Y-50975232D01*
X149748191Y-50967621D01*
X149816592Y-50953379D01*
X149881837Y-50978377D01*
X149894327Y-50989298D01*
X152589540Y-53684511D01*
X152645489Y-53740460D01*
X152645491Y-53740461D01*
X152645495Y-53740464D01*
X152714004Y-53780017D01*
X152714011Y-53780021D01*
X152790438Y-53800500D01*
X174574167Y-53800500D01*
X174641206Y-53820185D01*
X174661848Y-53836819D01*
X177413181Y-56588152D01*
X177446666Y-56649475D01*
X177449500Y-56675833D01*
X177449500Y-57574166D01*
X177429815Y-57641205D01*
X177413181Y-57661847D01*
X177392923Y-57682105D01*
X177331600Y-57715590D01*
X177261908Y-57710606D01*
X177205975Y-57668734D01*
X177181558Y-57603270D01*
X177181771Y-57582982D01*
X177194094Y-57449999D01*
X177173762Y-57230586D01*
X177173761Y-57230584D01*
X177113460Y-57018647D01*
X177113454Y-57018632D01*
X177015242Y-56821396D01*
X177015237Y-56821388D01*
X177001006Y-56802544D01*
X176429890Y-57373661D01*
X176405356Y-57282096D01*
X176348087Y-57182903D01*
X176267097Y-57101913D01*
X176167904Y-57044644D01*
X176076338Y-57020109D01*
X176645337Y-56451109D01*
X176645336Y-56451108D01*
X176532256Y-56381093D01*
X176532250Y-56381089D01*
X176326781Y-56301491D01*
X176110175Y-56261000D01*
X175889825Y-56261000D01*
X175673218Y-56301491D01*
X175467748Y-56381090D01*
X175354661Y-56451109D01*
X175923662Y-57020109D01*
X175832096Y-57044644D01*
X175732903Y-57101913D01*
X175651913Y-57182903D01*
X175594644Y-57282096D01*
X175570109Y-57373662D01*
X174998992Y-56802545D01*
X174998991Y-56802545D01*
X174984761Y-56821390D01*
X174886545Y-57018632D01*
X174886539Y-57018647D01*
X174826238Y-57230584D01*
X174826237Y-57230586D01*
X174805906Y-57449999D01*
X174805906Y-57450000D01*
X174826237Y-57669413D01*
X174826238Y-57669415D01*
X174886539Y-57881352D01*
X174886545Y-57881367D01*
X174984762Y-58078612D01*
X174998991Y-58097454D01*
X174998992Y-58097454D01*
X175570109Y-57526337D01*
X175594644Y-57617904D01*
X175651913Y-57717097D01*
X175732903Y-57798087D01*
X175832096Y-57855356D01*
X175923662Y-57879890D01*
X175354661Y-58448889D01*
X175355420Y-58455431D01*
X175389825Y-58493813D01*
X175400929Y-58562795D01*
X175372976Y-58626829D01*
X175314842Y-58665586D01*
X175297197Y-58669169D01*
X175297226Y-58669311D01*
X175232770Y-58682131D01*
X175232769Y-58682132D01*
X175166447Y-58726447D01*
X175122132Y-58792769D01*
X175122131Y-58792770D01*
X175110500Y-58851247D01*
X175110500Y-60268752D01*
X175122131Y-60327229D01*
X175122132Y-60327230D01*
X175166447Y-60393552D01*
X175232769Y-60437867D01*
X175232770Y-60437868D01*
X175291247Y-60449499D01*
X175291250Y-60449500D01*
X175291252Y-60449500D01*
X176708750Y-60449500D01*
X176708751Y-60449499D01*
X176723568Y-60446552D01*
X176767229Y-60437868D01*
X176767229Y-60437867D01*
X176767231Y-60437867D01*
X176833552Y-60393552D01*
X176877867Y-60327231D01*
X176877867Y-60327229D01*
X176877868Y-60327229D01*
X176889499Y-60268752D01*
X176889500Y-60268750D01*
X176889500Y-59086833D01*
X176909185Y-59019794D01*
X176925819Y-58999152D01*
X177433884Y-58491087D01*
X177990460Y-57934511D01*
X178030022Y-57865988D01*
X178050500Y-57789562D01*
X178050500Y-57710438D01*
X178050500Y-56460438D01*
X178041279Y-56426024D01*
X178030022Y-56384012D01*
X177990460Y-56315489D01*
X174934511Y-53259540D01*
X174934509Y-53259539D01*
X174934504Y-53259535D01*
X174865995Y-53219982D01*
X174865990Y-53219979D01*
X174840513Y-53213152D01*
X174789562Y-53199500D01*
X174789560Y-53199500D01*
X153005833Y-53199500D01*
X152938794Y-53179815D01*
X152918152Y-53163181D01*
X150319298Y-50564327D01*
X150285813Y-50503004D01*
X150290797Y-50433312D01*
X150297618Y-50418197D01*
X150305232Y-50403954D01*
X150365300Y-50205934D01*
X150385583Y-50000000D01*
X150814417Y-50000000D01*
X150834699Y-50205932D01*
X150834700Y-50205934D01*
X150894768Y-50403954D01*
X150992315Y-50586450D01*
X150992317Y-50586452D01*
X151123589Y-50746410D01*
X151196353Y-50806125D01*
X151283550Y-50877685D01*
X151466046Y-50975232D01*
X151664066Y-51035300D01*
X151664065Y-51035300D01*
X151682529Y-51037118D01*
X151870000Y-51055583D01*
X152075934Y-51035300D01*
X152273954Y-50975232D01*
X152456450Y-50877685D01*
X152616410Y-50746410D01*
X152747685Y-50586450D01*
X152845232Y-50403954D01*
X152849919Y-50388503D01*
X152888217Y-50330065D01*
X152952030Y-50301609D01*
X152968579Y-50300500D01*
X192074167Y-50300500D01*
X192141206Y-50320185D01*
X192161848Y-50336819D01*
X197663181Y-55838152D01*
X197696666Y-55899475D01*
X197699500Y-55925833D01*
X197699500Y-57384166D01*
X197679815Y-57451205D01*
X197663181Y-57471847D01*
X197386795Y-57748233D01*
X197325472Y-57781718D01*
X197255780Y-57776734D01*
X197199847Y-57734862D01*
X197175430Y-57669398D01*
X197175643Y-57649110D01*
X197194094Y-57449999D01*
X197173762Y-57230586D01*
X197173761Y-57230584D01*
X197113460Y-57018647D01*
X197113454Y-57018632D01*
X197015242Y-56821396D01*
X197015237Y-56821388D01*
X197001006Y-56802544D01*
X196429890Y-57373661D01*
X196405356Y-57282096D01*
X196348087Y-57182903D01*
X196267097Y-57101913D01*
X196167904Y-57044644D01*
X196076338Y-57020109D01*
X196645337Y-56451109D01*
X196645336Y-56451108D01*
X196532256Y-56381093D01*
X196532250Y-56381089D01*
X196326781Y-56301491D01*
X196110175Y-56261000D01*
X195889825Y-56261000D01*
X195673218Y-56301491D01*
X195467748Y-56381090D01*
X195354661Y-56451109D01*
X195923662Y-57020109D01*
X195832096Y-57044644D01*
X195732903Y-57101913D01*
X195651913Y-57182903D01*
X195594644Y-57282096D01*
X195570109Y-57373661D01*
X194998992Y-56802544D01*
X194998991Y-56802545D01*
X194984761Y-56821390D01*
X194886545Y-57018632D01*
X194886539Y-57018647D01*
X194826238Y-57230584D01*
X194826237Y-57230586D01*
X194805906Y-57449999D01*
X194805906Y-57450000D01*
X194826237Y-57669413D01*
X194826238Y-57669415D01*
X194886539Y-57881352D01*
X194886545Y-57881367D01*
X194984762Y-58078612D01*
X194998991Y-58097454D01*
X194998992Y-58097454D01*
X195570109Y-57526337D01*
X195594644Y-57617904D01*
X195651913Y-57717097D01*
X195732903Y-57798087D01*
X195832096Y-57855356D01*
X195923662Y-57879890D01*
X195354661Y-58448889D01*
X195355420Y-58455431D01*
X195389825Y-58493813D01*
X195400929Y-58562795D01*
X195372976Y-58626829D01*
X195314842Y-58665586D01*
X195297197Y-58669169D01*
X195297226Y-58669311D01*
X195232770Y-58682131D01*
X195232769Y-58682132D01*
X195166447Y-58726447D01*
X195122132Y-58792769D01*
X195122131Y-58792770D01*
X195110500Y-58851247D01*
X195110500Y-60268752D01*
X195122131Y-60327229D01*
X195122132Y-60327230D01*
X195166447Y-60393552D01*
X195232769Y-60437867D01*
X195232770Y-60437868D01*
X195291247Y-60449499D01*
X195291250Y-60449500D01*
X195291252Y-60449500D01*
X196708750Y-60449500D01*
X196708751Y-60449499D01*
X196723568Y-60446552D01*
X196767229Y-60437868D01*
X196767229Y-60437867D01*
X196767231Y-60437867D01*
X196833552Y-60393552D01*
X196877867Y-60327231D01*
X196877867Y-60327229D01*
X196877868Y-60327229D01*
X196889499Y-60268752D01*
X196889500Y-60268750D01*
X196889500Y-59146833D01*
X196909185Y-59079794D01*
X196925819Y-59059152D01*
X197577417Y-58407554D01*
X198240460Y-57744511D01*
X198260132Y-57710438D01*
X198280021Y-57675989D01*
X198300500Y-57599562D01*
X198300500Y-55710438D01*
X198295024Y-55690000D01*
X199494659Y-55690000D01*
X199513975Y-55886129D01*
X199518024Y-55899475D01*
X199566275Y-56058539D01*
X199571188Y-56074733D01*
X199664086Y-56248532D01*
X199664090Y-56248539D01*
X199789116Y-56400883D01*
X199941460Y-56525909D01*
X199941467Y-56525913D01*
X200115266Y-56618811D01*
X200115269Y-56618811D01*
X200115273Y-56618814D01*
X200303868Y-56676024D01*
X200500000Y-56695341D01*
X200696132Y-56676024D01*
X200884727Y-56618814D01*
X200890009Y-56615991D01*
X201032997Y-56539562D01*
X201058538Y-56525910D01*
X201210883Y-56400883D01*
X201335910Y-56248538D01*
X201405400Y-56118532D01*
X201428811Y-56074733D01*
X201428811Y-56074732D01*
X201428814Y-56074727D01*
X201486024Y-55886132D01*
X201505341Y-55690000D01*
X201486024Y-55493868D01*
X201428814Y-55305273D01*
X201428811Y-55305269D01*
X201428811Y-55305266D01*
X201335913Y-55131467D01*
X201335909Y-55131460D01*
X201210883Y-54979116D01*
X201058539Y-54854090D01*
X201058532Y-54854086D01*
X200884733Y-54761188D01*
X200884727Y-54761186D01*
X200696132Y-54703976D01*
X200696129Y-54703975D01*
X200500000Y-54684659D01*
X200303870Y-54703975D01*
X200115266Y-54761188D01*
X199941467Y-54854086D01*
X199941460Y-54854090D01*
X199789116Y-54979116D01*
X199664090Y-55131460D01*
X199664086Y-55131467D01*
X199571188Y-55305266D01*
X199513975Y-55493870D01*
X199494659Y-55690000D01*
X198295024Y-55690000D01*
X198280021Y-55634011D01*
X198246603Y-55576129D01*
X198240464Y-55565495D01*
X198240458Y-55565487D01*
X192434512Y-49759541D01*
X192434504Y-49759535D01*
X192365995Y-49719982D01*
X192365990Y-49719979D01*
X192340513Y-49713152D01*
X192289562Y-49699500D01*
X192289560Y-49699500D01*
X152968579Y-49699500D01*
X152901540Y-49679815D01*
X152855785Y-49627011D01*
X152849919Y-49611497D01*
X152846401Y-49599901D01*
X152845232Y-49596046D01*
X152747685Y-49413550D01*
X152672897Y-49322420D01*
X152616410Y-49253589D01*
X152466121Y-49130252D01*
X152456450Y-49122315D01*
X152273954Y-49024768D01*
X152075934Y-48964700D01*
X152075932Y-48964699D01*
X152075934Y-48964699D01*
X151870000Y-48944417D01*
X151664067Y-48964699D01*
X151529736Y-49005448D01*
X151466050Y-49024767D01*
X151466043Y-49024769D01*
X151378114Y-49071769D01*
X151283550Y-49122315D01*
X151283548Y-49122316D01*
X151283547Y-49122317D01*
X151123589Y-49253589D01*
X150992317Y-49413547D01*
X150894769Y-49596043D01*
X150834699Y-49794067D01*
X150814417Y-50000000D01*
X150385583Y-50000000D01*
X150365300Y-49794066D01*
X150305232Y-49596046D01*
X150207685Y-49413550D01*
X150132897Y-49322420D01*
X150076410Y-49253589D01*
X149926121Y-49130252D01*
X149916450Y-49122315D01*
X149733954Y-49024768D01*
X149535934Y-48964700D01*
X149535932Y-48964699D01*
X149535934Y-48964699D01*
X149330000Y-48944417D01*
X149124067Y-48964699D01*
X148989736Y-49005448D01*
X148926050Y-49024767D01*
X148926043Y-49024769D01*
X148838114Y-49071769D01*
X148743550Y-49122315D01*
X148743548Y-49122316D01*
X148743547Y-49122317D01*
X148583589Y-49253589D01*
X148452317Y-49413547D01*
X148354769Y-49596043D01*
X148294699Y-49794067D01*
X148274417Y-50000000D01*
X147845583Y-50000000D01*
X147825300Y-49794066D01*
X147765232Y-49596046D01*
X147667685Y-49413550D01*
X147592897Y-49322420D01*
X147536410Y-49253589D01*
X147386121Y-49130252D01*
X147376450Y-49122315D01*
X147193954Y-49024768D01*
X146995934Y-48964700D01*
X146995932Y-48964699D01*
X146995934Y-48964699D01*
X146790000Y-48944417D01*
X146584067Y-48964699D01*
X146449736Y-49005448D01*
X146386050Y-49024767D01*
X146386043Y-49024769D01*
X146298114Y-49071769D01*
X146203550Y-49122315D01*
X146203548Y-49122316D01*
X146203547Y-49122317D01*
X146043589Y-49253589D01*
X145912317Y-49413547D01*
X145814769Y-49596043D01*
X145754699Y-49794067D01*
X145734417Y-50000000D01*
X145305583Y-50000000D01*
X145285300Y-49794066D01*
X145225232Y-49596046D01*
X145127685Y-49413550D01*
X145052897Y-49322420D01*
X144996410Y-49253589D01*
X144846121Y-49130252D01*
X144836450Y-49122315D01*
X144653954Y-49024768D01*
X144455934Y-48964700D01*
X144455932Y-48964699D01*
X144455934Y-48964699D01*
X144250000Y-48944417D01*
X144044067Y-48964699D01*
X143909736Y-49005448D01*
X143846050Y-49024767D01*
X143846043Y-49024769D01*
X143758114Y-49071769D01*
X143663550Y-49122315D01*
X143663548Y-49122316D01*
X143663547Y-49122317D01*
X143503589Y-49253589D01*
X143372317Y-49413547D01*
X143274769Y-49596043D01*
X143214699Y-49794067D01*
X143194417Y-50000000D01*
X143214699Y-50205932D01*
X143214700Y-50205934D01*
X143274768Y-50403954D01*
X143372315Y-50586450D01*
X143503590Y-50746410D01*
X143576352Y-50806125D01*
X143615686Y-50863871D01*
X143617557Y-50933715D01*
X143585368Y-50989659D01*
X141161848Y-53413181D01*
X141100525Y-53446666D01*
X141074167Y-53449500D01*
X139710438Y-53449500D01*
X139672224Y-53459739D01*
X139634009Y-53469979D01*
X139634004Y-53469982D01*
X139565495Y-53509535D01*
X139565487Y-53509541D01*
X138259541Y-54815487D01*
X138259535Y-54815495D01*
X138219982Y-54884004D01*
X138219979Y-54884009D01*
X138199500Y-54960439D01*
X138199500Y-56884166D01*
X138179815Y-56951205D01*
X138163181Y-56971847D01*
X137386795Y-57748233D01*
X137325472Y-57781718D01*
X137255780Y-57776734D01*
X137199847Y-57734862D01*
X137175430Y-57669398D01*
X137175643Y-57649110D01*
X137194094Y-57449999D01*
X137173762Y-57230586D01*
X137173761Y-57230584D01*
X137113460Y-57018647D01*
X137113454Y-57018632D01*
X137015242Y-56821396D01*
X137015237Y-56821388D01*
X137001006Y-56802544D01*
X136429890Y-57373661D01*
X136405356Y-57282096D01*
X136348087Y-57182903D01*
X136267097Y-57101913D01*
X136167904Y-57044644D01*
X136076338Y-57020109D01*
X136645337Y-56451109D01*
X136645336Y-56451108D01*
X136532256Y-56381093D01*
X136532250Y-56381089D01*
X136326781Y-56301491D01*
X136110175Y-56261000D01*
X135889825Y-56261000D01*
X135673218Y-56301491D01*
X135467748Y-56381090D01*
X135354661Y-56451109D01*
X135923662Y-57020109D01*
X135832096Y-57044644D01*
X135732903Y-57101913D01*
X135651913Y-57182903D01*
X135594644Y-57282096D01*
X135570109Y-57373662D01*
X134998992Y-56802545D01*
X134998991Y-56802545D01*
X134984761Y-56821390D01*
X134886545Y-57018632D01*
X134886539Y-57018647D01*
X134826238Y-57230584D01*
X134826237Y-57230586D01*
X134805906Y-57449999D01*
X134805906Y-57450000D01*
X134354400Y-57450000D01*
X134334855Y-57264044D01*
X134277075Y-57086215D01*
X134211045Y-56971847D01*
X134183586Y-56924286D01*
X134058469Y-56785330D01*
X133907204Y-56675429D01*
X133907201Y-56675427D01*
X133907200Y-56675427D01*
X133848911Y-56649475D01*
X133736390Y-56599376D01*
X133736384Y-56599374D01*
X133576990Y-56565495D01*
X133553490Y-56560500D01*
X133366510Y-56560500D01*
X133343010Y-56565495D01*
X133183615Y-56599374D01*
X133183609Y-56599376D01*
X133012800Y-56675427D01*
X133012795Y-56675429D01*
X132861530Y-56785330D01*
X132736413Y-56924286D01*
X132642925Y-57086213D01*
X132585146Y-57264039D01*
X132585145Y-57264041D01*
X132565600Y-57450000D01*
X132585145Y-57635958D01*
X132585146Y-57635960D01*
X132642925Y-57813786D01*
X132736413Y-57975713D01*
X132861530Y-58114669D01*
X133012795Y-58224570D01*
X133012796Y-58224571D01*
X133012799Y-58224572D01*
X133012800Y-58224573D01*
X133021021Y-58228233D01*
X133074259Y-58273481D01*
X133094582Y-58340329D01*
X133075539Y-58407554D01*
X133023174Y-58453811D01*
X133015383Y-58457139D01*
X132927754Y-58491087D01*
X132927749Y-58491090D01*
X132814661Y-58561109D01*
X133383662Y-59130109D01*
X133292096Y-59154644D01*
X133192903Y-59211913D01*
X133111913Y-59292903D01*
X133054644Y-59392096D01*
X133030109Y-59483662D01*
X132458992Y-58912545D01*
X132458991Y-58912545D01*
X132444761Y-58931390D01*
X132346545Y-59128632D01*
X132346539Y-59128647D01*
X132286238Y-59340584D01*
X132286237Y-59340586D01*
X132265906Y-59559999D01*
X132265906Y-59560000D01*
X129984971Y-59560000D01*
X126836819Y-56411848D01*
X126803334Y-56350525D01*
X126800500Y-56324167D01*
X126800500Y-48925833D01*
X126820185Y-48858794D01*
X126836819Y-48838152D01*
X127588152Y-48086819D01*
X127649475Y-48053334D01*
X127675833Y-48050500D01*
X133074167Y-48050500D01*
X133141206Y-48070185D01*
X133161848Y-48086819D01*
X133753181Y-48678152D01*
X133786666Y-48739475D01*
X133789500Y-48765833D01*
X133789500Y-48901421D01*
X133769815Y-48968460D01*
X133717011Y-49014215D01*
X133701496Y-49020081D01*
X133686046Y-49024767D01*
X133598112Y-49071770D01*
X133503550Y-49122315D01*
X133503548Y-49122316D01*
X133503547Y-49122317D01*
X133343589Y-49253589D01*
X133212317Y-49413547D01*
X133114767Y-49596046D01*
X133094593Y-49662552D01*
X133056296Y-49720990D01*
X132992483Y-49749447D01*
X132923416Y-49738886D01*
X132871023Y-49692661D01*
X132856158Y-49658649D01*
X132823433Y-49536516D01*
X132823429Y-49536507D01*
X132723600Y-49322422D01*
X132723599Y-49322420D01*
X132588113Y-49128926D01*
X132588108Y-49128920D01*
X132421082Y-48961894D01*
X132227578Y-48826399D01*
X132013492Y-48726570D01*
X132013486Y-48726567D01*
X131800000Y-48669364D01*
X131800000Y-49566988D01*
X131742993Y-49534075D01*
X131615826Y-49500000D01*
X131484174Y-49500000D01*
X131357007Y-49534075D01*
X131300000Y-49566988D01*
X131300000Y-48669364D01*
X131299999Y-48669364D01*
X131086513Y-48726567D01*
X131086507Y-48726570D01*
X130872422Y-48826399D01*
X130872420Y-48826400D01*
X130678926Y-48961886D01*
X130678920Y-48961891D01*
X130511891Y-49128920D01*
X130511886Y-49128926D01*
X130376400Y-49322420D01*
X130376399Y-49322422D01*
X130296882Y-49492948D01*
X130250710Y-49545387D01*
X130183516Y-49564539D01*
X130116635Y-49544323D01*
X130071300Y-49491158D01*
X130060500Y-49440543D01*
X130060500Y-49130249D01*
X130060499Y-49130247D01*
X130048868Y-49071770D01*
X130048867Y-49071769D01*
X130004552Y-49005447D01*
X129938230Y-48961132D01*
X129938229Y-48961131D01*
X129879752Y-48949500D01*
X129879748Y-48949500D01*
X128140252Y-48949500D01*
X128140247Y-48949500D01*
X128081770Y-48961131D01*
X128081769Y-48961132D01*
X128015447Y-49005447D01*
X127971132Y-49071769D01*
X127971131Y-49071770D01*
X127959500Y-49130247D01*
X127959500Y-50869752D01*
X127971131Y-50928229D01*
X127971132Y-50928230D01*
X128015447Y-50994552D01*
X128081769Y-51038867D01*
X128081770Y-51038868D01*
X128140247Y-51050499D01*
X128140250Y-51050500D01*
X128140252Y-51050500D01*
X128575500Y-51050500D01*
X128642539Y-51070185D01*
X128688294Y-51122989D01*
X128699500Y-51174500D01*
X128699500Y-54333671D01*
X128679815Y-54400710D01*
X128627011Y-54446465D01*
X128620871Y-54448786D01*
X128620900Y-54448855D01*
X128615269Y-54451187D01*
X128441467Y-54544086D01*
X128441460Y-54544090D01*
X128289116Y-54669116D01*
X128164090Y-54821460D01*
X128164086Y-54821467D01*
X128071188Y-54995266D01*
X128013975Y-55183870D01*
X127994659Y-55380000D01*
X128013975Y-55576129D01*
X128071188Y-55764733D01*
X128164086Y-55938532D01*
X128164090Y-55938539D01*
X128289116Y-56090883D01*
X128441460Y-56215909D01*
X128441467Y-56215913D01*
X128615266Y-56308811D01*
X128615269Y-56308811D01*
X128615273Y-56308814D01*
X128803868Y-56366024D01*
X129000000Y-56385341D01*
X129196132Y-56366024D01*
X129384727Y-56308814D01*
X129398428Y-56301491D01*
X129497495Y-56248538D01*
X129558538Y-56215910D01*
X129710883Y-56090883D01*
X129835910Y-55938538D01*
X129882362Y-55851632D01*
X129928811Y-55764733D01*
X129928811Y-55764732D01*
X129928814Y-55764727D01*
X129986024Y-55576132D01*
X130005341Y-55380000D01*
X129986024Y-55183868D01*
X129928814Y-54995273D01*
X129928811Y-54995269D01*
X129928811Y-54995266D01*
X129835913Y-54821467D01*
X129835909Y-54821460D01*
X129710883Y-54669116D01*
X129558539Y-54544090D01*
X129558532Y-54544086D01*
X129384730Y-54451187D01*
X129379100Y-54448855D01*
X129379974Y-54446744D01*
X129330058Y-54414024D01*
X129301608Y-54350209D01*
X129300500Y-54333671D01*
X129300500Y-51174500D01*
X129320185Y-51107461D01*
X129372989Y-51061706D01*
X129424500Y-51050500D01*
X129879750Y-51050500D01*
X129879751Y-51050499D01*
X129894568Y-51047552D01*
X129938229Y-51038868D01*
X129938229Y-51038867D01*
X129938231Y-51038867D01*
X130004552Y-50994552D01*
X130048867Y-50928231D01*
X130048867Y-50928229D01*
X130048868Y-50928229D01*
X130058922Y-50877682D01*
X130060500Y-50869748D01*
X130060500Y-50559456D01*
X130080185Y-50492417D01*
X130132989Y-50446662D01*
X130202147Y-50436718D01*
X130265703Y-50465743D01*
X130296882Y-50507051D01*
X130376400Y-50677578D01*
X130511894Y-50871082D01*
X130678917Y-51038105D01*
X130872421Y-51173600D01*
X131086507Y-51273429D01*
X131086516Y-51273433D01*
X131300000Y-51330634D01*
X131300000Y-50433012D01*
X131357007Y-50465925D01*
X131484174Y-50500000D01*
X131615826Y-50500000D01*
X131742993Y-50465925D01*
X131800000Y-50433012D01*
X131800000Y-51330633D01*
X132013483Y-51273433D01*
X132013492Y-51273429D01*
X132227578Y-51173600D01*
X132421082Y-51038105D01*
X132588105Y-50871082D01*
X132723600Y-50677578D01*
X132823429Y-50463492D01*
X132823433Y-50463483D01*
X132856158Y-50341350D01*
X132892522Y-50281690D01*
X132955369Y-50251160D01*
X133024745Y-50259454D01*
X133078623Y-50303939D01*
X133094593Y-50337447D01*
X133114768Y-50403954D01*
X133212315Y-50586450D01*
X133212317Y-50586452D01*
X133343589Y-50746410D01*
X133416353Y-50806125D01*
X133503550Y-50877685D01*
X133686046Y-50975232D01*
X133884066Y-51035300D01*
X133884065Y-51035300D01*
X133902529Y-51037118D01*
X134090000Y-51055583D01*
X134295934Y-51035300D01*
X134493954Y-50975232D01*
X134676450Y-50877685D01*
X134836410Y-50746410D01*
X134967685Y-50586450D01*
X135065232Y-50403954D01*
X135125300Y-50205934D01*
X135145583Y-50000000D01*
X135574417Y-50000000D01*
X135594699Y-50205932D01*
X135594700Y-50205934D01*
X135654768Y-50403954D01*
X135752315Y-50586450D01*
X135752317Y-50586452D01*
X135883589Y-50746410D01*
X135956353Y-50806125D01*
X136043550Y-50877685D01*
X136226046Y-50975232D01*
X136424066Y-51035300D01*
X136424065Y-51035300D01*
X136442529Y-51037118D01*
X136630000Y-51055583D01*
X136835934Y-51035300D01*
X137033954Y-50975232D01*
X137216450Y-50877685D01*
X137376410Y-50746410D01*
X137507685Y-50586450D01*
X137605232Y-50403954D01*
X137665300Y-50205934D01*
X137685583Y-50000000D01*
X138114417Y-50000000D01*
X138134699Y-50205932D01*
X138134700Y-50205934D01*
X138194768Y-50403954D01*
X138292315Y-50586450D01*
X138292317Y-50586452D01*
X138423589Y-50746410D01*
X138496353Y-50806125D01*
X138583550Y-50877685D01*
X138766046Y-50975232D01*
X138964066Y-51035300D01*
X138964065Y-51035300D01*
X138982529Y-51037118D01*
X139170000Y-51055583D01*
X139375934Y-51035300D01*
X139573954Y-50975232D01*
X139756450Y-50877685D01*
X139916410Y-50746410D01*
X140047685Y-50586450D01*
X140145232Y-50403954D01*
X140205300Y-50205934D01*
X140225583Y-50000000D01*
X140654417Y-50000000D01*
X140674699Y-50205932D01*
X140674700Y-50205934D01*
X140734768Y-50403954D01*
X140832315Y-50586450D01*
X140832317Y-50586452D01*
X140963589Y-50746410D01*
X141036353Y-50806125D01*
X141123550Y-50877685D01*
X141306046Y-50975232D01*
X141504066Y-51035300D01*
X141504065Y-51035300D01*
X141522529Y-51037118D01*
X141710000Y-51055583D01*
X141915934Y-51035300D01*
X142113954Y-50975232D01*
X142296450Y-50877685D01*
X142456410Y-50746410D01*
X142587685Y-50586450D01*
X142685232Y-50403954D01*
X142745300Y-50205934D01*
X142765583Y-50000000D01*
X142745300Y-49794066D01*
X142685232Y-49596046D01*
X142587685Y-49413550D01*
X142512897Y-49322420D01*
X142456410Y-49253589D01*
X142306121Y-49130252D01*
X142296450Y-49122315D01*
X142113954Y-49024768D01*
X141915934Y-48964700D01*
X141915932Y-48964699D01*
X141915934Y-48964699D01*
X141710000Y-48944417D01*
X141504067Y-48964699D01*
X141369736Y-49005448D01*
X141306050Y-49024767D01*
X141306043Y-49024769D01*
X141218114Y-49071769D01*
X141123550Y-49122315D01*
X141123548Y-49122316D01*
X141123547Y-49122317D01*
X140963589Y-49253589D01*
X140832317Y-49413547D01*
X140734769Y-49596043D01*
X140674699Y-49794067D01*
X140654417Y-50000000D01*
X140225583Y-50000000D01*
X140205300Y-49794066D01*
X140145232Y-49596046D01*
X140047685Y-49413550D01*
X139972897Y-49322420D01*
X139916410Y-49253589D01*
X139766121Y-49130252D01*
X139756450Y-49122315D01*
X139573954Y-49024768D01*
X139375934Y-48964700D01*
X139375932Y-48964699D01*
X139375934Y-48964699D01*
X139170000Y-48944417D01*
X138964067Y-48964699D01*
X138829736Y-49005448D01*
X138766050Y-49024767D01*
X138766043Y-49024769D01*
X138678114Y-49071769D01*
X138583550Y-49122315D01*
X138583548Y-49122316D01*
X138583547Y-49122317D01*
X138423589Y-49253589D01*
X138292317Y-49413547D01*
X138194769Y-49596043D01*
X138134699Y-49794067D01*
X138114417Y-50000000D01*
X137685583Y-50000000D01*
X137665300Y-49794066D01*
X137605232Y-49596046D01*
X137507685Y-49413550D01*
X137432897Y-49322420D01*
X137376410Y-49253589D01*
X137226121Y-49130252D01*
X137216450Y-49122315D01*
X137033954Y-49024768D01*
X136835934Y-48964700D01*
X136835932Y-48964699D01*
X136835934Y-48964699D01*
X136630000Y-48944417D01*
X136424067Y-48964699D01*
X136289736Y-49005448D01*
X136226050Y-49024767D01*
X136226043Y-49024769D01*
X136138114Y-49071769D01*
X136043550Y-49122315D01*
X136043548Y-49122316D01*
X136043547Y-49122317D01*
X135883589Y-49253589D01*
X135752317Y-49413547D01*
X135654769Y-49596043D01*
X135594699Y-49794067D01*
X135574417Y-50000000D01*
X135145583Y-50000000D01*
X135125300Y-49794066D01*
X135065232Y-49596046D01*
X134967685Y-49413550D01*
X134892897Y-49322420D01*
X134836410Y-49253589D01*
X134686121Y-49130252D01*
X134676450Y-49122315D01*
X134554786Y-49057283D01*
X134493953Y-49024767D01*
X134478504Y-49020081D01*
X134420066Y-48981784D01*
X134391609Y-48917971D01*
X134390500Y-48901421D01*
X134390500Y-48550439D01*
X134370020Y-48474009D01*
X134370017Y-48474004D01*
X134330464Y-48405495D01*
X134330458Y-48405487D01*
X133434512Y-47509541D01*
X133434504Y-47509535D01*
X133365995Y-47469982D01*
X133365990Y-47469979D01*
X133340513Y-47463152D01*
X133289562Y-47449500D01*
X127539562Y-47449500D01*
X127460438Y-47449500D01*
X127384010Y-47469978D01*
X127315489Y-47509540D01*
X127315486Y-47509542D01*
X126259541Y-48565487D01*
X126259535Y-48565495D01*
X126219982Y-48634004D01*
X126219979Y-48634009D01*
X126210506Y-48669364D01*
X126199500Y-48710438D01*
X126199500Y-56539562D01*
X125500500Y-56539562D01*
X125500500Y-46374500D01*
X125520185Y-46307461D01*
X125572989Y-46261706D01*
X125624500Y-46250500D01*
X204375500Y-46250500D01*
X204442539Y-46270185D01*
G37*
%TD.AperFunction*%
%TD*%
M02*
