%TF.GenerationSoftware,KiCad,Pcbnew,8.0.1*%
%TF.CreationDate,2024-10-21T16:06:20-03:00*%
%TF.ProjectId,placa_de_sensores,706c6163-615f-4646-955f-73656e736f72,rev?*%
%TF.SameCoordinates,Original*%
%TF.FileFunction,AssemblyDrawing,Bot*%
%FSLAX46Y46*%
G04 Gerber Fmt 4.6, Leading zero omitted, Abs format (unit mm)*
G04 Created by KiCad (PCBNEW 8.0.1) date 2024-10-21 16:06:20*
%MOMM*%
%LPD*%
G01*
G04 APERTURE LIST*
%ADD10C,0.127000*%
%ADD11C,0.200000*%
G04 APERTURE END LIST*
D10*
%TO.C,U1*%
X191680000Y-56310000D02*
X197780000Y-56310000D01*
X191680000Y-60700000D02*
X191680000Y-56310000D01*
X197780000Y-56310000D02*
X197780000Y-60700000D01*
X197780000Y-60700000D02*
X191680000Y-60700000D01*
D11*
X196939200Y-61332200D02*
G75*
G02*
X196739200Y-61332200I-100000J0D01*
G01*
X196739200Y-61332200D02*
G75*
G02*
X196939200Y-61332200I100000J0D01*
G01*
D10*
%TO.C,U2*%
X171680000Y-56310000D02*
X177780000Y-56310000D01*
X171680000Y-60700000D02*
X171680000Y-56310000D01*
X177780000Y-56310000D02*
X177780000Y-60700000D01*
X177780000Y-60700000D02*
X171680000Y-60700000D01*
D11*
X176939200Y-61332200D02*
G75*
G02*
X176739200Y-61332200I-100000J0D01*
G01*
X176739200Y-61332200D02*
G75*
G02*
X176939200Y-61332200I100000J0D01*
G01*
D10*
%TO.C,U4*%
X131680000Y-56310000D02*
X137780000Y-56310000D01*
X131680000Y-60700000D02*
X131680000Y-56310000D01*
X137780000Y-56310000D02*
X137780000Y-60700000D01*
X137780000Y-60700000D02*
X131680000Y-60700000D01*
D11*
X136939200Y-61332200D02*
G75*
G02*
X136739200Y-61332200I-100000J0D01*
G01*
X136739200Y-61332200D02*
G75*
G02*
X136939200Y-61332200I100000J0D01*
G01*
D10*
%TO.C,U3*%
X151680000Y-56310000D02*
X157780000Y-56310000D01*
X151680000Y-60700000D02*
X151680000Y-56310000D01*
X157780000Y-56310000D02*
X157780000Y-60700000D01*
X157780000Y-60700000D02*
X151680000Y-60700000D01*
D11*
X156939200Y-61332200D02*
G75*
G02*
X156739200Y-61332200I-100000J0D01*
G01*
X156739200Y-61332200D02*
G75*
G02*
X156939200Y-61332200I100000J0D01*
G01*
%TD*%
M02*
