%TF.GenerationSoftware,KiCad,Pcbnew,8.0.1*%
%TF.CreationDate,2024-10-21T16:06:20-03:00*%
%TF.ProjectId,placa_de_sensores,706c6163-615f-4646-955f-73656e736f72,rev?*%
%TF.SameCoordinates,Original*%
%TF.FileFunction,Copper,L1,Top*%
%TF.FilePolarity,Positive*%
%FSLAX46Y46*%
G04 Gerber Fmt 4.6, Leading zero omitted, Abs format (unit mm)*
G04 Created by KiCad (PCBNEW 8.0.1) date 2024-10-21 16:06:20*
%MOMM*%
%LPD*%
G01*
G04 APERTURE LIST*
G04 Aperture macros list*
%AMRoundRect*
0 Rectangle with rounded corners*
0 $1 Rounding radius*
0 $2 $3 $4 $5 $6 $7 $8 $9 X,Y pos of 4 corners*
0 Add a 4 corners polygon primitive as box body*
4,1,4,$2,$3,$4,$5,$6,$7,$8,$9,$2,$3,0*
0 Add four circle primitives for the rounded corners*
1,1,$1+$1,$2,$3*
1,1,$1+$1,$4,$5*
1,1,$1+$1,$6,$7*
1,1,$1+$1,$8,$9*
0 Add four rect primitives between the rounded corners*
20,1,$1+$1,$2,$3,$4,$5,0*
20,1,$1+$1,$4,$5,$6,$7,0*
20,1,$1+$1,$6,$7,$8,$9,0*
20,1,$1+$1,$8,$9,$2,$3,0*%
G04 Aperture macros list end*
%TA.AperFunction,ComponentPad*%
%ADD10RoundRect,0.250000X0.600000X0.725000X-0.600000X0.725000X-0.600000X-0.725000X0.600000X-0.725000X0*%
%TD*%
%TA.AperFunction,ComponentPad*%
%ADD11O,1.700000X1.950000*%
%TD*%
%TA.AperFunction,ComponentPad*%
%ADD12R,1.700000X1.700000*%
%TD*%
%TA.AperFunction,ComponentPad*%
%ADD13O,1.700000X1.700000*%
%TD*%
%TA.AperFunction,ComponentPad*%
%ADD14O,1.600000X1.600000*%
%TD*%
%TA.AperFunction,ComponentPad*%
%ADD15C,1.600000*%
%TD*%
%TA.AperFunction,ComponentPad*%
%ADD16R,0.850000X0.850000*%
%TD*%
%TA.AperFunction,ComponentPad*%
%ADD17R,1.378000X1.378000*%
%TD*%
%TA.AperFunction,ComponentPad*%
%ADD18C,1.378000*%
%TD*%
%TA.AperFunction,Conductor*%
%ADD19C,0.200000*%
%TD*%
G04 APERTURE END LIST*
D10*
%TO.P,CONEX\u00C3O-I2C1,1,Pin_1*%
%TO.N,/SCL*%
X150500000Y-75250000D03*
D11*
%TO.P,CONEX\u00C3O-I2C1,2,Pin_2*%
%TO.N,/SDA*%
X148000000Y-75250000D03*
%TO.P,CONEX\u00C3O-I2C1,3,Pin_3*%
%TO.N,+3V3*%
X145500000Y-75250000D03*
%TO.P,CONEX\u00C3O-I2C1,4,Pin_4*%
%TO.N,GND*%
X143000000Y-75250000D03*
%TD*%
D12*
%TO.P,INA122,1,Pin_1*%
%TO.N,Net-(INA122_D1-Pin_1)*%
X175000000Y-67460000D03*
D13*
%TO.P,INA122,2,Pin_2*%
%TO.N,+3V3*%
X175000000Y-70000000D03*
%TO.P,INA122,3,Pin_3*%
%TO.N,/ANA_OUT*%
X175000000Y-72540000D03*
%TO.P,INA122,4,Pin_4*%
%TO.N,Net-(INA122_D1-Pin_4)*%
X175000000Y-75080000D03*
%TD*%
D14*
%TO.P,RG,2*%
%TO.N,Net-(INA122_D1-Pin_1)*%
X159000000Y-67190000D03*
D15*
%TO.P,RG,1*%
%TO.N,Net-(INA122_E1-Pin_1)*%
X159000000Y-74810000D03*
%TD*%
D14*
%TO.P,R10,2*%
%TO.N,+3V3*%
X129000000Y-55380000D03*
D15*
%TO.P,R10,1*%
%TO.N,Net-(R10-Pad1)*%
X129000000Y-63000000D03*
%TD*%
D14*
%TO.P,R9,2*%
%TO.N,+3V3*%
X149500000Y-55500000D03*
D15*
%TO.P,R9,1*%
%TO.N,Net-(R9-Pad1)*%
X149500000Y-63120000D03*
%TD*%
%TO.P,R8,1*%
%TO.N,Net-(INA122_D1-Pin_4)*%
X187000000Y-75810000D03*
D14*
%TO.P,R8,2*%
%TO.N,GND*%
X187000000Y-68190000D03*
%TD*%
D15*
%TO.P,R7,1*%
%TO.N,+3V3*%
X183250000Y-68130000D03*
D14*
%TO.P,R7,2*%
%TO.N,Net-(INA122_D1-Pin_4)*%
X183250000Y-75750000D03*
%TD*%
D15*
%TO.P,R6,1*%
%TO.N,+3V3*%
X140750000Y-55440000D03*
D14*
%TO.P,R6,2*%
%TO.N,/A0*%
X140750000Y-63060000D03*
%TD*%
%TO.P,R5,2*%
%TO.N,/A1*%
X160750000Y-63120000D03*
D15*
%TO.P,R5,1*%
%TO.N,+3V3*%
X160750000Y-55500000D03*
%TD*%
%TO.P,R4,1*%
%TO.N,Net-(R4-Pad1)*%
X169250000Y-63250000D03*
D14*
%TO.P,R4,2*%
%TO.N,+3V3*%
X169250000Y-55630000D03*
%TD*%
D15*
%TO.P,R3,1*%
%TO.N,Net-(R3-Pad1)*%
X189250000Y-63250000D03*
D14*
%TO.P,R3,2*%
%TO.N,+3V3*%
X189250000Y-55630000D03*
%TD*%
%TO.P,R2,2*%
%TO.N,/A2*%
X180750000Y-63180000D03*
D15*
%TO.P,R2,1*%
%TO.N,+3V3*%
X180750000Y-55560000D03*
%TD*%
D14*
%TO.P,R1,2*%
%TO.N,/A3*%
X200500000Y-63310000D03*
D15*
%TO.P,R1,1*%
%TO.N,+3V3*%
X200500000Y-55690000D03*
%TD*%
D16*
%TO.P,ANA_OUT,1,Pin_1*%
%TO.N,/ANA_OUT*%
X200250000Y-69250000D03*
%TD*%
D12*
%TO.P,INA122_E1,1,Pin_1*%
%TO.N,Net-(INA122_E1-Pin_1)*%
X167000000Y-67460000D03*
D13*
%TO.P,INA122_E1,2,Pin_2*%
%TO.N,/A2*%
X167000000Y-70000000D03*
%TO.P,INA122_E1,3,Pin_3*%
%TO.N,/A1*%
X167000000Y-72540000D03*
%TO.P,INA122_E1,4,Pin_4*%
%TO.N,GND*%
X167000000Y-75080000D03*
%TD*%
%TO.P,ADS1115,10,Pin_10*%
%TO.N,/A3*%
X151870000Y-50000000D03*
%TO.P,ADS1115,9,Pin_9*%
%TO.N,/A2*%
X149330000Y-50000000D03*
%TO.P,ADS1115,8,Pin_8*%
%TO.N,/A1*%
X146790000Y-50000000D03*
%TO.P,ADS1115,7,Pin_7*%
%TO.N,/A0*%
X144250000Y-50000000D03*
%TO.P,ADS1115,6,Pin_6*%
%TO.N,/ALRT*%
X141710000Y-50000000D03*
%TO.P,ADS1115,5,Pin_5*%
%TO.N,/ADDR*%
X139170000Y-50000000D03*
%TO.P,ADS1115,4,Pin_4*%
%TO.N,/SDA*%
X136630000Y-50000000D03*
%TO.P,ADS1115,3,Pin_3*%
%TO.N,/SCL*%
X134090000Y-50000000D03*
%TO.P,ADS1115,2,Pin_2*%
%TO.N,GND*%
X131550000Y-50000000D03*
D12*
%TO.P,ADS1115,1,Pin_1*%
%TO.N,+3V3*%
X129010000Y-50000000D03*
%TD*%
D17*
%TO.P,U1,1*%
%TO.N,/A3*%
X196000000Y-59560000D03*
D18*
%TO.P,U1,2*%
%TO.N,GND*%
X193460000Y-59560000D03*
%TO.P,U1,3*%
%TO.N,Net-(R3-Pad1)*%
X193460000Y-57450000D03*
%TO.P,U1,4*%
%TO.N,GND*%
X196000000Y-57450000D03*
%TD*%
D17*
%TO.P,U2,1*%
%TO.N,/A2*%
X176000000Y-59560000D03*
D18*
%TO.P,U2,2*%
%TO.N,GND*%
X173460000Y-59560000D03*
%TO.P,U2,3*%
%TO.N,Net-(R4-Pad1)*%
X173460000Y-57450000D03*
%TO.P,U2,4*%
%TO.N,GND*%
X176000000Y-57450000D03*
%TD*%
D17*
%TO.P,U4,1*%
%TO.N,/A0*%
X136000000Y-59560000D03*
D18*
%TO.P,U4,2*%
%TO.N,GND*%
X133460000Y-59560000D03*
%TO.P,U4,3*%
%TO.N,Net-(R10-Pad1)*%
X133460000Y-57450000D03*
%TO.P,U4,4*%
%TO.N,GND*%
X136000000Y-57450000D03*
%TD*%
D17*
%TO.P,U3,1*%
%TO.N,/A1*%
X156000000Y-59560000D03*
D18*
%TO.P,U3,2*%
%TO.N,GND*%
X153460000Y-59560000D03*
%TO.P,U3,3*%
%TO.N,Net-(R9-Pad1)*%
X153460000Y-57450000D03*
%TO.P,U3,4*%
%TO.N,GND*%
X156000000Y-57450000D03*
%TD*%
D19*
%TO.N,/SDA*%
X148000000Y-75250000D02*
X148000000Y-68750000D01*
X148000000Y-68750000D02*
X147250000Y-68000000D01*
X139130000Y-52500000D02*
X136630000Y-50000000D01*
X147250000Y-57000000D02*
X142750000Y-52500000D01*
X142750000Y-52500000D02*
X139130000Y-52500000D01*
X147250000Y-68000000D02*
X147250000Y-57000000D01*
%TO.N,+3V3*%
X145500000Y-60190000D02*
X145500000Y-75250000D01*
X145500000Y-60190000D02*
X140750000Y-55440000D01*
%TO.N,Net-(R10-Pad1)*%
X129000000Y-63000000D02*
X129000000Y-61910000D01*
X129000000Y-61910000D02*
X133460000Y-57450000D01*
%TO.N,/A0*%
X139500000Y-63060000D02*
X136000000Y-59560000D01*
X140750000Y-63060000D02*
X139500000Y-63060000D01*
%TO.N,/A1*%
X157190000Y-59560000D02*
X160750000Y-63120000D01*
X156000000Y-59560000D02*
X157190000Y-59560000D01*
%TO.N,Net-(R9-Pad1)*%
X149500000Y-61410000D02*
X153460000Y-57450000D01*
X149500000Y-63120000D02*
X149500000Y-61410000D01*
%TO.N,/A2*%
X177130000Y-59560000D02*
X180750000Y-63180000D01*
X176000000Y-59560000D02*
X177130000Y-59560000D01*
%TO.N,Net-(R4-Pad1)*%
X169250000Y-63250000D02*
X169250000Y-61660000D01*
X169250000Y-61660000D02*
X173460000Y-57450000D01*
%TO.N,Net-(R3-Pad1)*%
X189250000Y-61660000D02*
X189250000Y-63250000D01*
X193460000Y-57450000D02*
X189250000Y-61660000D01*
%TO.N,/A3*%
X196750000Y-59560000D02*
X200500000Y-63310000D01*
X196000000Y-59560000D02*
X196750000Y-59560000D01*
%TO.N,+3V3*%
X180680000Y-55630000D02*
X180750000Y-55560000D01*
X169250000Y-55630000D02*
X180680000Y-55630000D01*
X140690000Y-55380000D02*
X140750000Y-55440000D01*
X129000000Y-55380000D02*
X140690000Y-55380000D01*
X149500000Y-55500000D02*
X160750000Y-55500000D01*
X200500000Y-55690000D02*
X189310000Y-55690000D01*
%TO.N,/A2*%
X173820000Y-63180000D02*
X180750000Y-63180000D01*
X167000000Y-70000000D02*
X173820000Y-63180000D01*
%TO.N,Net-(INA122_E1-Pin_1)*%
X166350000Y-67460000D02*
X159000000Y-74810000D01*
X167000000Y-67460000D02*
X166350000Y-67460000D01*
%TD*%
%TA.AperFunction,Conductor*%
%TO.N,GND*%
G36*
X204442539Y-46270185D02*
G01*
X204488294Y-46322989D01*
X204499500Y-46374500D01*
X204499500Y-77375500D01*
X204479815Y-77442539D01*
X204427011Y-77488294D01*
X204375500Y-77499500D01*
X125624500Y-77499500D01*
X125557461Y-77479815D01*
X125511706Y-77427011D01*
X125500500Y-77375500D01*
X125500500Y-73500005D01*
X132494556Y-73500005D01*
X132514310Y-73814004D01*
X132514311Y-73814011D01*
X132527570Y-73883518D01*
X132573102Y-74122206D01*
X132573270Y-74123083D01*
X132670497Y-74422316D01*
X132670499Y-74422321D01*
X132804461Y-74707003D01*
X132804464Y-74707009D01*
X132973051Y-74972661D01*
X132973054Y-74972665D01*
X133173606Y-75215090D01*
X133173608Y-75215092D01*
X133173610Y-75215094D01*
X133337005Y-75368532D01*
X133402968Y-75430476D01*
X133402978Y-75430484D01*
X133657504Y-75615408D01*
X133657509Y-75615410D01*
X133657516Y-75615416D01*
X133933234Y-75766994D01*
X133933239Y-75766996D01*
X133933241Y-75766997D01*
X133933242Y-75766998D01*
X134225771Y-75882818D01*
X134225774Y-75882819D01*
X134472351Y-75946129D01*
X134530527Y-75961066D01*
X134596010Y-75969338D01*
X134842670Y-76000499D01*
X134842679Y-76000499D01*
X134842682Y-76000500D01*
X134842684Y-76000500D01*
X135157316Y-76000500D01*
X135157318Y-76000500D01*
X135157321Y-76000499D01*
X135157329Y-76000499D01*
X135343593Y-75976968D01*
X135469473Y-75961066D01*
X135774225Y-75882819D01*
X135774228Y-75882818D01*
X136066757Y-75766998D01*
X136066758Y-75766997D01*
X136066756Y-75766997D01*
X136066766Y-75766994D01*
X136342484Y-75615416D01*
X136597030Y-75430478D01*
X136826390Y-75215094D01*
X137026947Y-74972663D01*
X137195537Y-74707007D01*
X137329503Y-74422315D01*
X137426731Y-74123079D01*
X137485688Y-73814015D01*
X137485689Y-73814004D01*
X137505444Y-73500005D01*
X137505444Y-73499994D01*
X137485689Y-73185995D01*
X137485688Y-73185988D01*
X137485688Y-73185985D01*
X137426731Y-72876921D01*
X137329503Y-72577685D01*
X137195537Y-72292993D01*
X137026947Y-72027337D01*
X136965905Y-71953550D01*
X136826393Y-71784909D01*
X136826391Y-71784907D01*
X136597031Y-71569523D01*
X136597021Y-71569515D01*
X136342495Y-71384591D01*
X136342488Y-71384586D01*
X136342484Y-71384584D01*
X136066766Y-71233006D01*
X136066763Y-71233004D01*
X136066758Y-71233002D01*
X136066757Y-71233001D01*
X135774228Y-71117181D01*
X135774225Y-71117180D01*
X135469476Y-71038934D01*
X135469463Y-71038932D01*
X135157329Y-70999500D01*
X135157318Y-70999500D01*
X134842682Y-70999500D01*
X134842670Y-70999500D01*
X134530536Y-71038932D01*
X134530523Y-71038934D01*
X134225774Y-71117180D01*
X134225771Y-71117181D01*
X133933242Y-71233001D01*
X133933241Y-71233002D01*
X133657516Y-71384584D01*
X133657504Y-71384591D01*
X133402978Y-71569515D01*
X133402968Y-71569523D01*
X133173608Y-71784907D01*
X133173606Y-71784909D01*
X132973054Y-72027334D01*
X132973051Y-72027338D01*
X132804464Y-72292990D01*
X132804461Y-72292996D01*
X132670499Y-72577678D01*
X132670497Y-72577683D01*
X132573270Y-72876916D01*
X132514311Y-73185988D01*
X132514310Y-73185995D01*
X132494556Y-73499994D01*
X132494556Y-73500005D01*
X125500500Y-73500005D01*
X125500500Y-63000000D01*
X127994659Y-63000000D01*
X128013975Y-63196129D01*
X128071188Y-63384733D01*
X128164086Y-63558532D01*
X128164090Y-63558539D01*
X128289116Y-63710883D01*
X128441460Y-63835909D01*
X128441467Y-63835913D01*
X128615266Y-63928811D01*
X128615269Y-63928811D01*
X128615273Y-63928814D01*
X128803868Y-63986024D01*
X129000000Y-64005341D01*
X129196132Y-63986024D01*
X129384727Y-63928814D01*
X129558538Y-63835910D01*
X129710883Y-63710883D01*
X129835910Y-63558538D01*
X129896744Y-63444726D01*
X129928811Y-63384733D01*
X129928811Y-63384732D01*
X129928814Y-63384727D01*
X129986024Y-63196132D01*
X130005341Y-63000000D01*
X129986024Y-62803868D01*
X129928814Y-62615273D01*
X129928811Y-62615269D01*
X129928811Y-62615266D01*
X129835913Y-62441467D01*
X129835909Y-62441460D01*
X129710883Y-62289116D01*
X129558539Y-62164090D01*
X129558532Y-62164086D01*
X129453364Y-62107873D01*
X129403520Y-62058911D01*
X129388059Y-61990774D01*
X129411890Y-61925094D01*
X129424130Y-61910840D01*
X132073206Y-59261763D01*
X132134527Y-59228280D01*
X132204219Y-59233264D01*
X132260152Y-59275136D01*
X132284569Y-59340600D01*
X132284356Y-59360887D01*
X132265906Y-59559999D01*
X132265906Y-59560000D01*
X132286237Y-59779413D01*
X132286238Y-59779415D01*
X132346539Y-59991352D01*
X132346545Y-59991367D01*
X132444762Y-60188612D01*
X132458991Y-60207454D01*
X132458992Y-60207454D01*
X133030109Y-59636336D01*
X133054644Y-59727904D01*
X133111913Y-59827097D01*
X133192903Y-59908087D01*
X133292096Y-59965356D01*
X133383662Y-59989890D01*
X132814661Y-60558889D01*
X132814662Y-60558890D01*
X132927743Y-60628907D01*
X132927749Y-60628910D01*
X133133218Y-60708508D01*
X133349825Y-60749000D01*
X133570175Y-60749000D01*
X133786781Y-60708508D01*
X133992252Y-60628909D01*
X133992253Y-60628908D01*
X134105337Y-60558889D01*
X133536338Y-59989890D01*
X133627904Y-59965356D01*
X133727097Y-59908087D01*
X133808087Y-59827097D01*
X133865356Y-59727904D01*
X133889890Y-59636337D01*
X134461006Y-60207454D01*
X134475237Y-60188609D01*
X134475239Y-60188606D01*
X134573454Y-59991367D01*
X134573460Y-59991352D01*
X134633761Y-59779415D01*
X134633762Y-59779413D01*
X134654094Y-59560000D01*
X134654094Y-59559999D01*
X134633762Y-59340586D01*
X134633761Y-59340584D01*
X134573460Y-59128647D01*
X134573454Y-59128632D01*
X134475242Y-58931396D01*
X134475237Y-58931388D01*
X134461006Y-58912544D01*
X133889890Y-59483661D01*
X133865356Y-59392096D01*
X133808087Y-59292903D01*
X133727097Y-59211913D01*
X133627904Y-59154644D01*
X133536336Y-59130109D01*
X134105337Y-58561109D01*
X134105336Y-58561108D01*
X133992256Y-58491093D01*
X133992244Y-58491087D01*
X133904616Y-58457139D01*
X133849215Y-58414566D01*
X133825625Y-58348799D01*
X133841337Y-58280719D01*
X133891361Y-58231940D01*
X133898960Y-58228241D01*
X133907200Y-58224573D01*
X134058470Y-58114669D01*
X134183585Y-57975715D01*
X134277075Y-57813785D01*
X134334855Y-57635956D01*
X134354400Y-57450000D01*
X134805906Y-57450000D01*
X134826237Y-57669413D01*
X134826238Y-57669415D01*
X134886539Y-57881352D01*
X134886545Y-57881367D01*
X134984762Y-58078612D01*
X134998991Y-58097454D01*
X134998992Y-58097454D01*
X135570109Y-57526337D01*
X135594644Y-57617904D01*
X135651913Y-57717097D01*
X135732903Y-57798087D01*
X135832096Y-57855356D01*
X135923662Y-57879890D01*
X135354661Y-58448889D01*
X135355420Y-58455431D01*
X135389825Y-58493813D01*
X135400929Y-58562795D01*
X135372976Y-58626829D01*
X135314842Y-58665586D01*
X135297197Y-58669169D01*
X135297226Y-58669311D01*
X135232770Y-58682131D01*
X135232769Y-58682132D01*
X135166447Y-58726447D01*
X135122132Y-58792769D01*
X135122131Y-58792770D01*
X135110500Y-58851247D01*
X135110500Y-60268752D01*
X135122131Y-60327229D01*
X135122132Y-60327230D01*
X135166447Y-60393552D01*
X135232769Y-60437867D01*
X135232770Y-60437868D01*
X135291247Y-60449499D01*
X135291250Y-60449500D01*
X135291252Y-60449500D01*
X136413167Y-60449500D01*
X136480206Y-60469185D01*
X136500848Y-60485819D01*
X139259540Y-63244511D01*
X139315489Y-63300460D01*
X139315491Y-63300461D01*
X139315495Y-63300464D01*
X139384004Y-63340017D01*
X139384011Y-63340021D01*
X139460438Y-63360500D01*
X139703672Y-63360500D01*
X139770711Y-63380185D01*
X139816466Y-63432989D01*
X139818787Y-63439131D01*
X139818856Y-63439103D01*
X139821185Y-63444726D01*
X139914086Y-63618532D01*
X139914090Y-63618539D01*
X140039116Y-63770883D01*
X140191460Y-63895909D01*
X140191467Y-63895913D01*
X140365266Y-63988811D01*
X140365269Y-63988811D01*
X140365273Y-63988814D01*
X140553868Y-64046024D01*
X140750000Y-64065341D01*
X140946132Y-64046024D01*
X141134727Y-63988814D01*
X141308538Y-63895910D01*
X141460883Y-63770883D01*
X141585910Y-63618538D01*
X141678814Y-63444727D01*
X141736024Y-63256132D01*
X141755341Y-63060000D01*
X141736024Y-62863868D01*
X141678814Y-62675273D01*
X141678811Y-62675269D01*
X141678811Y-62675266D01*
X141585913Y-62501467D01*
X141585909Y-62501460D01*
X141460883Y-62349116D01*
X141308539Y-62224090D01*
X141308532Y-62224086D01*
X141134733Y-62131188D01*
X141134727Y-62131186D01*
X140946132Y-62073976D01*
X140946129Y-62073975D01*
X140750000Y-62054659D01*
X140553870Y-62073975D01*
X140365266Y-62131188D01*
X140191467Y-62224086D01*
X140191460Y-62224090D01*
X140039116Y-62349116D01*
X139914090Y-62501460D01*
X139914086Y-62501467D01*
X139821185Y-62675273D01*
X139818856Y-62680897D01*
X139816739Y-62680020D01*
X139784055Y-62729917D01*
X139720249Y-62758387D01*
X139703672Y-62759500D01*
X139675833Y-62759500D01*
X139608794Y-62739815D01*
X139588152Y-62723181D01*
X136925819Y-60060848D01*
X136892334Y-59999525D01*
X136889500Y-59973167D01*
X136889500Y-58851249D01*
X136889499Y-58851247D01*
X136877868Y-58792770D01*
X136877867Y-58792769D01*
X136833552Y-58726447D01*
X136767230Y-58682132D01*
X136767229Y-58682131D01*
X136702774Y-58669311D01*
X136703065Y-58667846D01*
X136645136Y-58644448D01*
X136604782Y-58587410D01*
X136601672Y-58517609D01*
X136636792Y-58457208D01*
X136645116Y-58450794D01*
X136645337Y-58448889D01*
X136076338Y-57879890D01*
X136167904Y-57855356D01*
X136267097Y-57798087D01*
X136348087Y-57717097D01*
X136405356Y-57617904D01*
X136429890Y-57526338D01*
X137001006Y-58097454D01*
X137015237Y-58078609D01*
X137015239Y-58078606D01*
X137113454Y-57881367D01*
X137113460Y-57881352D01*
X137173761Y-57669415D01*
X137173762Y-57669413D01*
X137194094Y-57450000D01*
X137194094Y-57449999D01*
X137173762Y-57230586D01*
X137173761Y-57230584D01*
X137113460Y-57018647D01*
X137113454Y-57018632D01*
X137015242Y-56821396D01*
X137015237Y-56821388D01*
X137001006Y-56802544D01*
X136429890Y-57373661D01*
X136405356Y-57282096D01*
X136348087Y-57182903D01*
X136267097Y-57101913D01*
X136167904Y-57044644D01*
X136076338Y-57020109D01*
X136645337Y-56451109D01*
X136645336Y-56451108D01*
X136532256Y-56381093D01*
X136532250Y-56381089D01*
X136326781Y-56301491D01*
X136110175Y-56261000D01*
X135889825Y-56261000D01*
X135673218Y-56301491D01*
X135467748Y-56381090D01*
X135354661Y-56451109D01*
X135923662Y-57020109D01*
X135832096Y-57044644D01*
X135732903Y-57101913D01*
X135651913Y-57182903D01*
X135594644Y-57282096D01*
X135570109Y-57373662D01*
X134998992Y-56802545D01*
X134998991Y-56802545D01*
X134984761Y-56821390D01*
X134886545Y-57018632D01*
X134886539Y-57018647D01*
X134826238Y-57230584D01*
X134826237Y-57230586D01*
X134805906Y-57449999D01*
X134805906Y-57450000D01*
X134354400Y-57450000D01*
X134334855Y-57264044D01*
X134277075Y-57086215D01*
X134235959Y-57015000D01*
X134183586Y-56924286D01*
X134058469Y-56785330D01*
X133907204Y-56675429D01*
X133907201Y-56675427D01*
X133907200Y-56675427D01*
X133861698Y-56655168D01*
X133736390Y-56599376D01*
X133736384Y-56599374D01*
X133576265Y-56565341D01*
X133553490Y-56560500D01*
X133366510Y-56560500D01*
X133343735Y-56565341D01*
X133183615Y-56599374D01*
X133183609Y-56599376D01*
X133012800Y-56675427D01*
X133012795Y-56675429D01*
X132861530Y-56785330D01*
X132736413Y-56924286D01*
X132642925Y-57086213D01*
X132585146Y-57264039D01*
X132585145Y-57264041D01*
X132565600Y-57450000D01*
X132585145Y-57635958D01*
X132585146Y-57635960D01*
X132626388Y-57762890D01*
X132628383Y-57832731D01*
X132596138Y-57888889D01*
X128815489Y-61669540D01*
X128759541Y-61725487D01*
X128759535Y-61725495D01*
X128719982Y-61794004D01*
X128719979Y-61794009D01*
X128699500Y-61870439D01*
X128699500Y-61953671D01*
X128679815Y-62020710D01*
X128627011Y-62066465D01*
X128620871Y-62068786D01*
X128620900Y-62068855D01*
X128615269Y-62071187D01*
X128441467Y-62164086D01*
X128441460Y-62164090D01*
X128289116Y-62289116D01*
X128164090Y-62441460D01*
X128164086Y-62441467D01*
X128071188Y-62615266D01*
X128013975Y-62803870D01*
X127994659Y-63000000D01*
X125500500Y-63000000D01*
X125500500Y-55380000D01*
X127994659Y-55380000D01*
X128013975Y-55576129D01*
X128013976Y-55576132D01*
X128045973Y-55681613D01*
X128071188Y-55764733D01*
X128164086Y-55938532D01*
X128164090Y-55938539D01*
X128289116Y-56090883D01*
X128441460Y-56215909D01*
X128441467Y-56215913D01*
X128615266Y-56308811D01*
X128615269Y-56308811D01*
X128615273Y-56308814D01*
X128803868Y-56366024D01*
X129000000Y-56385341D01*
X129196132Y-56366024D01*
X129384727Y-56308814D01*
X129398428Y-56301491D01*
X129497495Y-56248538D01*
X129558538Y-56215910D01*
X129710883Y-56090883D01*
X129835910Y-55938538D01*
X129928814Y-55764727D01*
X129928815Y-55764723D01*
X129931144Y-55759103D01*
X129933260Y-55759979D01*
X129965945Y-55710083D01*
X130029751Y-55681613D01*
X130046328Y-55680500D01*
X139685470Y-55680500D01*
X139752509Y-55700185D01*
X139798264Y-55752989D01*
X139804130Y-55768503D01*
X139821186Y-55824729D01*
X139914086Y-55998532D01*
X139914090Y-55998539D01*
X140039116Y-56150883D01*
X140191460Y-56275909D01*
X140191467Y-56275913D01*
X140365266Y-56368811D01*
X140365269Y-56368811D01*
X140365273Y-56368814D01*
X140553868Y-56426024D01*
X140750000Y-56445341D01*
X140946132Y-56426024D01*
X141134727Y-56368814D01*
X141134732Y-56368811D01*
X141134736Y-56368810D01*
X141140355Y-56366483D01*
X141141232Y-56368602D01*
X141199609Y-56356429D01*
X141264861Y-56381408D01*
X141277380Y-56392351D01*
X145163181Y-60278152D01*
X145196666Y-60339475D01*
X145199500Y-60365833D01*
X145199500Y-74029563D01*
X145179815Y-74096602D01*
X145127011Y-74142357D01*
X145122953Y-74144124D01*
X145002404Y-74194057D01*
X144830342Y-74309024D01*
X144684024Y-74455342D01*
X144569057Y-74627404D01*
X144523251Y-74737990D01*
X144479409Y-74792394D01*
X144413115Y-74814458D01*
X144345416Y-74797178D01*
X144297806Y-74746041D01*
X144290759Y-74728855D01*
X144251095Y-74606782D01*
X144154620Y-74417442D01*
X144029727Y-74245540D01*
X144029723Y-74245535D01*
X143879464Y-74095276D01*
X143879459Y-74095272D01*
X143707557Y-73970379D01*
X143518215Y-73873903D01*
X143316124Y-73808241D01*
X143250000Y-73797768D01*
X143250000Y-74845854D01*
X143183343Y-74807370D01*
X143062535Y-74775000D01*
X142937465Y-74775000D01*
X142816657Y-74807370D01*
X142750000Y-74845854D01*
X142750000Y-73797768D01*
X142749999Y-73797768D01*
X142683875Y-73808241D01*
X142481784Y-73873903D01*
X142292442Y-73970379D01*
X142120540Y-74095272D01*
X142120535Y-74095276D01*
X141970276Y-74245535D01*
X141970272Y-74245540D01*
X141845379Y-74417442D01*
X141748904Y-74606782D01*
X141683242Y-74808869D01*
X141683242Y-74808872D01*
X141652970Y-75000000D01*
X142595854Y-75000000D01*
X142557370Y-75066657D01*
X142525000Y-75187465D01*
X142525000Y-75312535D01*
X142557370Y-75433343D01*
X142595854Y-75500000D01*
X141652970Y-75500000D01*
X141683242Y-75691127D01*
X141683242Y-75691130D01*
X141748904Y-75893217D01*
X141845379Y-76082557D01*
X141970272Y-76254459D01*
X141970276Y-76254464D01*
X142120535Y-76404723D01*
X142120540Y-76404727D01*
X142292442Y-76529620D01*
X142481782Y-76626095D01*
X142683871Y-76691757D01*
X142750000Y-76702231D01*
X142750000Y-75654145D01*
X142816657Y-75692630D01*
X142937465Y-75725000D01*
X143062535Y-75725000D01*
X143183343Y-75692630D01*
X143250000Y-75654145D01*
X143250000Y-76702230D01*
X143316126Y-76691757D01*
X143316129Y-76691757D01*
X143518217Y-76626095D01*
X143707557Y-76529620D01*
X143879459Y-76404727D01*
X143879464Y-76404723D01*
X144029723Y-76254464D01*
X144029727Y-76254459D01*
X144154620Y-76082557D01*
X144251095Y-75893217D01*
X144290759Y-75771144D01*
X144330196Y-75713469D01*
X144394555Y-75686270D01*
X144463401Y-75698184D01*
X144514877Y-75745428D01*
X144523251Y-75762009D01*
X144569057Y-75872596D01*
X144684024Y-76044657D01*
X144830342Y-76190975D01*
X144830345Y-76190977D01*
X145002402Y-76305941D01*
X145193580Y-76385130D01*
X145382187Y-76422646D01*
X145396530Y-76425499D01*
X145396534Y-76425500D01*
X145396535Y-76425500D01*
X145603466Y-76425500D01*
X145603467Y-76425499D01*
X145806420Y-76385130D01*
X145997598Y-76305941D01*
X146169655Y-76190977D01*
X146315977Y-76044655D01*
X146430941Y-75872598D01*
X146510130Y-75681420D01*
X146550500Y-75478465D01*
X146550500Y-75021535D01*
X146510130Y-74818580D01*
X146430941Y-74627402D01*
X146315977Y-74455345D01*
X146315975Y-74455342D01*
X146169657Y-74309024D01*
X145997595Y-74194057D01*
X145877047Y-74144124D01*
X145822643Y-74100282D01*
X145800579Y-74033988D01*
X145800500Y-74029563D01*
X145800500Y-60150439D01*
X145780020Y-60074009D01*
X145780017Y-60074004D01*
X145740464Y-60005495D01*
X145740458Y-60005487D01*
X141702351Y-55967380D01*
X141668866Y-55906057D01*
X141673850Y-55836365D01*
X141676550Y-55830383D01*
X141676483Y-55830355D01*
X141678810Y-55824736D01*
X141678811Y-55824732D01*
X141678814Y-55824727D01*
X141736024Y-55636132D01*
X141755341Y-55440000D01*
X141736024Y-55243868D01*
X141678814Y-55055273D01*
X141678811Y-55055269D01*
X141678811Y-55055266D01*
X141585913Y-54881467D01*
X141585909Y-54881460D01*
X141460883Y-54729116D01*
X141308539Y-54604090D01*
X141308532Y-54604086D01*
X141134733Y-54511188D01*
X141134727Y-54511186D01*
X140946132Y-54453976D01*
X140946129Y-54453975D01*
X140750000Y-54434659D01*
X140553870Y-54453975D01*
X140365266Y-54511188D01*
X140191467Y-54604086D01*
X140191460Y-54604090D01*
X140039116Y-54729116D01*
X139914090Y-54881460D01*
X139914085Y-54881467D01*
X139843271Y-55013953D01*
X139794309Y-55063798D01*
X139733913Y-55079500D01*
X130046328Y-55079500D01*
X129979289Y-55059815D01*
X129933534Y-55007011D01*
X129931212Y-55000868D01*
X129931144Y-55000897D01*
X129928814Y-54995273D01*
X129835913Y-54821467D01*
X129835909Y-54821460D01*
X129710883Y-54669116D01*
X129558539Y-54544090D01*
X129558532Y-54544086D01*
X129384733Y-54451188D01*
X129384727Y-54451186D01*
X129196132Y-54393976D01*
X129196129Y-54393975D01*
X129000000Y-54374659D01*
X128803870Y-54393975D01*
X128615266Y-54451188D01*
X128441467Y-54544086D01*
X128441460Y-54544090D01*
X128289116Y-54669116D01*
X128164090Y-54821460D01*
X128164086Y-54821467D01*
X128071188Y-54995266D01*
X128013975Y-55183870D01*
X127994659Y-55380000D01*
X125500500Y-55380000D01*
X125500500Y-50869752D01*
X127959500Y-50869752D01*
X127971131Y-50928229D01*
X127971132Y-50928230D01*
X128015447Y-50994552D01*
X128081769Y-51038867D01*
X128081770Y-51038868D01*
X128140247Y-51050499D01*
X128140250Y-51050500D01*
X128140252Y-51050500D01*
X129879750Y-51050500D01*
X129879751Y-51050499D01*
X129894568Y-51047552D01*
X129938229Y-51038868D01*
X129938229Y-51038867D01*
X129938231Y-51038867D01*
X130004552Y-50994552D01*
X130048867Y-50928231D01*
X130048867Y-50928229D01*
X130048868Y-50928229D01*
X130058922Y-50877682D01*
X130060500Y-50869748D01*
X130060500Y-50559456D01*
X130080185Y-50492417D01*
X130132989Y-50446662D01*
X130202147Y-50436718D01*
X130265703Y-50465743D01*
X130296882Y-50507051D01*
X130376400Y-50677578D01*
X130511894Y-50871082D01*
X130678917Y-51038105D01*
X130872421Y-51173600D01*
X131086507Y-51273429D01*
X131086516Y-51273433D01*
X131300000Y-51330634D01*
X131300000Y-50433012D01*
X131357007Y-50465925D01*
X131484174Y-50500000D01*
X131615826Y-50500000D01*
X131742993Y-50465925D01*
X131800000Y-50433012D01*
X131800000Y-51330633D01*
X132013483Y-51273433D01*
X132013492Y-51273429D01*
X132227578Y-51173600D01*
X132421082Y-51038105D01*
X132588105Y-50871082D01*
X132723600Y-50677578D01*
X132823429Y-50463492D01*
X132823433Y-50463483D01*
X132856158Y-50341350D01*
X132892522Y-50281690D01*
X132955369Y-50251160D01*
X133024745Y-50259454D01*
X133078623Y-50303939D01*
X133094593Y-50337447D01*
X133114768Y-50403954D01*
X133212315Y-50586450D01*
X133212317Y-50586452D01*
X133343589Y-50746410D01*
X133440209Y-50825702D01*
X133503550Y-50877685D01*
X133686046Y-50975232D01*
X133884066Y-51035300D01*
X133884065Y-51035300D01*
X133902529Y-51037118D01*
X134090000Y-51055583D01*
X134295934Y-51035300D01*
X134493954Y-50975232D01*
X134676450Y-50877685D01*
X134836410Y-50746410D01*
X134967685Y-50586450D01*
X135065232Y-50403954D01*
X135125300Y-50205934D01*
X135145583Y-50000000D01*
X135574417Y-50000000D01*
X135594699Y-50205932D01*
X135594700Y-50205934D01*
X135654768Y-50403954D01*
X135752315Y-50586450D01*
X135752317Y-50586452D01*
X135883589Y-50746410D01*
X135980209Y-50825702D01*
X136043550Y-50877685D01*
X136226046Y-50975232D01*
X136424066Y-51035300D01*
X136424065Y-51035300D01*
X136442529Y-51037118D01*
X136630000Y-51055583D01*
X136835934Y-51035300D01*
X137033954Y-50975232D01*
X137048191Y-50967621D01*
X137116592Y-50953379D01*
X137181837Y-50978377D01*
X137194327Y-50989298D01*
X138889540Y-52684511D01*
X138945489Y-52740460D01*
X138945491Y-52740461D01*
X138945495Y-52740464D01*
X139014004Y-52780017D01*
X139014011Y-52780021D01*
X139090438Y-52800500D01*
X142574167Y-52800500D01*
X142641206Y-52820185D01*
X142661848Y-52836819D01*
X146913181Y-57088152D01*
X146946666Y-57149475D01*
X146949500Y-57175833D01*
X146949500Y-68039562D01*
X146963152Y-68090513D01*
X146969979Y-68115990D01*
X146969980Y-68115991D01*
X147004640Y-68176024D01*
X147009540Y-68184511D01*
X147009542Y-68184513D01*
X147663181Y-68838152D01*
X147696666Y-68899475D01*
X147699500Y-68925833D01*
X147699500Y-74029563D01*
X147679815Y-74096602D01*
X147627011Y-74142357D01*
X147622953Y-74144124D01*
X147502404Y-74194057D01*
X147330342Y-74309024D01*
X147184024Y-74455342D01*
X147069058Y-74627403D01*
X146989870Y-74818579D01*
X146989868Y-74818587D01*
X146949500Y-75021530D01*
X146949500Y-75478469D01*
X146989868Y-75681412D01*
X146989870Y-75681420D01*
X147013643Y-75738814D01*
X147069059Y-75872598D01*
X147118193Y-75946132D01*
X147184024Y-76044657D01*
X147330342Y-76190975D01*
X147330345Y-76190977D01*
X147502402Y-76305941D01*
X147693580Y-76385130D01*
X147882187Y-76422646D01*
X147896530Y-76425499D01*
X147896534Y-76425500D01*
X147896535Y-76425500D01*
X148103466Y-76425500D01*
X148103467Y-76425499D01*
X148306420Y-76385130D01*
X148497598Y-76305941D01*
X148669655Y-76190977D01*
X148815977Y-76044655D01*
X148826258Y-76029269D01*
X149449500Y-76029269D01*
X149452353Y-76059699D01*
X149452353Y-76059701D01*
X149497206Y-76187880D01*
X149497207Y-76187882D01*
X149577850Y-76297150D01*
X149687118Y-76377793D01*
X149708089Y-76385131D01*
X149815299Y-76422646D01*
X149845730Y-76425500D01*
X149845734Y-76425500D01*
X151154270Y-76425500D01*
X151184699Y-76422646D01*
X151184701Y-76422646D01*
X151248790Y-76400219D01*
X151312882Y-76377793D01*
X151422150Y-76297150D01*
X151502793Y-76187882D01*
X151527209Y-76118105D01*
X151547646Y-76059701D01*
X151547646Y-76059699D01*
X151550500Y-76029269D01*
X151550500Y-74810000D01*
X157994659Y-74810000D01*
X158013975Y-75006129D01*
X158071188Y-75194733D01*
X158164086Y-75368532D01*
X158164090Y-75368539D01*
X158289116Y-75520883D01*
X158441460Y-75645909D01*
X158441467Y-75645913D01*
X158615266Y-75738811D01*
X158615269Y-75738811D01*
X158615273Y-75738814D01*
X158803868Y-75796024D01*
X159000000Y-75815341D01*
X159196132Y-75796024D01*
X159384727Y-75738814D01*
X159558538Y-75645910D01*
X159710883Y-75520883D01*
X159835910Y-75368538D01*
X159856509Y-75330000D01*
X165669364Y-75330000D01*
X165726567Y-75543486D01*
X165726570Y-75543492D01*
X165826399Y-75757578D01*
X165961894Y-75951082D01*
X166128917Y-76118105D01*
X166322421Y-76253600D01*
X166536507Y-76353429D01*
X166536516Y-76353433D01*
X166750000Y-76410634D01*
X166750000Y-75513012D01*
X166807007Y-75545925D01*
X166934174Y-75580000D01*
X167065826Y-75580000D01*
X167192993Y-75545925D01*
X167250000Y-75513012D01*
X167250000Y-76410633D01*
X167463483Y-76353433D01*
X167463492Y-76353429D01*
X167677578Y-76253600D01*
X167871082Y-76118105D01*
X168038105Y-75951082D01*
X168173600Y-75757578D01*
X168273429Y-75543492D01*
X168273432Y-75543486D01*
X168330636Y-75330000D01*
X167433012Y-75330000D01*
X167465925Y-75272993D01*
X167500000Y-75145826D01*
X167500000Y-75080000D01*
X173944417Y-75080000D01*
X173964699Y-75285932D01*
X173989757Y-75368538D01*
X174024768Y-75483954D01*
X174122315Y-75666450D01*
X174138581Y-75686270D01*
X174253589Y-75826410D01*
X174322325Y-75882819D01*
X174413550Y-75957685D01*
X174596046Y-76055232D01*
X174794066Y-76115300D01*
X174794065Y-76115300D01*
X174812529Y-76117118D01*
X175000000Y-76135583D01*
X175205934Y-76115300D01*
X175403954Y-76055232D01*
X175586450Y-75957685D01*
X175746410Y-75826410D01*
X175809118Y-75750000D01*
X182244659Y-75750000D01*
X182263975Y-75946129D01*
X182280468Y-76000499D01*
X182289195Y-76029269D01*
X182321188Y-76134733D01*
X182414086Y-76308532D01*
X182414090Y-76308539D01*
X182539116Y-76460883D01*
X182691460Y-76585909D01*
X182691467Y-76585913D01*
X182865266Y-76678811D01*
X182865269Y-76678811D01*
X182865273Y-76678814D01*
X183053868Y-76736024D01*
X183250000Y-76755341D01*
X183446132Y-76736024D01*
X183634727Y-76678814D01*
X183808538Y-76585910D01*
X183960883Y-76460883D01*
X184085910Y-76308538D01*
X184150403Y-76187880D01*
X184178811Y-76134733D01*
X184178811Y-76134732D01*
X184178814Y-76134727D01*
X184236024Y-75946132D01*
X184249432Y-75810000D01*
X185994659Y-75810000D01*
X186013975Y-76006129D01*
X186013976Y-76006132D01*
X186070048Y-76190977D01*
X186071188Y-76194733D01*
X186164086Y-76368532D01*
X186164090Y-76368539D01*
X186289116Y-76520883D01*
X186441460Y-76645909D01*
X186441467Y-76645913D01*
X186615266Y-76738811D01*
X186615269Y-76738811D01*
X186615273Y-76738814D01*
X186803868Y-76796024D01*
X187000000Y-76815341D01*
X187196132Y-76796024D01*
X187384727Y-76738814D01*
X187558538Y-76645910D01*
X187710883Y-76520883D01*
X187835910Y-76368538D01*
X187928814Y-76194727D01*
X187986024Y-76006132D01*
X188005341Y-75810000D01*
X187986024Y-75613868D01*
X187928814Y-75425273D01*
X187928811Y-75425269D01*
X187928811Y-75425266D01*
X187835913Y-75251467D01*
X187835909Y-75251460D01*
X187710883Y-75099116D01*
X187558539Y-74974090D01*
X187558532Y-74974086D01*
X187384733Y-74881188D01*
X187384727Y-74881186D01*
X187258997Y-74843046D01*
X187196129Y-74823975D01*
X187000000Y-74804659D01*
X186803870Y-74823975D01*
X186615266Y-74881188D01*
X186441467Y-74974086D01*
X186441460Y-74974090D01*
X186289116Y-75099116D01*
X186164090Y-75251460D01*
X186164086Y-75251467D01*
X186071188Y-75425266D01*
X186013975Y-75613870D01*
X185994659Y-75810000D01*
X184249432Y-75810000D01*
X184255341Y-75750000D01*
X184236024Y-75553868D01*
X184178814Y-75365273D01*
X184178811Y-75365269D01*
X184178811Y-75365266D01*
X184085913Y-75191467D01*
X184085909Y-75191460D01*
X183960883Y-75039116D01*
X183808539Y-74914090D01*
X183808532Y-74914086D01*
X183634733Y-74821188D01*
X183634727Y-74821186D01*
X183446132Y-74763976D01*
X183446129Y-74763975D01*
X183250000Y-74744659D01*
X183053870Y-74763975D01*
X182865266Y-74821188D01*
X182691467Y-74914086D01*
X182691460Y-74914090D01*
X182539116Y-75039116D01*
X182414090Y-75191460D01*
X182414086Y-75191467D01*
X182321188Y-75365266D01*
X182263975Y-75553870D01*
X182244659Y-75750000D01*
X175809118Y-75750000D01*
X175877685Y-75666450D01*
X175975232Y-75483954D01*
X176035300Y-75285934D01*
X176055583Y-75080000D01*
X176035300Y-74874066D01*
X175975232Y-74676046D01*
X175877685Y-74493550D01*
X175768378Y-74360358D01*
X175746410Y-74333589D01*
X175600302Y-74213683D01*
X175586450Y-74202315D01*
X175403954Y-74104768D01*
X175205934Y-74044700D01*
X175205932Y-74044699D01*
X175205934Y-74044699D01*
X175000000Y-74024417D01*
X174794067Y-74044699D01*
X174596043Y-74104769D01*
X174485898Y-74163643D01*
X174413550Y-74202315D01*
X174413548Y-74202316D01*
X174413547Y-74202317D01*
X174253589Y-74333589D01*
X174122317Y-74493547D01*
X174024769Y-74676043D01*
X173964699Y-74874067D01*
X173944417Y-75080000D01*
X167500000Y-75080000D01*
X167500000Y-75014174D01*
X167465925Y-74887007D01*
X167433012Y-74830000D01*
X168330636Y-74830000D01*
X168330635Y-74829999D01*
X168273432Y-74616513D01*
X168273429Y-74616507D01*
X168173600Y-74402422D01*
X168173599Y-74402420D01*
X168038113Y-74208926D01*
X168038108Y-74208920D01*
X167871082Y-74041894D01*
X167677578Y-73906399D01*
X167463492Y-73806570D01*
X167463486Y-73806567D01*
X167341349Y-73773841D01*
X167281689Y-73737476D01*
X167251160Y-73674629D01*
X167259455Y-73605253D01*
X167303940Y-73551375D01*
X167337444Y-73535407D01*
X167403954Y-73515232D01*
X167586450Y-73417685D01*
X167746410Y-73286410D01*
X167877685Y-73126450D01*
X167975232Y-72943954D01*
X168035300Y-72745934D01*
X168055583Y-72540000D01*
X173944417Y-72540000D01*
X173964699Y-72745932D01*
X173964700Y-72745934D01*
X174024768Y-72943954D01*
X174122315Y-73126450D01*
X174122317Y-73126452D01*
X174253589Y-73286410D01*
X174350209Y-73365702D01*
X174413550Y-73417685D01*
X174596046Y-73515232D01*
X174794066Y-73575300D01*
X174794065Y-73575300D01*
X174812529Y-73577118D01*
X175000000Y-73595583D01*
X175205934Y-73575300D01*
X175403954Y-73515232D01*
X175432441Y-73500005D01*
X192494556Y-73500005D01*
X192514310Y-73814004D01*
X192514311Y-73814011D01*
X192527570Y-73883518D01*
X192573102Y-74122206D01*
X192573270Y-74123083D01*
X192670497Y-74422316D01*
X192670499Y-74422321D01*
X192804461Y-74707003D01*
X192804464Y-74707009D01*
X192973051Y-74972661D01*
X192973054Y-74972665D01*
X193173606Y-75215090D01*
X193173608Y-75215092D01*
X193173610Y-75215094D01*
X193337005Y-75368532D01*
X193402968Y-75430476D01*
X193402978Y-75430484D01*
X193657504Y-75615408D01*
X193657509Y-75615410D01*
X193657516Y-75615416D01*
X193933234Y-75766994D01*
X193933239Y-75766996D01*
X193933241Y-75766997D01*
X193933242Y-75766998D01*
X194225771Y-75882818D01*
X194225774Y-75882819D01*
X194472351Y-75946129D01*
X194530527Y-75961066D01*
X194596010Y-75969338D01*
X194842670Y-76000499D01*
X194842679Y-76000499D01*
X194842682Y-76000500D01*
X194842684Y-76000500D01*
X195157316Y-76000500D01*
X195157318Y-76000500D01*
X195157321Y-76000499D01*
X195157329Y-76000499D01*
X195343593Y-75976968D01*
X195469473Y-75961066D01*
X195774225Y-75882819D01*
X195774228Y-75882818D01*
X196066757Y-75766998D01*
X196066758Y-75766997D01*
X196066756Y-75766997D01*
X196066766Y-75766994D01*
X196342484Y-75615416D01*
X196597030Y-75430478D01*
X196826390Y-75215094D01*
X197026947Y-74972663D01*
X197195537Y-74707007D01*
X197329503Y-74422315D01*
X197426731Y-74123079D01*
X197485688Y-73814015D01*
X197485689Y-73814004D01*
X197505444Y-73500005D01*
X197505444Y-73499994D01*
X197485689Y-73185995D01*
X197485688Y-73185988D01*
X197485688Y-73185985D01*
X197426731Y-72876921D01*
X197329503Y-72577685D01*
X197195537Y-72292993D01*
X197026947Y-72027337D01*
X196965905Y-71953550D01*
X196826393Y-71784909D01*
X196826391Y-71784907D01*
X196597031Y-71569523D01*
X196597021Y-71569515D01*
X196342495Y-71384591D01*
X196342488Y-71384586D01*
X196342484Y-71384584D01*
X196066766Y-71233006D01*
X196066763Y-71233004D01*
X196066758Y-71233002D01*
X196066757Y-71233001D01*
X195774228Y-71117181D01*
X195774225Y-71117180D01*
X195469476Y-71038934D01*
X195469463Y-71038932D01*
X195157329Y-70999500D01*
X195157318Y-70999500D01*
X194842682Y-70999500D01*
X194842670Y-70999500D01*
X194530536Y-71038932D01*
X194530523Y-71038934D01*
X194225774Y-71117180D01*
X194225771Y-71117181D01*
X193933242Y-71233001D01*
X193933241Y-71233002D01*
X193657516Y-71384584D01*
X193657504Y-71384591D01*
X193402978Y-71569515D01*
X193402968Y-71569523D01*
X193173608Y-71784907D01*
X193173606Y-71784909D01*
X192973054Y-72027334D01*
X192973051Y-72027338D01*
X192804464Y-72292990D01*
X192804461Y-72292996D01*
X192670499Y-72577678D01*
X192670497Y-72577683D01*
X192573270Y-72876916D01*
X192514311Y-73185988D01*
X192514310Y-73185995D01*
X192494556Y-73499994D01*
X192494556Y-73500005D01*
X175432441Y-73500005D01*
X175586450Y-73417685D01*
X175746410Y-73286410D01*
X175877685Y-73126450D01*
X175975232Y-72943954D01*
X176035300Y-72745934D01*
X176055583Y-72540000D01*
X176035300Y-72334066D01*
X175975232Y-72136046D01*
X175877685Y-71953550D01*
X175825702Y-71890209D01*
X175746410Y-71793589D01*
X175586452Y-71662317D01*
X175586453Y-71662317D01*
X175586450Y-71662315D01*
X175403954Y-71564768D01*
X175205934Y-71504700D01*
X175205932Y-71504699D01*
X175205934Y-71504699D01*
X175000000Y-71484417D01*
X174794067Y-71504699D01*
X174596043Y-71564769D01*
X174485898Y-71623643D01*
X174413550Y-71662315D01*
X174413548Y-71662316D01*
X174413547Y-71662317D01*
X174253589Y-71793589D01*
X174122317Y-71953547D01*
X174024769Y-72136043D01*
X173964699Y-72334067D01*
X173944417Y-72540000D01*
X168055583Y-72540000D01*
X168035300Y-72334066D01*
X167975232Y-72136046D01*
X167877685Y-71953550D01*
X167825702Y-71890209D01*
X167746410Y-71793589D01*
X167586452Y-71662317D01*
X167586453Y-71662317D01*
X167586450Y-71662315D01*
X167403954Y-71564768D01*
X167205934Y-71504700D01*
X167205932Y-71504699D01*
X167205934Y-71504699D01*
X167000000Y-71484417D01*
X166794067Y-71504699D01*
X166596043Y-71564769D01*
X166485898Y-71623643D01*
X166413550Y-71662315D01*
X166413548Y-71662316D01*
X166413547Y-71662317D01*
X166253589Y-71793589D01*
X166122317Y-71953547D01*
X166024769Y-72136043D01*
X165964699Y-72334067D01*
X165944417Y-72540000D01*
X165964699Y-72745932D01*
X165964700Y-72745934D01*
X166024768Y-72943954D01*
X166122315Y-73126450D01*
X166122317Y-73126452D01*
X166253589Y-73286410D01*
X166350209Y-73365702D01*
X166413550Y-73417685D01*
X166596046Y-73515232D01*
X166662551Y-73535405D01*
X166720989Y-73573702D01*
X166749446Y-73637514D01*
X166738887Y-73706581D01*
X166692663Y-73758975D01*
X166658650Y-73773841D01*
X166536514Y-73806567D01*
X166536507Y-73806570D01*
X166322422Y-73906399D01*
X166322420Y-73906400D01*
X166128926Y-74041886D01*
X166128920Y-74041891D01*
X165961891Y-74208920D01*
X165961886Y-74208926D01*
X165826400Y-74402420D01*
X165826399Y-74402422D01*
X165726570Y-74616507D01*
X165726567Y-74616513D01*
X165669364Y-74829999D01*
X165669364Y-74830000D01*
X166566988Y-74830000D01*
X166534075Y-74887007D01*
X166500000Y-75014174D01*
X166500000Y-75145826D01*
X166534075Y-75272993D01*
X166566988Y-75330000D01*
X165669364Y-75330000D01*
X159856509Y-75330000D01*
X159898486Y-75251467D01*
X159928811Y-75194733D01*
X159928811Y-75194732D01*
X159928814Y-75194727D01*
X159986024Y-75006132D01*
X160005341Y-74810000D01*
X159986024Y-74613868D01*
X159928814Y-74425273D01*
X159928811Y-74425268D01*
X159928809Y-74425260D01*
X159926482Y-74419641D01*
X159928596Y-74418765D01*
X159916431Y-74360358D01*
X159941427Y-74295112D01*
X159952343Y-74282626D01*
X165808475Y-68426495D01*
X165869796Y-68393012D01*
X165939488Y-68397996D01*
X165995421Y-68439868D01*
X165999254Y-68445284D01*
X166005446Y-68454551D01*
X166071769Y-68498867D01*
X166071770Y-68498868D01*
X166130247Y-68510499D01*
X166130250Y-68510500D01*
X167765166Y-68510500D01*
X167832205Y-68530185D01*
X167877960Y-68582989D01*
X167887904Y-68652147D01*
X167858879Y-68715703D01*
X167852847Y-68722181D01*
X167564326Y-69010701D01*
X167503003Y-69044186D01*
X167433311Y-69039202D01*
X167418193Y-69032379D01*
X167403956Y-69024769D01*
X167403955Y-69024768D01*
X167403954Y-69024768D01*
X167205934Y-68964700D01*
X167205932Y-68964699D01*
X167205934Y-68964699D01*
X167000000Y-68944417D01*
X166794067Y-68964699D01*
X166596043Y-69024769D01*
X166485898Y-69083643D01*
X166413550Y-69122315D01*
X166413548Y-69122316D01*
X166413547Y-69122317D01*
X166253589Y-69253589D01*
X166122317Y-69413547D01*
X166024769Y-69596043D01*
X165964699Y-69794067D01*
X165944417Y-70000000D01*
X165964699Y-70205932D01*
X165964700Y-70205934D01*
X166024768Y-70403954D01*
X166122315Y-70586450D01*
X166122317Y-70586452D01*
X166253589Y-70746410D01*
X166350209Y-70825702D01*
X166413550Y-70877685D01*
X166596046Y-70975232D01*
X166794066Y-71035300D01*
X166794065Y-71035300D01*
X166812529Y-71037118D01*
X167000000Y-71055583D01*
X167205934Y-71035300D01*
X167403954Y-70975232D01*
X167586450Y-70877685D01*
X167746410Y-70746410D01*
X167877685Y-70586450D01*
X167975232Y-70403954D01*
X168035300Y-70205934D01*
X168055583Y-70000000D01*
X173944417Y-70000000D01*
X173964699Y-70205932D01*
X173964700Y-70205934D01*
X174024768Y-70403954D01*
X174122315Y-70586450D01*
X174122317Y-70586452D01*
X174253589Y-70746410D01*
X174350209Y-70825702D01*
X174413550Y-70877685D01*
X174596046Y-70975232D01*
X174794066Y-71035300D01*
X174794065Y-71035300D01*
X174812529Y-71037118D01*
X175000000Y-71055583D01*
X175205934Y-71035300D01*
X175403954Y-70975232D01*
X175586450Y-70877685D01*
X175746410Y-70746410D01*
X175877685Y-70586450D01*
X175975232Y-70403954D01*
X176035300Y-70205934D01*
X176055583Y-70000000D01*
X176035300Y-69794066D01*
X176005174Y-69694752D01*
X199624500Y-69694752D01*
X199636131Y-69753229D01*
X199636132Y-69753230D01*
X199680447Y-69819552D01*
X199746769Y-69863867D01*
X199746770Y-69863868D01*
X199805247Y-69875499D01*
X199805250Y-69875500D01*
X199805252Y-69875500D01*
X200694750Y-69875500D01*
X200694751Y-69875499D01*
X200709568Y-69872552D01*
X200753229Y-69863868D01*
X200753229Y-69863867D01*
X200753231Y-69863867D01*
X200819552Y-69819552D01*
X200863867Y-69753231D01*
X200863867Y-69753229D01*
X200863868Y-69753229D01*
X200875499Y-69694752D01*
X200875500Y-69694750D01*
X200875500Y-68805249D01*
X200875499Y-68805247D01*
X200863868Y-68746770D01*
X200863867Y-68746769D01*
X200819552Y-68680447D01*
X200753230Y-68636132D01*
X200753229Y-68636131D01*
X200694752Y-68624500D01*
X200694748Y-68624500D01*
X199805252Y-68624500D01*
X199805247Y-68624500D01*
X199746770Y-68636131D01*
X199746769Y-68636132D01*
X199680447Y-68680447D01*
X199636132Y-68746769D01*
X199636131Y-68746770D01*
X199624500Y-68805247D01*
X199624500Y-69694752D01*
X176005174Y-69694752D01*
X175975232Y-69596046D01*
X175877685Y-69413550D01*
X175801021Y-69320134D01*
X175746410Y-69253589D01*
X175586452Y-69122317D01*
X175586453Y-69122317D01*
X175586450Y-69122315D01*
X175403954Y-69024768D01*
X175205934Y-68964700D01*
X175205932Y-68964699D01*
X175205934Y-68964699D01*
X175000000Y-68944417D01*
X174794067Y-68964699D01*
X174596043Y-69024769D01*
X174485898Y-69083643D01*
X174413550Y-69122315D01*
X174413548Y-69122316D01*
X174413547Y-69122317D01*
X174253589Y-69253589D01*
X174122317Y-69413547D01*
X174024769Y-69596043D01*
X173964699Y-69794067D01*
X173944417Y-70000000D01*
X168055583Y-70000000D01*
X168035300Y-69794066D01*
X167975232Y-69596046D01*
X167972264Y-69590493D01*
X167967620Y-69581804D01*
X167953379Y-69513401D01*
X167978380Y-69448157D01*
X167989290Y-69435679D01*
X169095217Y-68329752D01*
X173949500Y-68329752D01*
X173961131Y-68388229D01*
X173961132Y-68388230D01*
X174005447Y-68454552D01*
X174071769Y-68498867D01*
X174071770Y-68498868D01*
X174130247Y-68510499D01*
X174130250Y-68510500D01*
X174130252Y-68510500D01*
X175869750Y-68510500D01*
X175869751Y-68510499D01*
X175884568Y-68507552D01*
X175928229Y-68498868D01*
X175928229Y-68498867D01*
X175928231Y-68498867D01*
X175994552Y-68454552D01*
X176038867Y-68388231D01*
X176038867Y-68388229D01*
X176038868Y-68388229D01*
X176050499Y-68329752D01*
X176050500Y-68329750D01*
X176050500Y-68130000D01*
X182244659Y-68130000D01*
X182263975Y-68326129D01*
X182265074Y-68329752D01*
X182319903Y-68510499D01*
X182321188Y-68514733D01*
X182414086Y-68688532D01*
X182414090Y-68688539D01*
X182539116Y-68840883D01*
X182691460Y-68965909D01*
X182691467Y-68965913D01*
X182865266Y-69058811D01*
X182865269Y-69058811D01*
X182865273Y-69058814D01*
X183053868Y-69116024D01*
X183250000Y-69135341D01*
X183446132Y-69116024D01*
X183634727Y-69058814D01*
X183671419Y-69039202D01*
X183808532Y-68965913D01*
X183808538Y-68965910D01*
X183960883Y-68840883D01*
X184085910Y-68688538D01*
X184178814Y-68514727D01*
X184236024Y-68326132D01*
X184255341Y-68130000D01*
X184236628Y-67939999D01*
X185721127Y-67939999D01*
X185721128Y-67940000D01*
X186684314Y-67940000D01*
X186679920Y-67944394D01*
X186627259Y-68035606D01*
X186600000Y-68137339D01*
X186600000Y-68242661D01*
X186627259Y-68344394D01*
X186679920Y-68435606D01*
X186684314Y-68440000D01*
X185721128Y-68440000D01*
X185773730Y-68636317D01*
X185773734Y-68636326D01*
X185869865Y-68842482D01*
X186000342Y-69028820D01*
X186161179Y-69189657D01*
X186347517Y-69320134D01*
X186553673Y-69416265D01*
X186553682Y-69416269D01*
X186749999Y-69468872D01*
X186750000Y-69468871D01*
X186750000Y-68505686D01*
X186754394Y-68510080D01*
X186845606Y-68562741D01*
X186947339Y-68590000D01*
X187052661Y-68590000D01*
X187154394Y-68562741D01*
X187245606Y-68510080D01*
X187250000Y-68505686D01*
X187250000Y-69468872D01*
X187446317Y-69416269D01*
X187446326Y-69416265D01*
X187652482Y-69320134D01*
X187838820Y-69189657D01*
X187999657Y-69028820D01*
X188130134Y-68842482D01*
X188226265Y-68636326D01*
X188226269Y-68636317D01*
X188278872Y-68440000D01*
X187315686Y-68440000D01*
X187320080Y-68435606D01*
X187372741Y-68344394D01*
X187400000Y-68242661D01*
X187400000Y-68137339D01*
X187372741Y-68035606D01*
X187320080Y-67944394D01*
X187315686Y-67940000D01*
X188278872Y-67940000D01*
X188278872Y-67939999D01*
X188226269Y-67743682D01*
X188226265Y-67743673D01*
X188130134Y-67537517D01*
X187999657Y-67351179D01*
X187838820Y-67190342D01*
X187652482Y-67059865D01*
X187446328Y-66963734D01*
X187250000Y-66911127D01*
X187250000Y-67874314D01*
X187245606Y-67869920D01*
X187154394Y-67817259D01*
X187052661Y-67790000D01*
X186947339Y-67790000D01*
X186845606Y-67817259D01*
X186754394Y-67869920D01*
X186750000Y-67874314D01*
X186750000Y-66911127D01*
X186553671Y-66963734D01*
X186347517Y-67059865D01*
X186161179Y-67190342D01*
X186000342Y-67351179D01*
X185869865Y-67537517D01*
X185773734Y-67743673D01*
X185773730Y-67743682D01*
X185721127Y-67939999D01*
X184236628Y-67939999D01*
X184236024Y-67933868D01*
X184178814Y-67745273D01*
X184178811Y-67745269D01*
X184178811Y-67745266D01*
X184085913Y-67571467D01*
X184085909Y-67571460D01*
X183960883Y-67419116D01*
X183808539Y-67294090D01*
X183808532Y-67294086D01*
X183634733Y-67201188D01*
X183634727Y-67201186D01*
X183446132Y-67143976D01*
X183446129Y-67143975D01*
X183250000Y-67124659D01*
X183053870Y-67143975D01*
X182865266Y-67201188D01*
X182691467Y-67294086D01*
X182691460Y-67294090D01*
X182539116Y-67419116D01*
X182414090Y-67571460D01*
X182414086Y-67571467D01*
X182321188Y-67745266D01*
X182263975Y-67933870D01*
X182244659Y-68130000D01*
X176050500Y-68130000D01*
X176050500Y-66590249D01*
X176050499Y-66590247D01*
X176038868Y-66531770D01*
X176038867Y-66531769D01*
X175994552Y-66465447D01*
X175928230Y-66421132D01*
X175928229Y-66421131D01*
X175869752Y-66409500D01*
X175869748Y-66409500D01*
X174130252Y-66409500D01*
X174130247Y-66409500D01*
X174071770Y-66421131D01*
X174071769Y-66421132D01*
X174005447Y-66465447D01*
X173961132Y-66531769D01*
X173961131Y-66531770D01*
X173949500Y-66590247D01*
X173949500Y-68329752D01*
X169095217Y-68329752D01*
X173908152Y-63516819D01*
X173969475Y-63483334D01*
X173995833Y-63480500D01*
X179703672Y-63480500D01*
X179770711Y-63500185D01*
X179816466Y-63552989D01*
X179818787Y-63559131D01*
X179818856Y-63559103D01*
X179821185Y-63564726D01*
X179914086Y-63738532D01*
X179914090Y-63738539D01*
X180039116Y-63890883D01*
X180191460Y-64015909D01*
X180191467Y-64015913D01*
X180365266Y-64108811D01*
X180365269Y-64108811D01*
X180365273Y-64108814D01*
X180553868Y-64166024D01*
X180750000Y-64185341D01*
X180946132Y-64166024D01*
X181134727Y-64108814D01*
X181177578Y-64085910D01*
X181308532Y-64015913D01*
X181308538Y-64015910D01*
X181460883Y-63890883D01*
X181585910Y-63738538D01*
X181678814Y-63564727D01*
X181736024Y-63376132D01*
X181748447Y-63250000D01*
X188244659Y-63250000D01*
X188263975Y-63446129D01*
X188263976Y-63446132D01*
X188316275Y-63618539D01*
X188321188Y-63634733D01*
X188414086Y-63808532D01*
X188414090Y-63808539D01*
X188539116Y-63960883D01*
X188691460Y-64085909D01*
X188691467Y-64085913D01*
X188865266Y-64178811D01*
X188865269Y-64178811D01*
X188865273Y-64178814D01*
X189053868Y-64236024D01*
X189250000Y-64255341D01*
X189446132Y-64236024D01*
X189634727Y-64178814D01*
X189658656Y-64166024D01*
X189734770Y-64125340D01*
X189808538Y-64085910D01*
X189960883Y-63960883D01*
X190085910Y-63808538D01*
X190178814Y-63634727D01*
X190236024Y-63446132D01*
X190255341Y-63250000D01*
X190236024Y-63053868D01*
X190178814Y-62865273D01*
X190178811Y-62865269D01*
X190178811Y-62865266D01*
X190085913Y-62691467D01*
X190085909Y-62691460D01*
X189960883Y-62539116D01*
X189808539Y-62414090D01*
X189808532Y-62414086D01*
X189634730Y-62321187D01*
X189629100Y-62318855D01*
X189629974Y-62316744D01*
X189580058Y-62284024D01*
X189551608Y-62220209D01*
X189550500Y-62203671D01*
X189550500Y-61835832D01*
X189570185Y-61768793D01*
X189586814Y-61748156D01*
X192073206Y-59261763D01*
X192134527Y-59228280D01*
X192204219Y-59233264D01*
X192260152Y-59275136D01*
X192284569Y-59340600D01*
X192284356Y-59360887D01*
X192265906Y-59559999D01*
X192265906Y-59560000D01*
X192286237Y-59779413D01*
X192286238Y-59779415D01*
X192346539Y-59991352D01*
X192346545Y-59991367D01*
X192444762Y-60188612D01*
X192458991Y-60207454D01*
X192458992Y-60207454D01*
X193030109Y-59636336D01*
X193054644Y-59727904D01*
X193111913Y-59827097D01*
X193192903Y-59908087D01*
X193292096Y-59965356D01*
X193383662Y-59989890D01*
X192814661Y-60558889D01*
X192814662Y-60558890D01*
X192927743Y-60628907D01*
X192927749Y-60628910D01*
X193133218Y-60708508D01*
X193349825Y-60749000D01*
X193570175Y-60749000D01*
X193786781Y-60708508D01*
X193992252Y-60628909D01*
X193992253Y-60628908D01*
X194105337Y-60558889D01*
X193536338Y-59989890D01*
X193627904Y-59965356D01*
X193727097Y-59908087D01*
X193808087Y-59827097D01*
X193865356Y-59727904D01*
X193889890Y-59636337D01*
X194461006Y-60207454D01*
X194475237Y-60188609D01*
X194475239Y-60188606D01*
X194573454Y-59991367D01*
X194573460Y-59991352D01*
X194633761Y-59779415D01*
X194633762Y-59779413D01*
X194654094Y-59560000D01*
X194654094Y-59559999D01*
X194633762Y-59340586D01*
X194633761Y-59340584D01*
X194573460Y-59128647D01*
X194573454Y-59128632D01*
X194475242Y-58931396D01*
X194475237Y-58931388D01*
X194461006Y-58912544D01*
X193889890Y-59483661D01*
X193865356Y-59392096D01*
X193808087Y-59292903D01*
X193727097Y-59211913D01*
X193627904Y-59154644D01*
X193536336Y-59130109D01*
X194105337Y-58561109D01*
X194105336Y-58561108D01*
X193992256Y-58491093D01*
X193992244Y-58491087D01*
X193904616Y-58457139D01*
X193849215Y-58414566D01*
X193825625Y-58348799D01*
X193841337Y-58280719D01*
X193891361Y-58231940D01*
X193898960Y-58228241D01*
X193907200Y-58224573D01*
X194058470Y-58114669D01*
X194183585Y-57975715D01*
X194277075Y-57813785D01*
X194334855Y-57635956D01*
X194354400Y-57450000D01*
X194805906Y-57450000D01*
X194826237Y-57669413D01*
X194826238Y-57669415D01*
X194886539Y-57881352D01*
X194886545Y-57881367D01*
X194984762Y-58078612D01*
X194998991Y-58097454D01*
X194998992Y-58097454D01*
X195570109Y-57526337D01*
X195594644Y-57617904D01*
X195651913Y-57717097D01*
X195732903Y-57798087D01*
X195832096Y-57855356D01*
X195923662Y-57879890D01*
X195354661Y-58448889D01*
X195355420Y-58455431D01*
X195389825Y-58493813D01*
X195400929Y-58562795D01*
X195372976Y-58626829D01*
X195314842Y-58665586D01*
X195297197Y-58669169D01*
X195297226Y-58669311D01*
X195232770Y-58682131D01*
X195232769Y-58682132D01*
X195166447Y-58726447D01*
X195122132Y-58792769D01*
X195122131Y-58792770D01*
X195110500Y-58851247D01*
X195110500Y-60268752D01*
X195122131Y-60327229D01*
X195122132Y-60327230D01*
X195166447Y-60393552D01*
X195232769Y-60437867D01*
X195232770Y-60437868D01*
X195291247Y-60449499D01*
X195291250Y-60449500D01*
X195291252Y-60449500D01*
X196708750Y-60449500D01*
X196708751Y-60449499D01*
X196723568Y-60446552D01*
X196767229Y-60437868D01*
X196767229Y-60437867D01*
X196767231Y-60437867D01*
X196833552Y-60393552D01*
X196877867Y-60327231D01*
X196877867Y-60327228D01*
X196879796Y-60324342D01*
X196933408Y-60279536D01*
X197002733Y-60270829D01*
X197065761Y-60300983D01*
X197070580Y-60305551D01*
X199547648Y-62782619D01*
X199581133Y-62843942D01*
X199576149Y-62913634D01*
X199573449Y-62919618D01*
X199573517Y-62919646D01*
X199571188Y-62925267D01*
X199513975Y-63113870D01*
X199494659Y-63310000D01*
X199513975Y-63506129D01*
X199513976Y-63506132D01*
X199566275Y-63678539D01*
X199571188Y-63694733D01*
X199664086Y-63868532D01*
X199664090Y-63868539D01*
X199789116Y-64020883D01*
X199941460Y-64145909D01*
X199941467Y-64145913D01*
X200115266Y-64238811D01*
X200115269Y-64238811D01*
X200115273Y-64238814D01*
X200303868Y-64296024D01*
X200500000Y-64315341D01*
X200696132Y-64296024D01*
X200884727Y-64238814D01*
X201058538Y-64145910D01*
X201210883Y-64020883D01*
X201335910Y-63868538D01*
X201405400Y-63738532D01*
X201428811Y-63694733D01*
X201428811Y-63694732D01*
X201428814Y-63694727D01*
X201486024Y-63506132D01*
X201505341Y-63310000D01*
X201486024Y-63113868D01*
X201428814Y-62925273D01*
X201428811Y-62925267D01*
X201428811Y-62925266D01*
X201335913Y-62751467D01*
X201335909Y-62751460D01*
X201210883Y-62599116D01*
X201058539Y-62474090D01*
X201058532Y-62474086D01*
X200884733Y-62381188D01*
X200884727Y-62381186D01*
X200696132Y-62323976D01*
X200696129Y-62323975D01*
X200500000Y-62304659D01*
X200303870Y-62323975D01*
X200192867Y-62357648D01*
X200115273Y-62381186D01*
X200115272Y-62381186D01*
X200115267Y-62381188D01*
X200109646Y-62383517D01*
X200108773Y-62381411D01*
X200050308Y-62393564D01*
X199985073Y-62368541D01*
X199972619Y-62357648D01*
X196928764Y-59313793D01*
X196930549Y-59312007D01*
X196896809Y-59265794D01*
X196889500Y-59223852D01*
X196889500Y-58851249D01*
X196889499Y-58851247D01*
X196877868Y-58792770D01*
X196877867Y-58792769D01*
X196833552Y-58726447D01*
X196767230Y-58682132D01*
X196767229Y-58682131D01*
X196702774Y-58669311D01*
X196703065Y-58667846D01*
X196645136Y-58644448D01*
X196604782Y-58587410D01*
X196601672Y-58517609D01*
X196636792Y-58457208D01*
X196645116Y-58450794D01*
X196645337Y-58448889D01*
X196076338Y-57879890D01*
X196167904Y-57855356D01*
X196267097Y-57798087D01*
X196348087Y-57717097D01*
X196405356Y-57617904D01*
X196429890Y-57526338D01*
X197001006Y-58097454D01*
X197015237Y-58078609D01*
X197015239Y-58078606D01*
X197113454Y-57881367D01*
X197113460Y-57881352D01*
X197173761Y-57669415D01*
X197173762Y-57669413D01*
X197194094Y-57450000D01*
X197194094Y-57449999D01*
X197173762Y-57230586D01*
X197173761Y-57230584D01*
X197113460Y-57018647D01*
X197113454Y-57018632D01*
X197015242Y-56821396D01*
X197015237Y-56821388D01*
X197001006Y-56802544D01*
X196429890Y-57373661D01*
X196405356Y-57282096D01*
X196348087Y-57182903D01*
X196267097Y-57101913D01*
X196167904Y-57044644D01*
X196076338Y-57020109D01*
X196645337Y-56451109D01*
X196645336Y-56451108D01*
X196532256Y-56381093D01*
X196532250Y-56381089D01*
X196326781Y-56301491D01*
X196110175Y-56261000D01*
X195889825Y-56261000D01*
X195673218Y-56301491D01*
X195467748Y-56381090D01*
X195354661Y-56451109D01*
X195923662Y-57020109D01*
X195832096Y-57044644D01*
X195732903Y-57101913D01*
X195651913Y-57182903D01*
X195594644Y-57282096D01*
X195570109Y-57373661D01*
X194998992Y-56802544D01*
X194998991Y-56802545D01*
X194984761Y-56821390D01*
X194886545Y-57018632D01*
X194886539Y-57018647D01*
X194826238Y-57230584D01*
X194826237Y-57230586D01*
X194805906Y-57449999D01*
X194805906Y-57450000D01*
X194354400Y-57450000D01*
X194334855Y-57264044D01*
X194277075Y-57086215D01*
X194235959Y-57015000D01*
X194183586Y-56924286D01*
X194058469Y-56785330D01*
X193907204Y-56675429D01*
X193907201Y-56675427D01*
X193907200Y-56675427D01*
X193861698Y-56655168D01*
X193736390Y-56599376D01*
X193736384Y-56599374D01*
X193576265Y-56565341D01*
X193553490Y-56560500D01*
X193366510Y-56560500D01*
X193343735Y-56565341D01*
X193183615Y-56599374D01*
X193183609Y-56599376D01*
X193012800Y-56675427D01*
X193012795Y-56675429D01*
X192861530Y-56785330D01*
X192736413Y-56924286D01*
X192642925Y-57086213D01*
X192585146Y-57264039D01*
X192585145Y-57264041D01*
X192565600Y-57450000D01*
X192585145Y-57635958D01*
X192585146Y-57635960D01*
X192626388Y-57762890D01*
X192628383Y-57832731D01*
X192596138Y-57888889D01*
X189065489Y-61419540D01*
X189009541Y-61475487D01*
X189009535Y-61475495D01*
X188969982Y-61544004D01*
X188969979Y-61544009D01*
X188949500Y-61620439D01*
X188949500Y-62203671D01*
X188929815Y-62270710D01*
X188877011Y-62316465D01*
X188870871Y-62318786D01*
X188870900Y-62318855D01*
X188865269Y-62321187D01*
X188691467Y-62414086D01*
X188691460Y-62414090D01*
X188539116Y-62539116D01*
X188414090Y-62691460D01*
X188414086Y-62691467D01*
X188321188Y-62865266D01*
X188263975Y-63053870D01*
X188244659Y-63250000D01*
X181748447Y-63250000D01*
X181755341Y-63180000D01*
X181736024Y-62983868D01*
X181678814Y-62795273D01*
X181678811Y-62795269D01*
X181678811Y-62795266D01*
X181585913Y-62621467D01*
X181585909Y-62621460D01*
X181460883Y-62469116D01*
X181308539Y-62344090D01*
X181308532Y-62344086D01*
X181134733Y-62251188D01*
X181134727Y-62251186D01*
X180946132Y-62193976D01*
X180946129Y-62193975D01*
X180750000Y-62174659D01*
X180553870Y-62193975D01*
X180454609Y-62224086D01*
X180365273Y-62251186D01*
X180365272Y-62251186D01*
X180365267Y-62251188D01*
X180359646Y-62253517D01*
X180358773Y-62251411D01*
X180300308Y-62263564D01*
X180235073Y-62238541D01*
X180222619Y-62227648D01*
X177314512Y-59319541D01*
X177314504Y-59319535D01*
X177245995Y-59279982D01*
X177245990Y-59279979D01*
X177220513Y-59273152D01*
X177169562Y-59259500D01*
X177169560Y-59259500D01*
X177013500Y-59259500D01*
X176946461Y-59239815D01*
X176900706Y-59187011D01*
X176889500Y-59135500D01*
X176889500Y-58851249D01*
X176889499Y-58851247D01*
X176877868Y-58792770D01*
X176877867Y-58792769D01*
X176833552Y-58726447D01*
X176767230Y-58682132D01*
X176767229Y-58682131D01*
X176702774Y-58669311D01*
X176703065Y-58667846D01*
X176645136Y-58644448D01*
X176604782Y-58587410D01*
X176601672Y-58517609D01*
X176636792Y-58457208D01*
X176645116Y-58450794D01*
X176645337Y-58448889D01*
X176076338Y-57879890D01*
X176167904Y-57855356D01*
X176267097Y-57798087D01*
X176348087Y-57717097D01*
X176405356Y-57617904D01*
X176429890Y-57526338D01*
X177001006Y-58097454D01*
X177015237Y-58078609D01*
X177015239Y-58078606D01*
X177113454Y-57881367D01*
X177113460Y-57881352D01*
X177173761Y-57669415D01*
X177173762Y-57669413D01*
X177194094Y-57450000D01*
X177194094Y-57449999D01*
X177173762Y-57230586D01*
X177173761Y-57230584D01*
X177113460Y-57018647D01*
X177113454Y-57018632D01*
X177015242Y-56821396D01*
X177015237Y-56821388D01*
X177001006Y-56802544D01*
X176429890Y-57373661D01*
X176405356Y-57282096D01*
X176348087Y-57182903D01*
X176267097Y-57101913D01*
X176167904Y-57044644D01*
X176076338Y-57020109D01*
X176645337Y-56451109D01*
X176645336Y-56451108D01*
X176532256Y-56381093D01*
X176532250Y-56381089D01*
X176326781Y-56301491D01*
X176110175Y-56261000D01*
X175889825Y-56261000D01*
X175673218Y-56301491D01*
X175467748Y-56381090D01*
X175354661Y-56451109D01*
X175923662Y-57020109D01*
X175832096Y-57044644D01*
X175732903Y-57101913D01*
X175651913Y-57182903D01*
X175594644Y-57282096D01*
X175570109Y-57373662D01*
X174998992Y-56802545D01*
X174998991Y-56802545D01*
X174984761Y-56821390D01*
X174886545Y-57018632D01*
X174886539Y-57018647D01*
X174826238Y-57230584D01*
X174826237Y-57230586D01*
X174805906Y-57449999D01*
X174805906Y-57450000D01*
X174826237Y-57669413D01*
X174826238Y-57669415D01*
X174886539Y-57881352D01*
X174886545Y-57881367D01*
X174984762Y-58078612D01*
X174998991Y-58097454D01*
X174998992Y-58097454D01*
X175570109Y-57526337D01*
X175594644Y-57617904D01*
X175651913Y-57717097D01*
X175732903Y-57798087D01*
X175832096Y-57855356D01*
X175923662Y-57879890D01*
X175354661Y-58448889D01*
X175355420Y-58455431D01*
X175389825Y-58493813D01*
X175400929Y-58562795D01*
X175372976Y-58626829D01*
X175314842Y-58665586D01*
X175297197Y-58669169D01*
X175297226Y-58669311D01*
X175232770Y-58682131D01*
X175232769Y-58682132D01*
X175166447Y-58726447D01*
X175122132Y-58792769D01*
X175122131Y-58792770D01*
X175110500Y-58851247D01*
X175110500Y-60268752D01*
X175122131Y-60327229D01*
X175122132Y-60327230D01*
X175166447Y-60393552D01*
X175232769Y-60437867D01*
X175232770Y-60437868D01*
X175291247Y-60449499D01*
X175291250Y-60449500D01*
X175291252Y-60449500D01*
X176708750Y-60449500D01*
X176708751Y-60449499D01*
X176723568Y-60446552D01*
X176767229Y-60437868D01*
X176767229Y-60437867D01*
X176767231Y-60437867D01*
X176833552Y-60393552D01*
X176877867Y-60327231D01*
X176877867Y-60327229D01*
X176877868Y-60327229D01*
X176889499Y-60268752D01*
X176889500Y-60268750D01*
X176889500Y-60043833D01*
X176909185Y-59976794D01*
X176961989Y-59931039D01*
X177031147Y-59921095D01*
X177094703Y-59950120D01*
X177101181Y-59956152D01*
X179797648Y-62652619D01*
X179831133Y-62713942D01*
X179826149Y-62783634D01*
X179823449Y-62789618D01*
X179823517Y-62789646D01*
X179818855Y-62800901D01*
X179816737Y-62800023D01*
X179784055Y-62849917D01*
X179720249Y-62878387D01*
X179703672Y-62879500D01*
X173780438Y-62879500D01*
X173749867Y-62887691D01*
X173704008Y-62899979D01*
X173704007Y-62899980D01*
X173642509Y-62935487D01*
X173642508Y-62935488D01*
X173635485Y-62939542D01*
X168262181Y-68312847D01*
X168200858Y-68346332D01*
X168131166Y-68341348D01*
X168075233Y-68299476D01*
X168050816Y-68234012D01*
X168050500Y-68225166D01*
X168050500Y-66590249D01*
X168050499Y-66590247D01*
X168038868Y-66531770D01*
X168038867Y-66531769D01*
X167994552Y-66465447D01*
X167928230Y-66421132D01*
X167928229Y-66421131D01*
X167869752Y-66409500D01*
X167869748Y-66409500D01*
X166130252Y-66409500D01*
X166130247Y-66409500D01*
X166071770Y-66421131D01*
X166071769Y-66421132D01*
X166005447Y-66465447D01*
X165961132Y-66531769D01*
X165961131Y-66531770D01*
X165949500Y-66590247D01*
X165949500Y-67384166D01*
X165929815Y-67451205D01*
X165913181Y-67471847D01*
X159527380Y-73857647D01*
X159466057Y-73891132D01*
X159396365Y-73886148D01*
X159390386Y-73883451D01*
X159390359Y-73883518D01*
X159384739Y-73881190D01*
X159384728Y-73881186D01*
X159384727Y-73881186D01*
X159196132Y-73823976D01*
X159196129Y-73823975D01*
X159000000Y-73804659D01*
X158803870Y-73823975D01*
X158615266Y-73881188D01*
X158441467Y-73974086D01*
X158441460Y-73974090D01*
X158289116Y-74099116D01*
X158164090Y-74251460D01*
X158164086Y-74251467D01*
X158071188Y-74425266D01*
X158013975Y-74613870D01*
X157994659Y-74810000D01*
X151550500Y-74810000D01*
X151550500Y-74470730D01*
X151547646Y-74440300D01*
X151547646Y-74440298D01*
X151502793Y-74312119D01*
X151502792Y-74312117D01*
X151422150Y-74202850D01*
X151312882Y-74122207D01*
X151312880Y-74122206D01*
X151184700Y-74077353D01*
X151154270Y-74074500D01*
X151154266Y-74074500D01*
X149845734Y-74074500D01*
X149845730Y-74074500D01*
X149815300Y-74077353D01*
X149815298Y-74077353D01*
X149687119Y-74122206D01*
X149687117Y-74122207D01*
X149577850Y-74202850D01*
X149497207Y-74312117D01*
X149497206Y-74312119D01*
X149452353Y-74440298D01*
X149452353Y-74440300D01*
X149449500Y-74470730D01*
X149449500Y-76029269D01*
X148826258Y-76029269D01*
X148930941Y-75872598D01*
X149010130Y-75681420D01*
X149050500Y-75478465D01*
X149050500Y-75021535D01*
X149010130Y-74818580D01*
X148930941Y-74627402D01*
X148815977Y-74455345D01*
X148815975Y-74455342D01*
X148669657Y-74309024D01*
X148497595Y-74194057D01*
X148377047Y-74144124D01*
X148322643Y-74100282D01*
X148300579Y-74033988D01*
X148300500Y-74029563D01*
X148300500Y-68710439D01*
X148294632Y-68688539D01*
X148280021Y-68634011D01*
X148274530Y-68624500D01*
X148240464Y-68565495D01*
X148240458Y-68565487D01*
X147586819Y-67911848D01*
X147553334Y-67850525D01*
X147550500Y-67824167D01*
X147550500Y-67190000D01*
X157994659Y-67190000D01*
X158013975Y-67386129D01*
X158033046Y-67448997D01*
X158059898Y-67537517D01*
X158071188Y-67574733D01*
X158164086Y-67748532D01*
X158164090Y-67748539D01*
X158289116Y-67900883D01*
X158441460Y-68025909D01*
X158441467Y-68025913D01*
X158615266Y-68118811D01*
X158615269Y-68118811D01*
X158615273Y-68118814D01*
X158803868Y-68176024D01*
X159000000Y-68195341D01*
X159196132Y-68176024D01*
X159384727Y-68118814D01*
X159390009Y-68115991D01*
X159532997Y-68039562D01*
X159558538Y-68025910D01*
X159710883Y-67900883D01*
X159835910Y-67748538D01*
X159928814Y-67574727D01*
X159986024Y-67386132D01*
X160005341Y-67190000D01*
X159986024Y-66993868D01*
X159928814Y-66805273D01*
X159928811Y-66805269D01*
X159928811Y-66805266D01*
X159835913Y-66631467D01*
X159835909Y-66631460D01*
X159710883Y-66479116D01*
X159558539Y-66354090D01*
X159558532Y-66354086D01*
X159384733Y-66261188D01*
X159384727Y-66261186D01*
X159196132Y-66203976D01*
X159196129Y-66203975D01*
X159000000Y-66184659D01*
X158803870Y-66203975D01*
X158615266Y-66261188D01*
X158441467Y-66354086D01*
X158441460Y-66354090D01*
X158289116Y-66479116D01*
X158164090Y-66631460D01*
X158164086Y-66631467D01*
X158071188Y-66805266D01*
X158013975Y-66993870D01*
X157994659Y-67190000D01*
X147550500Y-67190000D01*
X147550500Y-63120000D01*
X148494659Y-63120000D01*
X148513975Y-63316129D01*
X148513976Y-63316132D01*
X148564696Y-63483334D01*
X148571188Y-63504733D01*
X148664086Y-63678532D01*
X148664090Y-63678539D01*
X148789116Y-63830883D01*
X148941460Y-63955909D01*
X148941467Y-63955913D01*
X149115266Y-64048811D01*
X149115269Y-64048811D01*
X149115273Y-64048814D01*
X149303868Y-64106024D01*
X149500000Y-64125341D01*
X149696132Y-64106024D01*
X149884727Y-64048814D01*
X150058538Y-63955910D01*
X150210883Y-63830883D01*
X150335910Y-63678538D01*
X150396744Y-63564726D01*
X150428811Y-63504733D01*
X150428811Y-63504732D01*
X150428814Y-63504727D01*
X150486024Y-63316132D01*
X150505341Y-63120000D01*
X150486024Y-62923868D01*
X150428814Y-62735273D01*
X150428811Y-62735267D01*
X150428811Y-62735266D01*
X150335913Y-62561467D01*
X150335909Y-62561460D01*
X150210883Y-62409116D01*
X150058539Y-62284090D01*
X150058532Y-62284086D01*
X149884730Y-62191187D01*
X149879100Y-62188855D01*
X149879974Y-62186744D01*
X149830058Y-62154024D01*
X149801608Y-62090209D01*
X149800500Y-62073671D01*
X149800500Y-61585832D01*
X149820185Y-61518793D01*
X149836814Y-61498156D01*
X152073206Y-59261763D01*
X152134527Y-59228280D01*
X152204219Y-59233264D01*
X152260152Y-59275136D01*
X152284569Y-59340600D01*
X152284356Y-59360887D01*
X152265906Y-59559999D01*
X152265906Y-59560000D01*
X152286237Y-59779413D01*
X152286238Y-59779415D01*
X152346539Y-59991352D01*
X152346545Y-59991367D01*
X152444762Y-60188612D01*
X152458991Y-60207454D01*
X152458992Y-60207454D01*
X153030109Y-59636336D01*
X153054644Y-59727904D01*
X153111913Y-59827097D01*
X153192903Y-59908087D01*
X153292096Y-59965356D01*
X153383662Y-59989890D01*
X152814661Y-60558889D01*
X152814662Y-60558890D01*
X152927743Y-60628907D01*
X152927749Y-60628910D01*
X153133218Y-60708508D01*
X153349825Y-60749000D01*
X153570175Y-60749000D01*
X153786781Y-60708508D01*
X153992252Y-60628909D01*
X153992253Y-60628908D01*
X154105337Y-60558889D01*
X153536338Y-59989890D01*
X153627904Y-59965356D01*
X153727097Y-59908087D01*
X153808087Y-59827097D01*
X153865356Y-59727904D01*
X153889890Y-59636338D01*
X154461006Y-60207454D01*
X154475237Y-60188609D01*
X154475239Y-60188606D01*
X154573454Y-59991367D01*
X154573460Y-59991352D01*
X154633761Y-59779415D01*
X154633762Y-59779413D01*
X154654094Y-59560000D01*
X154654094Y-59559999D01*
X154633762Y-59340586D01*
X154633761Y-59340584D01*
X154573460Y-59128647D01*
X154573454Y-59128632D01*
X154475242Y-58931396D01*
X154475237Y-58931388D01*
X154461006Y-58912544D01*
X153889890Y-59483661D01*
X153865356Y-59392096D01*
X153808087Y-59292903D01*
X153727097Y-59211913D01*
X153627904Y-59154644D01*
X153536336Y-59130109D01*
X154105337Y-58561109D01*
X154105336Y-58561108D01*
X153992256Y-58491093D01*
X153992244Y-58491087D01*
X153904616Y-58457139D01*
X153849215Y-58414566D01*
X153825625Y-58348799D01*
X153841337Y-58280719D01*
X153891361Y-58231940D01*
X153898960Y-58228241D01*
X153907200Y-58224573D01*
X154058470Y-58114669D01*
X154183585Y-57975715D01*
X154277075Y-57813785D01*
X154334855Y-57635956D01*
X154354400Y-57450000D01*
X154805906Y-57450000D01*
X154826237Y-57669413D01*
X154826238Y-57669415D01*
X154886539Y-57881352D01*
X154886545Y-57881367D01*
X154984762Y-58078612D01*
X154998991Y-58097454D01*
X154998992Y-58097454D01*
X155570109Y-57526337D01*
X155594644Y-57617904D01*
X155651913Y-57717097D01*
X155732903Y-57798087D01*
X155832096Y-57855356D01*
X155923662Y-57879890D01*
X155354661Y-58448889D01*
X155355420Y-58455431D01*
X155389825Y-58493813D01*
X155400929Y-58562795D01*
X155372976Y-58626829D01*
X155314842Y-58665586D01*
X155297197Y-58669169D01*
X155297226Y-58669311D01*
X155232770Y-58682131D01*
X155232769Y-58682132D01*
X155166447Y-58726447D01*
X155122132Y-58792769D01*
X155122131Y-58792770D01*
X155110500Y-58851247D01*
X155110500Y-60268752D01*
X155122131Y-60327229D01*
X155122132Y-60327230D01*
X155166447Y-60393552D01*
X155232769Y-60437867D01*
X155232770Y-60437868D01*
X155291247Y-60449499D01*
X155291250Y-60449500D01*
X155291252Y-60449500D01*
X156708750Y-60449500D01*
X156708751Y-60449499D01*
X156723568Y-60446552D01*
X156767229Y-60437868D01*
X156767229Y-60437867D01*
X156767231Y-60437867D01*
X156833552Y-60393552D01*
X156877867Y-60327231D01*
X156877867Y-60327229D01*
X156877868Y-60327229D01*
X156889499Y-60268752D01*
X156889500Y-60268750D01*
X156889500Y-59984500D01*
X156909185Y-59917461D01*
X156961989Y-59871706D01*
X157013500Y-59860500D01*
X157014167Y-59860500D01*
X157081206Y-59880185D01*
X157101848Y-59896819D01*
X159797648Y-62592619D01*
X159831133Y-62653942D01*
X159826149Y-62723634D01*
X159823449Y-62729618D01*
X159823517Y-62729646D01*
X159821188Y-62735267D01*
X159821186Y-62735272D01*
X159821186Y-62735273D01*
X159813837Y-62759500D01*
X159763975Y-62923870D01*
X159744659Y-63120000D01*
X159763975Y-63316129D01*
X159763976Y-63316132D01*
X159814696Y-63483334D01*
X159821188Y-63504733D01*
X159914086Y-63678532D01*
X159914090Y-63678539D01*
X160039116Y-63830883D01*
X160191460Y-63955909D01*
X160191467Y-63955913D01*
X160365266Y-64048811D01*
X160365269Y-64048811D01*
X160365273Y-64048814D01*
X160553868Y-64106024D01*
X160750000Y-64125341D01*
X160946132Y-64106024D01*
X161134727Y-64048814D01*
X161308538Y-63955910D01*
X161460883Y-63830883D01*
X161585910Y-63678538D01*
X161646744Y-63564726D01*
X161678811Y-63504733D01*
X161678811Y-63504732D01*
X161678814Y-63504727D01*
X161736024Y-63316132D01*
X161742537Y-63250000D01*
X168244659Y-63250000D01*
X168263975Y-63446129D01*
X168263976Y-63446132D01*
X168316275Y-63618539D01*
X168321188Y-63634733D01*
X168414086Y-63808532D01*
X168414090Y-63808539D01*
X168539116Y-63960883D01*
X168691460Y-64085909D01*
X168691467Y-64085913D01*
X168865266Y-64178811D01*
X168865269Y-64178811D01*
X168865273Y-64178814D01*
X169053868Y-64236024D01*
X169250000Y-64255341D01*
X169446132Y-64236024D01*
X169634727Y-64178814D01*
X169658656Y-64166024D01*
X169734770Y-64125340D01*
X169808538Y-64085910D01*
X169960883Y-63960883D01*
X170085910Y-63808538D01*
X170178814Y-63634727D01*
X170236024Y-63446132D01*
X170255341Y-63250000D01*
X170236024Y-63053868D01*
X170178814Y-62865273D01*
X170178811Y-62865269D01*
X170178811Y-62865266D01*
X170085913Y-62691467D01*
X170085909Y-62691460D01*
X169960883Y-62539116D01*
X169808539Y-62414090D01*
X169808532Y-62414086D01*
X169634730Y-62321187D01*
X169629100Y-62318855D01*
X169629974Y-62316744D01*
X169580058Y-62284024D01*
X169551608Y-62220209D01*
X169550500Y-62203671D01*
X169550500Y-61835832D01*
X169570185Y-61768793D01*
X169586814Y-61748156D01*
X172073206Y-59261763D01*
X172134527Y-59228280D01*
X172204219Y-59233264D01*
X172260152Y-59275136D01*
X172284569Y-59340600D01*
X172284356Y-59360887D01*
X172265906Y-59559999D01*
X172265906Y-59560000D01*
X172286237Y-59779413D01*
X172286238Y-59779415D01*
X172346539Y-59991352D01*
X172346545Y-59991367D01*
X172444762Y-60188612D01*
X172458991Y-60207454D01*
X172458992Y-60207454D01*
X173030109Y-59636336D01*
X173054644Y-59727904D01*
X173111913Y-59827097D01*
X173192903Y-59908087D01*
X173292096Y-59965356D01*
X173383662Y-59989890D01*
X172814661Y-60558889D01*
X172814662Y-60558890D01*
X172927743Y-60628907D01*
X172927749Y-60628910D01*
X173133218Y-60708508D01*
X173349825Y-60749000D01*
X173570175Y-60749000D01*
X173786781Y-60708508D01*
X173992252Y-60628909D01*
X173992253Y-60628908D01*
X174105337Y-60558889D01*
X173536338Y-59989890D01*
X173627904Y-59965356D01*
X173727097Y-59908087D01*
X173808087Y-59827097D01*
X173865356Y-59727904D01*
X173889890Y-59636338D01*
X174461006Y-60207454D01*
X174475237Y-60188609D01*
X174475239Y-60188606D01*
X174573454Y-59991367D01*
X174573460Y-59991352D01*
X174633761Y-59779415D01*
X174633762Y-59779413D01*
X174654094Y-59560000D01*
X174654094Y-59559999D01*
X174633762Y-59340586D01*
X174633761Y-59340584D01*
X174573460Y-59128647D01*
X174573454Y-59128632D01*
X174475242Y-58931396D01*
X174475237Y-58931388D01*
X174461006Y-58912544D01*
X173889890Y-59483661D01*
X173865356Y-59392096D01*
X173808087Y-59292903D01*
X173727097Y-59211913D01*
X173627904Y-59154644D01*
X173536336Y-59130109D01*
X174105337Y-58561109D01*
X174105336Y-58561108D01*
X173992256Y-58491093D01*
X173992244Y-58491087D01*
X173904616Y-58457139D01*
X173849215Y-58414566D01*
X173825625Y-58348799D01*
X173841337Y-58280719D01*
X173891361Y-58231940D01*
X173898960Y-58228241D01*
X173907200Y-58224573D01*
X174058470Y-58114669D01*
X174183585Y-57975715D01*
X174277075Y-57813785D01*
X174334855Y-57635956D01*
X174354400Y-57450000D01*
X174334855Y-57264044D01*
X174277075Y-57086215D01*
X174235959Y-57015000D01*
X174183586Y-56924286D01*
X174058469Y-56785330D01*
X173907204Y-56675429D01*
X173907201Y-56675427D01*
X173907200Y-56675427D01*
X173861698Y-56655168D01*
X173736390Y-56599376D01*
X173736384Y-56599374D01*
X173576265Y-56565341D01*
X173553490Y-56560500D01*
X173366510Y-56560500D01*
X173343735Y-56565341D01*
X173183615Y-56599374D01*
X173183609Y-56599376D01*
X173012800Y-56675427D01*
X173012795Y-56675429D01*
X172861530Y-56785330D01*
X172736413Y-56924286D01*
X172642925Y-57086213D01*
X172585146Y-57264039D01*
X172585145Y-57264041D01*
X172565600Y-57450000D01*
X172585145Y-57635958D01*
X172585146Y-57635960D01*
X172626388Y-57762890D01*
X172628383Y-57832731D01*
X172596138Y-57888889D01*
X169065489Y-61419540D01*
X169009541Y-61475487D01*
X169009535Y-61475495D01*
X168969982Y-61544004D01*
X168969979Y-61544009D01*
X168949500Y-61620439D01*
X168949500Y-62203671D01*
X168929815Y-62270710D01*
X168877011Y-62316465D01*
X168870871Y-62318786D01*
X168870900Y-62318855D01*
X168865269Y-62321187D01*
X168691467Y-62414086D01*
X168691460Y-62414090D01*
X168539116Y-62539116D01*
X168414090Y-62691460D01*
X168414086Y-62691467D01*
X168321188Y-62865266D01*
X168263975Y-63053870D01*
X168244659Y-63250000D01*
X161742537Y-63250000D01*
X161755341Y-63120000D01*
X161736024Y-62923868D01*
X161678814Y-62735273D01*
X161678811Y-62735267D01*
X161678811Y-62735266D01*
X161585913Y-62561467D01*
X161585909Y-62561460D01*
X161460883Y-62409116D01*
X161308539Y-62284090D01*
X161308532Y-62284086D01*
X161134733Y-62191188D01*
X161134727Y-62191186D01*
X160946132Y-62133976D01*
X160946129Y-62133975D01*
X160750000Y-62114659D01*
X160553870Y-62133975D01*
X160454609Y-62164086D01*
X160365273Y-62191186D01*
X160365272Y-62191186D01*
X160365267Y-62191188D01*
X160359646Y-62193517D01*
X160358773Y-62191411D01*
X160300308Y-62203564D01*
X160235073Y-62178541D01*
X160222619Y-62167648D01*
X157374512Y-59319541D01*
X157374504Y-59319535D01*
X157305995Y-59279982D01*
X157305990Y-59279979D01*
X157280513Y-59273152D01*
X157229562Y-59259500D01*
X157229560Y-59259500D01*
X157013500Y-59259500D01*
X156946461Y-59239815D01*
X156900706Y-59187011D01*
X156889500Y-59135500D01*
X156889500Y-58851249D01*
X156889499Y-58851247D01*
X156877868Y-58792770D01*
X156877867Y-58792769D01*
X156833552Y-58726447D01*
X156767230Y-58682132D01*
X156767229Y-58682131D01*
X156702774Y-58669311D01*
X156703065Y-58667846D01*
X156645136Y-58644448D01*
X156604782Y-58587410D01*
X156601672Y-58517609D01*
X156636792Y-58457208D01*
X156645116Y-58450794D01*
X156645337Y-58448889D01*
X156076338Y-57879890D01*
X156167904Y-57855356D01*
X156267097Y-57798087D01*
X156348087Y-57717097D01*
X156405356Y-57617904D01*
X156429890Y-57526337D01*
X157001006Y-58097454D01*
X157015237Y-58078609D01*
X157015239Y-58078606D01*
X157113454Y-57881367D01*
X157113460Y-57881352D01*
X157173761Y-57669415D01*
X157173762Y-57669413D01*
X157194094Y-57450000D01*
X157194094Y-57449999D01*
X157173762Y-57230586D01*
X157173761Y-57230584D01*
X157113460Y-57018647D01*
X157113454Y-57018632D01*
X157015242Y-56821396D01*
X157015237Y-56821388D01*
X157001006Y-56802544D01*
X156429890Y-57373661D01*
X156405356Y-57282096D01*
X156348087Y-57182903D01*
X156267097Y-57101913D01*
X156167904Y-57044644D01*
X156076338Y-57020109D01*
X156645337Y-56451109D01*
X156645336Y-56451108D01*
X156532256Y-56381093D01*
X156532250Y-56381089D01*
X156326781Y-56301491D01*
X156110175Y-56261000D01*
X155889825Y-56261000D01*
X155673218Y-56301491D01*
X155467748Y-56381090D01*
X155354661Y-56451109D01*
X155923662Y-57020109D01*
X155832096Y-57044644D01*
X155732903Y-57101913D01*
X155651913Y-57182903D01*
X155594644Y-57282096D01*
X155570109Y-57373662D01*
X154998992Y-56802545D01*
X154998991Y-56802545D01*
X154984761Y-56821390D01*
X154886545Y-57018632D01*
X154886539Y-57018647D01*
X154826238Y-57230584D01*
X154826237Y-57230586D01*
X154805906Y-57449999D01*
X154805906Y-57450000D01*
X154354400Y-57450000D01*
X154334855Y-57264044D01*
X154277075Y-57086215D01*
X154235959Y-57015000D01*
X154183586Y-56924286D01*
X154058469Y-56785330D01*
X153907204Y-56675429D01*
X153907201Y-56675427D01*
X153907200Y-56675427D01*
X153861698Y-56655168D01*
X153736390Y-56599376D01*
X153736384Y-56599374D01*
X153576265Y-56565341D01*
X153553490Y-56560500D01*
X153366510Y-56560500D01*
X153343735Y-56565341D01*
X153183615Y-56599374D01*
X153183609Y-56599376D01*
X153012800Y-56675427D01*
X153012795Y-56675429D01*
X152861530Y-56785330D01*
X152736413Y-56924286D01*
X152642925Y-57086213D01*
X152585146Y-57264039D01*
X152585145Y-57264041D01*
X152565600Y-57450000D01*
X152585145Y-57635958D01*
X152585146Y-57635960D01*
X152626388Y-57762890D01*
X152628383Y-57832731D01*
X152596138Y-57888889D01*
X149315489Y-61169540D01*
X149259541Y-61225487D01*
X149259535Y-61225495D01*
X149219982Y-61294004D01*
X149219979Y-61294009D01*
X149199500Y-61370439D01*
X149199500Y-62073671D01*
X149179815Y-62140710D01*
X149127011Y-62186465D01*
X149120871Y-62188786D01*
X149120900Y-62188855D01*
X149115269Y-62191187D01*
X148941467Y-62284086D01*
X148941460Y-62284090D01*
X148789116Y-62409116D01*
X148664090Y-62561460D01*
X148664086Y-62561467D01*
X148571188Y-62735266D01*
X148513975Y-62923870D01*
X148494659Y-63120000D01*
X147550500Y-63120000D01*
X147550500Y-56960439D01*
X147540813Y-56924286D01*
X147530021Y-56884011D01*
X147530017Y-56884004D01*
X147490464Y-56815495D01*
X147490458Y-56815487D01*
X146174971Y-55500000D01*
X148494659Y-55500000D01*
X148513975Y-55696129D01*
X148513976Y-55696132D01*
X148569488Y-55879131D01*
X148571188Y-55884733D01*
X148664086Y-56058532D01*
X148664090Y-56058539D01*
X148789116Y-56210883D01*
X148941460Y-56335909D01*
X148941467Y-56335913D01*
X149115266Y-56428811D01*
X149115269Y-56428811D01*
X149115273Y-56428814D01*
X149303868Y-56486024D01*
X149500000Y-56505341D01*
X149696132Y-56486024D01*
X149884727Y-56428814D01*
X150058538Y-56335910D01*
X150210883Y-56210883D01*
X150335910Y-56058538D01*
X150428814Y-55884727D01*
X150428815Y-55884723D01*
X150431144Y-55879103D01*
X150433260Y-55879979D01*
X150465945Y-55830083D01*
X150529751Y-55801613D01*
X150546328Y-55800500D01*
X159703672Y-55800500D01*
X159770711Y-55820185D01*
X159816466Y-55872989D01*
X159818787Y-55879131D01*
X159818856Y-55879103D01*
X159821185Y-55884726D01*
X159914086Y-56058532D01*
X159914090Y-56058539D01*
X160039116Y-56210883D01*
X160191460Y-56335909D01*
X160191467Y-56335913D01*
X160365266Y-56428811D01*
X160365269Y-56428811D01*
X160365273Y-56428814D01*
X160553868Y-56486024D01*
X160750000Y-56505341D01*
X160946132Y-56486024D01*
X161134727Y-56428814D01*
X161308538Y-56335910D01*
X161460883Y-56210883D01*
X161585910Y-56058538D01*
X161678814Y-55884727D01*
X161736024Y-55696132D01*
X161742537Y-55630000D01*
X168244659Y-55630000D01*
X168263975Y-55826129D01*
X168267080Y-55836365D01*
X168316275Y-55998539D01*
X168321188Y-56014733D01*
X168414086Y-56188532D01*
X168414090Y-56188539D01*
X168539116Y-56340883D01*
X168691460Y-56465909D01*
X168691467Y-56465913D01*
X168865266Y-56558811D01*
X168865269Y-56558811D01*
X168865273Y-56558814D01*
X169053868Y-56616024D01*
X169250000Y-56635341D01*
X169446132Y-56616024D01*
X169634727Y-56558814D01*
X169658656Y-56546024D01*
X169734770Y-56505340D01*
X169808538Y-56465910D01*
X169960883Y-56340883D01*
X170085910Y-56188538D01*
X170178814Y-56014727D01*
X170178815Y-56014723D01*
X170181144Y-56009103D01*
X170183260Y-56009979D01*
X170215945Y-55960083D01*
X170279751Y-55931613D01*
X170296328Y-55930500D01*
X179739258Y-55930500D01*
X179806297Y-55950185D01*
X179848616Y-55996047D01*
X179914085Y-56118532D01*
X179914090Y-56118539D01*
X180039116Y-56270883D01*
X180191460Y-56395909D01*
X180191467Y-56395913D01*
X180365266Y-56488811D01*
X180365269Y-56488811D01*
X180365273Y-56488814D01*
X180553868Y-56546024D01*
X180750000Y-56565341D01*
X180946132Y-56546024D01*
X181134727Y-56488814D01*
X181177578Y-56465910D01*
X181308532Y-56395913D01*
X181308538Y-56395910D01*
X181460883Y-56270883D01*
X181585910Y-56118538D01*
X181678814Y-55944727D01*
X181736024Y-55756132D01*
X181748447Y-55630000D01*
X188244659Y-55630000D01*
X188263975Y-55826129D01*
X188267080Y-55836365D01*
X188316275Y-55998539D01*
X188321188Y-56014733D01*
X188414086Y-56188532D01*
X188414090Y-56188539D01*
X188539116Y-56340883D01*
X188691460Y-56465909D01*
X188691467Y-56465913D01*
X188865266Y-56558811D01*
X188865269Y-56558811D01*
X188865273Y-56558814D01*
X189053868Y-56616024D01*
X189250000Y-56635341D01*
X189446132Y-56616024D01*
X189634727Y-56558814D01*
X189658656Y-56546024D01*
X189734770Y-56505340D01*
X189808538Y-56465910D01*
X189960883Y-56340883D01*
X190085910Y-56188538D01*
X190085910Y-56188536D01*
X190085914Y-56188532D01*
X190156729Y-56056047D01*
X190205691Y-56006202D01*
X190266087Y-55990500D01*
X199453672Y-55990500D01*
X199520711Y-56010185D01*
X199566466Y-56062989D01*
X199568787Y-56069131D01*
X199568856Y-56069103D01*
X199571185Y-56074726D01*
X199664086Y-56248532D01*
X199664090Y-56248539D01*
X199789116Y-56400883D01*
X199941460Y-56525909D01*
X199941467Y-56525913D01*
X200115266Y-56618811D01*
X200115269Y-56618811D01*
X200115273Y-56618814D01*
X200303868Y-56676024D01*
X200500000Y-56695341D01*
X200696132Y-56676024D01*
X200884727Y-56618814D01*
X201058538Y-56525910D01*
X201210883Y-56400883D01*
X201335910Y-56248538D01*
X201405400Y-56118532D01*
X201428811Y-56074733D01*
X201428811Y-56074732D01*
X201428814Y-56074727D01*
X201486024Y-55886132D01*
X201505341Y-55690000D01*
X201486024Y-55493868D01*
X201428814Y-55305273D01*
X201428811Y-55305269D01*
X201428811Y-55305266D01*
X201335913Y-55131467D01*
X201335909Y-55131460D01*
X201210883Y-54979116D01*
X201058539Y-54854090D01*
X201058532Y-54854086D01*
X200884733Y-54761188D01*
X200884727Y-54761186D01*
X200696132Y-54703976D01*
X200696129Y-54703975D01*
X200500000Y-54684659D01*
X200303870Y-54703975D01*
X200115266Y-54761188D01*
X199941467Y-54854086D01*
X199941460Y-54854090D01*
X199789116Y-54979116D01*
X199664090Y-55131460D01*
X199664086Y-55131467D01*
X199571185Y-55305273D01*
X199568856Y-55310897D01*
X199566739Y-55310020D01*
X199534055Y-55359917D01*
X199470249Y-55388387D01*
X199453672Y-55389500D01*
X190314530Y-55389500D01*
X190247491Y-55369815D01*
X190201736Y-55317011D01*
X190195870Y-55301497D01*
X190178813Y-55245270D01*
X190085913Y-55071467D01*
X190085909Y-55071460D01*
X189960883Y-54919116D01*
X189808539Y-54794090D01*
X189808532Y-54794086D01*
X189634733Y-54701188D01*
X189634727Y-54701186D01*
X189446132Y-54643976D01*
X189446129Y-54643975D01*
X189250000Y-54624659D01*
X189053870Y-54643975D01*
X188865266Y-54701188D01*
X188691467Y-54794086D01*
X188691460Y-54794090D01*
X188539116Y-54919116D01*
X188414090Y-55071460D01*
X188414086Y-55071467D01*
X188321188Y-55245266D01*
X188263975Y-55433870D01*
X188244659Y-55630000D01*
X181748447Y-55630000D01*
X181755341Y-55560000D01*
X181736024Y-55363868D01*
X181678814Y-55175273D01*
X181678811Y-55175269D01*
X181678811Y-55175266D01*
X181585913Y-55001467D01*
X181585909Y-55001460D01*
X181460883Y-54849116D01*
X181308539Y-54724090D01*
X181308532Y-54724086D01*
X181134733Y-54631188D01*
X181134727Y-54631186D01*
X180946132Y-54573976D01*
X180946129Y-54573975D01*
X180750000Y-54554659D01*
X180553870Y-54573975D01*
X180365266Y-54631188D01*
X180191467Y-54724086D01*
X180191460Y-54724090D01*
X180039116Y-54849116D01*
X179914090Y-55001460D01*
X179914086Y-55001467D01*
X179821186Y-55175271D01*
X179801097Y-55241496D01*
X179762800Y-55299934D01*
X179698988Y-55328391D01*
X179682437Y-55329500D01*
X170296328Y-55329500D01*
X170229289Y-55309815D01*
X170183534Y-55257011D01*
X170181212Y-55250868D01*
X170181144Y-55250897D01*
X170178814Y-55245273D01*
X170085913Y-55071467D01*
X170085909Y-55071460D01*
X169960883Y-54919116D01*
X169808539Y-54794090D01*
X169808532Y-54794086D01*
X169634733Y-54701188D01*
X169634727Y-54701186D01*
X169446132Y-54643976D01*
X169446129Y-54643975D01*
X169250000Y-54624659D01*
X169053870Y-54643975D01*
X168865266Y-54701188D01*
X168691467Y-54794086D01*
X168691460Y-54794090D01*
X168539116Y-54919116D01*
X168414090Y-55071460D01*
X168414086Y-55071467D01*
X168321188Y-55245266D01*
X168263975Y-55433870D01*
X168244659Y-55630000D01*
X161742537Y-55630000D01*
X161755341Y-55500000D01*
X161736024Y-55303868D01*
X161678814Y-55115273D01*
X161678811Y-55115269D01*
X161678811Y-55115266D01*
X161585913Y-54941467D01*
X161585909Y-54941460D01*
X161460883Y-54789116D01*
X161308539Y-54664090D01*
X161308532Y-54664086D01*
X161134733Y-54571188D01*
X161134727Y-54571186D01*
X160946132Y-54513976D01*
X160946129Y-54513975D01*
X160750000Y-54494659D01*
X160553870Y-54513975D01*
X160365266Y-54571188D01*
X160191467Y-54664086D01*
X160191460Y-54664090D01*
X160039116Y-54789116D01*
X159914090Y-54941460D01*
X159914086Y-54941467D01*
X159821185Y-55115273D01*
X159818856Y-55120897D01*
X159816739Y-55120020D01*
X159784055Y-55169917D01*
X159720249Y-55198387D01*
X159703672Y-55199500D01*
X150546328Y-55199500D01*
X150479289Y-55179815D01*
X150433534Y-55127011D01*
X150431212Y-55120868D01*
X150431144Y-55120897D01*
X150428814Y-55115273D01*
X150335913Y-54941467D01*
X150335909Y-54941460D01*
X150210883Y-54789116D01*
X150058539Y-54664090D01*
X150058532Y-54664086D01*
X149884733Y-54571188D01*
X149884727Y-54571186D01*
X149696132Y-54513976D01*
X149696129Y-54513975D01*
X149500000Y-54494659D01*
X149303870Y-54513975D01*
X149115266Y-54571188D01*
X148941467Y-54664086D01*
X148941460Y-54664090D01*
X148789116Y-54789116D01*
X148664090Y-54941460D01*
X148664086Y-54941467D01*
X148571188Y-55115266D01*
X148513975Y-55303870D01*
X148494659Y-55500000D01*
X146174971Y-55500000D01*
X142934512Y-52259541D01*
X142934504Y-52259535D01*
X142865995Y-52219982D01*
X142865990Y-52219979D01*
X142840513Y-52213152D01*
X142789562Y-52199500D01*
X142789560Y-52199500D01*
X139305833Y-52199500D01*
X139238794Y-52179815D01*
X139218152Y-52163181D01*
X137619298Y-50564327D01*
X137585813Y-50503004D01*
X137590797Y-50433312D01*
X137597618Y-50418197D01*
X137605232Y-50403954D01*
X137665300Y-50205934D01*
X137685583Y-50000000D01*
X138114417Y-50000000D01*
X138134699Y-50205932D01*
X138134700Y-50205934D01*
X138194768Y-50403954D01*
X138292315Y-50586450D01*
X138292317Y-50586452D01*
X138423589Y-50746410D01*
X138520209Y-50825702D01*
X138583550Y-50877685D01*
X138766046Y-50975232D01*
X138964066Y-51035300D01*
X138964065Y-51035300D01*
X138982529Y-51037118D01*
X139170000Y-51055583D01*
X139375934Y-51035300D01*
X139573954Y-50975232D01*
X139756450Y-50877685D01*
X139916410Y-50746410D01*
X140047685Y-50586450D01*
X140145232Y-50403954D01*
X140205300Y-50205934D01*
X140225583Y-50000000D01*
X140654417Y-50000000D01*
X140674699Y-50205932D01*
X140674700Y-50205934D01*
X140734768Y-50403954D01*
X140832315Y-50586450D01*
X140832317Y-50586452D01*
X140963589Y-50746410D01*
X141060209Y-50825702D01*
X141123550Y-50877685D01*
X141306046Y-50975232D01*
X141504066Y-51035300D01*
X141504065Y-51035300D01*
X141522529Y-51037118D01*
X141710000Y-51055583D01*
X141915934Y-51035300D01*
X142113954Y-50975232D01*
X142296450Y-50877685D01*
X142456410Y-50746410D01*
X142587685Y-50586450D01*
X142685232Y-50403954D01*
X142745300Y-50205934D01*
X142765583Y-50000000D01*
X143194417Y-50000000D01*
X143214699Y-50205932D01*
X143214700Y-50205934D01*
X143274768Y-50403954D01*
X143372315Y-50586450D01*
X143372317Y-50586452D01*
X143503589Y-50746410D01*
X143600209Y-50825702D01*
X143663550Y-50877685D01*
X143846046Y-50975232D01*
X144044066Y-51035300D01*
X144044065Y-51035300D01*
X144062529Y-51037118D01*
X144250000Y-51055583D01*
X144455934Y-51035300D01*
X144653954Y-50975232D01*
X144836450Y-50877685D01*
X144996410Y-50746410D01*
X145127685Y-50586450D01*
X145225232Y-50403954D01*
X145285300Y-50205934D01*
X145305583Y-50000000D01*
X145734417Y-50000000D01*
X145754699Y-50205932D01*
X145754700Y-50205934D01*
X145814768Y-50403954D01*
X145912315Y-50586450D01*
X145912317Y-50586452D01*
X146043589Y-50746410D01*
X146140209Y-50825702D01*
X146203550Y-50877685D01*
X146386046Y-50975232D01*
X146584066Y-51035300D01*
X146584065Y-51035300D01*
X146602529Y-51037118D01*
X146790000Y-51055583D01*
X146995934Y-51035300D01*
X147193954Y-50975232D01*
X147376450Y-50877685D01*
X147536410Y-50746410D01*
X147667685Y-50586450D01*
X147765232Y-50403954D01*
X147825300Y-50205934D01*
X147845583Y-50000000D01*
X148274417Y-50000000D01*
X148294699Y-50205932D01*
X148294700Y-50205934D01*
X148354768Y-50403954D01*
X148452315Y-50586450D01*
X148452317Y-50586452D01*
X148583589Y-50746410D01*
X148680209Y-50825702D01*
X148743550Y-50877685D01*
X148926046Y-50975232D01*
X149124066Y-51035300D01*
X149124065Y-51035300D01*
X149142529Y-51037118D01*
X149330000Y-51055583D01*
X149535934Y-51035300D01*
X149733954Y-50975232D01*
X149916450Y-50877685D01*
X150076410Y-50746410D01*
X150207685Y-50586450D01*
X150305232Y-50403954D01*
X150365300Y-50205934D01*
X150385583Y-50000000D01*
X150814417Y-50000000D01*
X150834699Y-50205932D01*
X150834700Y-50205934D01*
X150894768Y-50403954D01*
X150992315Y-50586450D01*
X150992317Y-50586452D01*
X151123589Y-50746410D01*
X151220209Y-50825702D01*
X151283550Y-50877685D01*
X151466046Y-50975232D01*
X151664066Y-51035300D01*
X151664065Y-51035300D01*
X151682529Y-51037118D01*
X151870000Y-51055583D01*
X152075934Y-51035300D01*
X152273954Y-50975232D01*
X152456450Y-50877685D01*
X152616410Y-50746410D01*
X152747685Y-50586450D01*
X152845232Y-50403954D01*
X152905300Y-50205934D01*
X152925583Y-50000000D01*
X152905300Y-49794066D01*
X152845232Y-49596046D01*
X152747685Y-49413550D01*
X152672897Y-49322420D01*
X152616410Y-49253589D01*
X152466121Y-49130252D01*
X152456450Y-49122315D01*
X152273954Y-49024768D01*
X152075934Y-48964700D01*
X152075932Y-48964699D01*
X152075934Y-48964699D01*
X151870000Y-48944417D01*
X151664067Y-48964699D01*
X151466043Y-49024769D01*
X151378114Y-49071769D01*
X151283550Y-49122315D01*
X151283548Y-49122316D01*
X151283547Y-49122317D01*
X151123589Y-49253589D01*
X150992317Y-49413547D01*
X150894769Y-49596043D01*
X150834699Y-49794067D01*
X150814417Y-50000000D01*
X150385583Y-50000000D01*
X150365300Y-49794066D01*
X150305232Y-49596046D01*
X150207685Y-49413550D01*
X150132897Y-49322420D01*
X150076410Y-49253589D01*
X149926121Y-49130252D01*
X149916450Y-49122315D01*
X149733954Y-49024768D01*
X149535934Y-48964700D01*
X149535932Y-48964699D01*
X149535934Y-48964699D01*
X149330000Y-48944417D01*
X149124067Y-48964699D01*
X148926043Y-49024769D01*
X148838114Y-49071769D01*
X148743550Y-49122315D01*
X148743548Y-49122316D01*
X148743547Y-49122317D01*
X148583589Y-49253589D01*
X148452317Y-49413547D01*
X148354769Y-49596043D01*
X148294699Y-49794067D01*
X148274417Y-50000000D01*
X147845583Y-50000000D01*
X147825300Y-49794066D01*
X147765232Y-49596046D01*
X147667685Y-49413550D01*
X147592897Y-49322420D01*
X147536410Y-49253589D01*
X147386121Y-49130252D01*
X147376450Y-49122315D01*
X147193954Y-49024768D01*
X146995934Y-48964700D01*
X146995932Y-48964699D01*
X146995934Y-48964699D01*
X146790000Y-48944417D01*
X146584067Y-48964699D01*
X146386043Y-49024769D01*
X146298114Y-49071769D01*
X146203550Y-49122315D01*
X146203548Y-49122316D01*
X146203547Y-49122317D01*
X146043589Y-49253589D01*
X145912317Y-49413547D01*
X145814769Y-49596043D01*
X145754699Y-49794067D01*
X145734417Y-50000000D01*
X145305583Y-50000000D01*
X145285300Y-49794066D01*
X145225232Y-49596046D01*
X145127685Y-49413550D01*
X145052897Y-49322420D01*
X144996410Y-49253589D01*
X144846121Y-49130252D01*
X144836450Y-49122315D01*
X144653954Y-49024768D01*
X144455934Y-48964700D01*
X144455932Y-48964699D01*
X144455934Y-48964699D01*
X144250000Y-48944417D01*
X144044067Y-48964699D01*
X143846043Y-49024769D01*
X143758114Y-49071769D01*
X143663550Y-49122315D01*
X143663548Y-49122316D01*
X143663547Y-49122317D01*
X143503589Y-49253589D01*
X143372317Y-49413547D01*
X143274769Y-49596043D01*
X143214699Y-49794067D01*
X143194417Y-50000000D01*
X142765583Y-50000000D01*
X142745300Y-49794066D01*
X142685232Y-49596046D01*
X142587685Y-49413550D01*
X142512897Y-49322420D01*
X142456410Y-49253589D01*
X142306121Y-49130252D01*
X142296450Y-49122315D01*
X142113954Y-49024768D01*
X141915934Y-48964700D01*
X141915932Y-48964699D01*
X141915934Y-48964699D01*
X141710000Y-48944417D01*
X141504067Y-48964699D01*
X141306043Y-49024769D01*
X141218114Y-49071769D01*
X141123550Y-49122315D01*
X141123548Y-49122316D01*
X141123547Y-49122317D01*
X140963589Y-49253589D01*
X140832317Y-49413547D01*
X140734769Y-49596043D01*
X140674699Y-49794067D01*
X140654417Y-50000000D01*
X140225583Y-50000000D01*
X140205300Y-49794066D01*
X140145232Y-49596046D01*
X140047685Y-49413550D01*
X139972897Y-49322420D01*
X139916410Y-49253589D01*
X139766121Y-49130252D01*
X139756450Y-49122315D01*
X139573954Y-49024768D01*
X139375934Y-48964700D01*
X139375932Y-48964699D01*
X139375934Y-48964699D01*
X139170000Y-48944417D01*
X138964067Y-48964699D01*
X138766043Y-49024769D01*
X138678114Y-49071769D01*
X138583550Y-49122315D01*
X138583548Y-49122316D01*
X138583547Y-49122317D01*
X138423589Y-49253589D01*
X138292317Y-49413547D01*
X138194769Y-49596043D01*
X138134699Y-49794067D01*
X138114417Y-50000000D01*
X137685583Y-50000000D01*
X137665300Y-49794066D01*
X137605232Y-49596046D01*
X137507685Y-49413550D01*
X137432897Y-49322420D01*
X137376410Y-49253589D01*
X137226121Y-49130252D01*
X137216450Y-49122315D01*
X137033954Y-49024768D01*
X136835934Y-48964700D01*
X136835932Y-48964699D01*
X136835934Y-48964699D01*
X136630000Y-48944417D01*
X136424067Y-48964699D01*
X136226043Y-49024769D01*
X136138114Y-49071769D01*
X136043550Y-49122315D01*
X136043548Y-49122316D01*
X136043547Y-49122317D01*
X135883589Y-49253589D01*
X135752317Y-49413547D01*
X135654769Y-49596043D01*
X135594699Y-49794067D01*
X135574417Y-50000000D01*
X135145583Y-50000000D01*
X135125300Y-49794066D01*
X135065232Y-49596046D01*
X134967685Y-49413550D01*
X134892897Y-49322420D01*
X134836410Y-49253589D01*
X134686121Y-49130252D01*
X134676450Y-49122315D01*
X134493954Y-49024768D01*
X134295934Y-48964700D01*
X134295932Y-48964699D01*
X134295934Y-48964699D01*
X134090000Y-48944417D01*
X133884067Y-48964699D01*
X133686043Y-49024769D01*
X133598114Y-49071769D01*
X133503550Y-49122315D01*
X133503548Y-49122316D01*
X133503547Y-49122317D01*
X133343589Y-49253589D01*
X133212317Y-49413547D01*
X133114767Y-49596046D01*
X133094593Y-49662552D01*
X133056296Y-49720990D01*
X132992483Y-49749447D01*
X132923416Y-49738886D01*
X132871023Y-49692661D01*
X132856158Y-49658649D01*
X132823433Y-49536516D01*
X132823429Y-49536507D01*
X132723600Y-49322422D01*
X132723599Y-49322420D01*
X132588113Y-49128926D01*
X132588108Y-49128920D01*
X132421082Y-48961894D01*
X132227578Y-48826399D01*
X132013492Y-48726570D01*
X132013486Y-48726567D01*
X131800000Y-48669364D01*
X131800000Y-49566988D01*
X131742993Y-49534075D01*
X131615826Y-49500000D01*
X131484174Y-49500000D01*
X131357007Y-49534075D01*
X131300000Y-49566988D01*
X131300000Y-48669364D01*
X131299999Y-48669364D01*
X131086513Y-48726567D01*
X131086507Y-48726570D01*
X130872422Y-48826399D01*
X130872420Y-48826400D01*
X130678926Y-48961886D01*
X130678920Y-48961891D01*
X130511891Y-49128920D01*
X130511886Y-49128926D01*
X130376400Y-49322420D01*
X130376399Y-49322422D01*
X130296882Y-49492948D01*
X130250710Y-49545387D01*
X130183516Y-49564539D01*
X130116635Y-49544323D01*
X130071300Y-49491158D01*
X130060500Y-49440543D01*
X130060500Y-49130249D01*
X130060499Y-49130247D01*
X130048868Y-49071770D01*
X130048867Y-49071769D01*
X130004552Y-49005447D01*
X129938230Y-48961132D01*
X129938229Y-48961131D01*
X129879752Y-48949500D01*
X129879748Y-48949500D01*
X128140252Y-48949500D01*
X128140247Y-48949500D01*
X128081770Y-48961131D01*
X128081769Y-48961132D01*
X128015447Y-49005447D01*
X127971132Y-49071769D01*
X127971131Y-49071770D01*
X127959500Y-49130247D01*
X127959500Y-50869752D01*
X125500500Y-50869752D01*
X125500500Y-46374500D01*
X125520185Y-46307461D01*
X125572989Y-46261706D01*
X125624500Y-46250500D01*
X204375500Y-46250500D01*
X204442539Y-46270185D01*
G37*
%TD.AperFunction*%
%TD*%
M02*
