M48
; DRILL file {KiCad 8.0.1} date 2024-10-21T16:04:43-0300
; FORMAT={-:-/ absolute / inch / decimal}
; #@! TF.CreationDate,2024-10-21T16:04:43-03:00
; #@! TF.GenerationSoftware,Kicad,Pcbnew,8.0.1
; #@! TF.FileFunction,Plated,1,2,PTH
FMAT,2
INCH
; #@! TA.AperFunction,Plated,PTH,ComponentDrill
T1C0.0197
; #@! TA.AperFunction,Plated,PTH,ComponentDrill
T2C0.0315
; #@! TA.AperFunction,Plated,PTH,ComponentDrill
T3C0.0343
; #@! TA.AperFunction,Plated,PTH,ComponentDrill
T4C0.0374
; #@! TA.AperFunction,Plated,PTH,ComponentDrill
T5C0.0394
%
G90
G05
T1
X7.8839Y-2.7264
T2
X5.0787Y-2.1803
X5.0787Y-2.4803
X5.5413Y-2.1827
X5.5413Y-2.4827
X5.8858Y-2.185
X5.8858Y-2.485
X6.2598Y-2.6453
X6.2598Y-2.9453
X6.3287Y-2.185
X6.3287Y-2.485
X6.6634Y-2.1902
X6.6634Y-2.4902
X7.1161Y-2.1874
X7.1161Y-2.4874
X7.2146Y-2.6823
X7.2146Y-2.9823
X7.3622Y-2.6846
X7.3622Y-2.9846
X7.4508Y-2.1902
X7.4508Y-2.4902
X7.8937Y-2.1925
X7.8937Y-2.4925
T3
X5.2543Y-2.2618
X5.2543Y-2.3449
X5.3543Y-2.2618
X5.3543Y-2.3449
X6.0417Y-2.2618
X6.0417Y-2.3449
X6.1417Y-2.2618
X6.1417Y-2.3449
X6.8291Y-2.2618
X6.8291Y-2.3449
X6.9291Y-2.2618
X6.9291Y-2.3449
X7.6165Y-2.2618
X7.6165Y-2.3449
X7.7165Y-2.2618
X7.7165Y-2.3449
T4
X5.6299Y-2.9626
X5.7283Y-2.9626
X5.8268Y-2.9626
X5.9252Y-2.9626
T5
X5.0791Y-1.9685
X5.1791Y-1.9685
X5.2791Y-1.9685
X5.3791Y-1.9685
X5.4791Y-1.9685
X5.5791Y-1.9685
X5.6791Y-1.9685
X5.7791Y-1.9685
X5.8791Y-1.9685
X5.9791Y-1.9685
X6.5748Y-2.6559
X6.5748Y-2.7559
X6.5748Y-2.8559
X6.5748Y-2.9559
X6.8898Y-2.6559
X6.8898Y-2.7559
X6.8898Y-2.8559
X6.8898Y-2.9559
M30
