%TF.GenerationSoftware,KiCad,Pcbnew,8.0.1*%
%TF.CreationDate,2024-10-21T16:06:20-03:00*%
%TF.ProjectId,placa_de_sensores,706c6163-615f-4646-955f-73656e736f72,rev?*%
%TF.SameCoordinates,Original*%
%TF.FileFunction,Other,User*%
%FSLAX46Y46*%
G04 Gerber Fmt 4.6, Leading zero omitted, Abs format (unit mm)*
G04 Created by KiCad (PCBNEW 8.0.1) date 2024-10-21 16:06:20*
%MOMM*%
%LPD*%
G01*
G04 APERTURE LIST*
%ADD10C,0.050000*%
G04 APERTURE END LIST*
D10*
%TO.C,CONEX\u00C3O-I2C1*%
X153500000Y-77350000D02*
X153500000Y-72550000D01*
X153500000Y-72550000D02*
X140000000Y-72550000D01*
X140000000Y-77350000D02*
X153500000Y-77350000D01*
X140000000Y-72550000D02*
X140000000Y-77350000D01*
%TO.C,INA122*%
X173200000Y-65660000D02*
X173200000Y-76860000D01*
X173200000Y-76860000D02*
X176800000Y-76860000D01*
X176800000Y-65660000D02*
X173200000Y-65660000D01*
X176800000Y-76860000D02*
X176800000Y-65660000D01*
%TO.C,RG*%
X160500000Y-66140000D02*
X157500000Y-66140000D01*
X157500000Y-66140000D02*
X157500000Y-75860000D01*
X160500000Y-75860000D02*
X160500000Y-66140000D01*
X157500000Y-75860000D02*
X160500000Y-75860000D01*
%TO.C,R10*%
X130500000Y-54330000D02*
X127500000Y-54330000D01*
X127500000Y-54330000D02*
X127500000Y-64050000D01*
X130500000Y-64050000D02*
X130500000Y-54330000D01*
X127500000Y-64050000D02*
X130500000Y-64050000D01*
%TO.C,R9*%
X151000000Y-54450000D02*
X148000000Y-54450000D01*
X148000000Y-54450000D02*
X148000000Y-64170000D01*
X151000000Y-64170000D02*
X151000000Y-54450000D01*
X148000000Y-64170000D02*
X151000000Y-64170000D01*
%TO.C,R8*%
X185500000Y-76860000D02*
X188500000Y-76860000D01*
X188500000Y-76860000D02*
X188500000Y-67140000D01*
X185500000Y-67140000D02*
X185500000Y-76860000D01*
X188500000Y-67140000D02*
X185500000Y-67140000D01*
%TO.C,R7*%
X184750000Y-67080000D02*
X181750000Y-67080000D01*
X181750000Y-67080000D02*
X181750000Y-76800000D01*
X184750000Y-76800000D02*
X184750000Y-67080000D01*
X181750000Y-76800000D02*
X184750000Y-76800000D01*
%TO.C,R6*%
X142250000Y-54390000D02*
X139250000Y-54390000D01*
X139250000Y-54390000D02*
X139250000Y-64110000D01*
X142250000Y-64110000D02*
X142250000Y-54390000D01*
X139250000Y-64110000D02*
X142250000Y-64110000D01*
%TO.C,R5*%
X159250000Y-64170000D02*
X162250000Y-64170000D01*
X162250000Y-64170000D02*
X162250000Y-54450000D01*
X159250000Y-54450000D02*
X159250000Y-64170000D01*
X162250000Y-54450000D02*
X159250000Y-54450000D01*
%TO.C,R4*%
X167750000Y-64300000D02*
X170750000Y-64300000D01*
X170750000Y-64300000D02*
X170750000Y-54580000D01*
X167750000Y-54580000D02*
X167750000Y-64300000D01*
X170750000Y-54580000D02*
X167750000Y-54580000D01*
%TO.C,R3*%
X187750000Y-64300000D02*
X190750000Y-64300000D01*
X190750000Y-64300000D02*
X190750000Y-54580000D01*
X187750000Y-54580000D02*
X187750000Y-64300000D01*
X190750000Y-54580000D02*
X187750000Y-54580000D01*
%TO.C,R2*%
X179250000Y-64230000D02*
X182250000Y-64230000D01*
X182250000Y-64230000D02*
X182250000Y-54510000D01*
X179250000Y-54510000D02*
X179250000Y-64230000D01*
X182250000Y-54510000D02*
X179250000Y-54510000D01*
%TO.C,R1*%
X199000000Y-64360000D02*
X202000000Y-64360000D01*
X202000000Y-64360000D02*
X202000000Y-54640000D01*
X199000000Y-54640000D02*
X199000000Y-64360000D01*
X202000000Y-54640000D02*
X199000000Y-54640000D01*
%TO.C,ANA_OUT*%
X199100000Y-68250000D02*
X199100000Y-70250000D01*
X199100000Y-70250000D02*
X201400000Y-70250000D01*
X201400000Y-68250000D02*
X199100000Y-68250000D01*
X201400000Y-70250000D02*
X201400000Y-68250000D01*
%TO.C,INA122_E1*%
X165200000Y-65660000D02*
X165200000Y-76860000D01*
X165200000Y-76860000D02*
X168800000Y-76860000D01*
X168800000Y-65660000D02*
X165200000Y-65660000D01*
X168800000Y-76860000D02*
X168800000Y-65660000D01*
%TO.C,ADS1115*%
X153660000Y-51800000D02*
X153660000Y-48200000D01*
X153660000Y-48200000D02*
X127210000Y-48200000D01*
X127210000Y-51800000D02*
X153660000Y-51800000D01*
X127210000Y-48200000D02*
X127210000Y-51800000D01*
%TD*%
M02*
